<svg xmlns="http://www.w3.org/2000/svg" viewBox="0 0 627.4 784.7"><g><path fill="#BC9562" d="M185.2 543.3c-8.9 6.9-18.8 10.5-28.9 10.5-5 0-10-.9-14.9-2.7-3.2-1.2-6.3-2.7-9.2-4.6-1.4 4.6-3 13.8.4 26.3 2.3-2 5.1-4.1 8-5.8s10.1-7.1 16.9-7.6c0 0 .7 6.5 2.1 12.9 1.6 6 5.8 17.6 15.6 27.5 0-.4-.1-.7-.1-1.1-1.8-29.5 6.8-46.7 10.1-52.1v-3.3z"/><path fill="#EFD2AB" d="M136.6 442.8c5.9-1.3 11.7-2.5 17.1-3.5 0 0-8-.3-17.1 3.5z"/><g fill="#EFD2AB"><path d="M222.3 650.5l1.3.6.9 1.1c.1.2 14 17 39.7 33.5 23.7 15.2 62.6 33.3 113.6 33.3 75.7 0 124.3-22.3 140.4-64.5 2.8-7.4 2.6-14.8-.5-19.8-1.7-2.7-4.3-4.6-7.5-5.6-6.5-1.3-16.7 3.1-16.7 3.1-.3-6.8 8.1-13.6 9.7-14.8 3.4-3 5.1-6.9 4.7-8.9-.1-.4-.3-1.3-2.7-2-6-1.6-18 8.8-24.2 16.3l-1.8 2.2H256c-15.6 0-28.3-12.7-28.3-28.3s12.7-28.3 28.3-28.3h233.5c1.4 0 2.8-.8 3.3-1.9.7-1.4-.2-2.9-1.1-4-3.2-3.9-5-7.5-5.9-10.5-2.4.5-4.6.8-6.4 1-23.2 2.9-47.5-4.6-67-10.7-10.6-3.3-22.6-7-26.5-5.8-1.3.4-4.3 2.9-6.8 4.9-6.4 5.3-14.9 12.3-25.1 12.3-.9 0-1.8-.1-2.7-.2-9.2-1.1-15.7-6-18.4-13.8-3.7-10.7.9-24.9 7.4-31.4.3-.3.5-.5.8-.7 9.2-9 19.3-.9 19.3-.9-1.7.1-8.9 6.4-11.5 9.9-2.3 3.3-3.7 6.4-4.3 8.1-1.1 3.7-1.5 7.8-.4 11.1.7 2.1 2.4 5.1 8.5 5.8 6.3.8 12.9-4.7 18.7-9.5.5-.4 1-.8 1.4-1.2 3.3-3.1 8-8.6 7.8-14.7 0 0 20.8 9.7 33.5 14 .6.2 1.2.4 1.7.5 18.4 5.7 41.3 12.8 61.9 10.2 20.6-2.6 27.1-9.3 27.6-12.9.3-2-1-3.4-2.4-4.1-2-.9-6.2-.9-11.5-1-14.3 0-38.3-.1-80-15.8-38.3-14.4-53.2-46.9-58.9-72.2v-.2c-.1-.4-.2-.7-.2-1.1-.1-.3-.1-.5-.1-.8-3.6-21.2 9.4-29.9 9.4-29.9-.9 5.5 2.5 27.7 2.9 30.2 5.2 22.2 18.3 50.4 51.2 62.7 31.5 11.8 52.2 14.3 66.1 14.8v-19.9H457c-22.9 0-44.5-8.7-61.1-24.4-16.6-15.9-26.1-37.1-26.8-59.9v-2.8-2.8c0-.7.1-1.5.1-2.3h-27.7c.1 1.7.1 3.3.1 5 0 46.4-36.5 84.5-82.3 87-.4.1-.8.1-1.3.1h-26.3c-12.2 0-24-2.5-34.9-7.1v54.8c6.8-2.4 12.8-1.7 12.8-1.7-5.8 4.9-11.6 12.1-12.9 13.6l-1.1 1.4c-3.7 5.1-10.4 21.4-8.9 46 2 26.3 19.7 45.8 35.6 52.9zM521.5 480.4c-8.4 4.6-17.7 7.8-27.5 9.4v21.3c4.6 0 8.4.2 11.6 1.1 4.8-3.1 17.4-13 15.9-31.8zM145.6 539.8c13.6 5 28 .4 39.4-12.8.1-.1.2-.2.2-.3v-49.2c-5-3.2-9.8-6.8-14.2-11-6.6-6.3-12.1-13.5-16.4-21.3-.4.1-.8.1-1.1.1-.1 0-15-.2-25.7 10.3-7.7 7.6-11.6 19.1-11.5 34.1.2 23.6 12 43.7 29.3 50.1zM533.6 481.9c.2-1.2.2-2.2-.2-3.2.1 1.1.2 2.2.2 3.2zM437.4 312.4l-38.8 15.1c-1.4.6-3 .5-4.4 0L365.7 316c0 1.4-.2 2.8-.4 4.2-1.3 12.5-9.5 31.2-9.5 31.2-3.3-12.4-14.3-18.7-18.4-20.6-29.2-11.1-62.3-16.1-82-18.2h-29.6c-8.1 1.7-14.8 4.7-19.8 8.2 8.3-2.6 17.1-3.9 26-3.9h23.9c31.6.4 59.2 17.7 74.1 43.3h51c15.7-26.8 44.7-43.3 76.1-43.3H481c5.4.1 10.6.6 15.7 1.6-3.1-2.8-7-4.8-10-6h-49.3z"/></g><path fill="#BC9562" d="M105.3 311.9c-5.1 4.5-16.1 15-21.3 27l16.4-1.6c3-.4 11.1-1.7 18.5-5.9 0 0-8.2 14.1-11.9 21.8-6.6 14.9-13.2 33-15.3 48.6 7.6-5.3 20.6-16.5 31.2-26.7.2-.2.5-.4.8-.6 4.6-4.7 11.4-12 15.9-18.8 0 0 0 9.1-7.3 27.1-.5 1.2-1 2.2-1.5 3.1-7.7 17.6-13.8 34.8-15.2 42.9 4.8-.5 11.2-.2 16.1 3.2 1.4 1 3 2.4 4.2 4.5 5.3-2 10.1-2.8 13.5-3.1-3.1-8.5-4.9-17.5-5.1-26.8v-2.8-2.8c.6-22.7 10.1-44 26.8-59.9 4.4-4.2 9.3-7.9 14.4-11.1 1.4-6.8 5.8-13.1 12.4-18.1h-92.6z"/><path fill="#E2C19A" d="M185 527c.1-.1.2-.2.2-.3v-49.2c-5-3.2-9.8-6.8-14.2-11l-.3-.3v72.1c5.1-2.5 9.9-6.2 14.3-11.3z"/><g fill="#E2C19A"><path d="M396.2 466.5c-16-15.3-25.4-35.6-26.6-57.4-.6 3.6-.9 7.3-.9 11.1 0 43.7 36 81.7 89.9 81.7 11.2 0 17.9 5.1 23.3 9h.2V491h-24.8c-22.9-.1-44.6-8.7-61.1-24.5zM384.2 386.8h.2c4-.1 7.2-3.4 7.2-7.4 0-2.8-1.6-5.2-3.9-6.5-3.9 4.3-7.3 8.9-10.1 13.8h6.6z"/></g><path fill="#B2B2B2" d="M419.5 341.2h-4.2c-3.7 2.4-7.1 5.1-10.3 8.1h7.1l.3-.3c2.2-2.7 4.6-5.3 7.1-7.8z"/><g fill="#6A6A6D"><path d="M381.4 402.3v4.1c.1 2.2.2 4.4.5 6.5h11c-4.4-9-10.2-10.4-11.5-10.6zM397.6 432.2c-1.5-4.3-2.6-8.8-3.4-13.3h-11.4c.9 4.6 2.3 9 4 13.3h10.8zM393.7 362.6c.2.1.4.3.6.4 1.4-.1 6.8-.9 13-7.6h-8.1c-1.9 2.3-3.8 4.7-5.5 7.2zM413.4 459.9c-2.3-2.7-4.4-5.6-6.4-8.6h-8.6c1.9 2.3 3.9 4.4 6 6.5 2.4 2.3 5 4.4 7.6 6.4 2.2 1.4 8 4.7 2.2-2.9-.4-.6-.7-1.1-.8-1.4zM389.7 438.2c1.3 2.5 2.7 4.8 4.3 7.2h9.5c-1.3-2.3-2.4-4.7-3.5-7.2h-10.3z"/></g><path fill="#B2B2B2" d="M381.4 402.3v4.1c.1 2.2.2 4.4.5 6.5h11c-4.4-9-10.2-10.4-11.5-10.6zM389.7 438.2c1.3 2.5 2.7 4.8 4.3 7.2h9.5c-1.3-2.3-2.4-4.7-3.5-7.2h-10.3z"/><path fill="#E78100" d="M384.2 372.1H336c1.9 4.7 3.3 9.6 4.3 14.7h44.1c4-.1 7.2-3.4 7.2-7.4s-3.3-7.3-7.4-7.3z"/><path fill="#E7AD00" d="M358 380.7h33.5c.1-.4.1-.9.1-1.3 0-4.1-3.3-7.4-7.4-7.4h-37.5c1.3 5.1 5.9 8.7 11.3 8.7z"/><path fill="#6A6A6D" d="M480 328.7c-41.4 0-75.1 33.7-75.1 75.1s33.7 75.1 75.1 75.1c41.4 0 75.1-33.7 75.1-75.1s-33.7-75.1-75.1-75.1zm0 130.2c-30.4 0-55.1-24.7-55.1-55.1s24.7-55.1 55.1-55.1 55.1 24.7 55.1 55.1-24.7 55.1-55.1 55.1z"/><path fill="#9696B2" d="M480 348.8c-30.4 0-55.1 24.7-55.1 55.1S449.6 459 480 459s55.1-24.7 55.1-55.1-24.7-55.1-55.1-55.1z"/><path fill="#83839E" d="M480 458.9c30.4 0 55.1-24.7 55.1-55.1 0-15.1-6.1-28.8-16-38.7l-79.5 76.1c10.1 10.9 24.4 17.7 40.4 17.7z"/><path fill="#777793" d="M487.5 458.4c26.8-3.7 47.6-26.7 47.6-54.5s-20.8-50.9-47.6-54.5c22.3 8.1 38.2 29.5 38.2 54.5-.1 25-16 46.4-38.2 54.5z"/><path fill="#C6BBAC" d="M222.3 650.5l1.3.6.9 1.1c.1.2 14 17 39.7 33.5 23.7 15.2 62.6 33.3 113.6 33.3 75.7 0 124.3-22.3 140.4-64.5 2.8-7.4 2.6-14.8-.5-19.8-1.7-2.7-4.3-4.6-7.5-5.6-6.5-1.3-16.7 3.1-16.7 3.1-.3-6.8 8.1-13.6 9.7-14.8 3.4-3 5.1-6.9 4.7-8.9-.1-.4-.3-1.3-2.7-2-6-1.6-18 8.8-24.2 16.3l-1.8 2.2H256c-15.6 0-28.3-12.7-28.3-28.3s12.7-28.3 28.3-28.3h233.5c1.4 0 2.8-.8 3.3-1.9.7-1.4-.2-2.9-1.1-4-1.1-1.3-2-2.6-2.8-3.8H359.7c-34.5 0-60.9-13.3-73.1-20.8-2.4-1.9-4.8-3.6-7.5-5.1-9.2-5.3-19.9-8.4-31.4-8.4-14.2 0-27.3 4.7-37.8 12.7-5.8 4.9-11.6 12-12.8 13.6l-1.1 1.4c-3.7 5.1-10.4 21.4-8.9 46 1.6 25.8 19.3 45.3 35.2 52.4z"/><path fill="#242444" d="M252.6 601.8h-.2c-11.9-1.3-13.5-9-13.6-10.4-.1-.4 0-.7.1-1.1 2.2-5.9 7.3-10.3 13.4-11.6h.4c.5 0 .9.2 1.3.4.5.4.7 1 .7 1.6v19.1c0 .6-.2 1.1-.7 1.5-.4.3-.9.5-1.4.5z"/><path fill="#B2B2B2" d="M189.4 341.8c-3.3 2.3-6.5 4.8-9.5 7.6h7.1c2.1-2.7 4.4-5.2 6.8-7.6h-4.4zM171.1 379.8c.7-2.4 1.5-4.8 2.4-7.2H163c-1.1 2.3-2 4.7-2.9 7.2h11zM168.2 412.8c-.3-2.5-.4-5-.4-7.6h-11.5v1.1c.1 2.2.2 4.4.5 6.5h11.4zM168.8 445.3h9.5c-1.3-2.3-2.4-4.7-3.5-7.2h-10.3c1.3 2.5 2.7 4.9 4.3 7.2z"/><g fill="#6A6A6D"><path d="M179.3 457.8c1.5 1.4 3.1 2.8 4.7 4.1 0 0 11.1 6.9 4.9-1.1-.2-.3-.4-.5-.5-.7-2.3-2.8-4.5-5.7-6.5-8.7h-8.6c1.9 2.2 3.9 4.4 6 6.4zM157.7 418.8c.9 4.6 2.3 9 4 13.3h10.8c-1.5-4.3-2.6-8.7-3.4-13.3h-11.4zM156.4 399.2h11.5c.2-4.6.8-9 1.8-13.4h-11.3c-1.1 4.4-1.8 8.9-2 13.4zM166.1 366.7h10c1.9-3.9 4-7.7 6.4-11.3h-8.4c-3 3.5-5.7 7.3-8 11.3z"/></g><path fill="#6A6A6D" d="M254.9 328.7c-29.3 0-54.7 16.9-67.1 41.4-.1.6-.4 1.1-.8 1.6-4.6 9.7-7.2 20.6-7.2 32.1 0 41.4 33.7 75.1 75.1 75.1 41.4 0 75.1-33.7 75.1-75.1s-33.7-75.1-75.1-75.1zm0 130.2c-30.4 0-55.1-24.7-55.1-55.1s24.7-55.1 55.1-55.1 55.1 24.7 55.1 55.1-24.8 55.1-55.1 55.1z"/><path fill="#9696B2" d="M254.9 348.8c-30.4 0-55.1 24.7-55.1 55.1s24.7 55.1 55.1 55.1 55.1-24.7 55.1-55.1-24.8-55.1-55.1-55.1z"/><path fill="#83839E" d="M254.9 458.9c30.4 0 55.1-24.7 55.1-55.1 0-15.2-6.2-28.9-16.1-38.9L214.4 441c10 11 24.4 17.9 40.5 17.9z"/><path fill="#777793" d="M261.3 458.5c27.3-3.2 48.6-26.5 48.6-54.7 0-28.2-21.3-51.5-48.6-54.7 22.4 8 38.5 29.5 38.5 54.7 0 25.2-16 46.7-38.5 54.7z"/><path fill="#E2C19A" d="M212 535.5v-21c.1-2.2 1.4-11.5 18.4-11.6h.1c2.9.2 5.9.4 9 .4 49.5 0 84.8-26.5 94.1-62.1-13.4 28-41.2 47.8-73.9 49.6-.4.1-.8.1-1.3.1h-26.3c-12.2 0-24-2.5-34.9-7.1v54.8c6.8-2.4 12.8-1.7 12.8-1.7l-.1.1c.7-.5 1.4-1.1 2.1-1.5z"/><path fill="#B2A697" d="M373.2 643.3c-.4.1-.8.1-1.3.1H249.8c-23.6 0-42.8-20.7-42.8-46.1s19.2-46.1 42.8-46.1h1.7c-3.8-2.3-12.2-5.5-25.6-1.6 0 0-13.8 1.5-13.8-8.2v-6c-.8.6-1.6 1.1-2.3 1.7-5.7 4.9-11.3 11.8-12.5 13.3l-1.1 1.4c-3.7 5.1-10.4 21.4-8.9 46 1.5 26 19.3 45.4 35.1 52.5l1.3.6.9 1.1c.1.2 14 17 39.7 33.5 3.9 2.5 8.1 5 12.8 7.6-9.7-10.7-13.4-20.8-13.4-20.8-26.2-15.4-16.5-17.5-10.5-17.6.9 0 1.9.1 2.8.1h.5-.1 8.9c18.7-.5 107.4-6.4 107.4-6.4s5.4-1.3 7-6c-1.9.5-4.1.8-6.5.9z"/><g fill="#F7E2C9"><path d="M361.6 406c.1-1.8.2-2.9.2-2.9-.1.7-.2 1.7-.2 2.9z"/><path d="M491.7 523c-14.3 0-38.3-.1-80-15.8-38.3-14.4-53.2-46.9-58.9-72.2v-.2c-.1-.4-.2-.7-.2-1.1-.1-.3-.1-.5-.1-.8-3.6-21.2 9.4-29.9 9.4-29.9-7.2 2.1-15.1 15-15.5 22.5-.8 14.8 2.8 33.1 13.4 50.2 16 25.8 44.4 46 95.6 50.5 31 2.7 43.9.8 49.2-1.2-.4-.4-.9-.8-1.4-1-2.1-.9-6.2-.9-11.5-1z"/></g><path fill="#F7E2C9" d="M143.3 538.9c-4.5-4.4-23.5-24.6-19-56.4 4.5-32 30.2-37.3 30.2-37.3v-.1c-.3 0-.6.1-1 .1-.1 0-15-.2-25.7 10.3-7.7 7.6-11.6 19.1-11.5 34.1.2 22.6 11 42 27 49.3z"/><path fill="#FFF" d="M269.8 612.2h20.6c2.5 0 4.6-1.7 5.2-4.1v-27.8h-31V608c.5 2.4 2.7 4.2 5.2 4.2z"/><path fill="#E7AD00" d="M312.8 612.2h20.6c2.5 0 4.6-1.8 5.2-4.1v-27.8h-31v27.8c.5 2.4 2.6 4.1 5.2 4.1z"/><g fill="#FFF"><path d="M355.9 612.2h20.6c2.4 0 4.4-1.6 5.1-3.8v-28.1h-31v27.1c.3 2.7 2.5 4.8 5.3 4.8zM441.8 612.2h20.6c2.4 0 4.5-1.6 5.1-3.9v-28h-31v27.2c.4 2.7 2.6 4.7 5.3 4.7zM393.6 606.9c0 2.9 2.4 5.3 5.3 5.3h20.6c2.4 0 4.3-1.5 5-3.6v-28.2h-31l.1 26.5z"/></g><path fill="#E78100" d="M307.6 580.3V594c4.3-13.1 28.2-9 31-8.5v-5.2h-31z"/><g opacity=".1" fill="#181830"><path d="M264.6 580.3v13.3c4.7-12.9 28.9-8.5 31-8.1v-5.2h-31zM350.6 580.3v14.8c3.2-14 27-10.3 31-9.6v-5.2h-31zM393.6 580.3v14.4c3.6-13.6 27.4-9.8 31-9.2v-5.2h-31zM436.6 580.3v13.5c4.5-13 28.5-8.8 31-8.3v-5.2h-31z"/></g><path fill="#BC9562" d="M507.7 312.4c2.6 3 4.8 6.7 5.8 11.1 4.1 1.7 8.1 3.8 11.9 6.1 2.8-3.2 6.9-5.3 12.1-6.2.5-.1 1-.2 1.4-.2-2.5-4.6-5.6-8.4-7.9-10.7h-23.3zM320.5 312.4c10.6 3 21.3 6.7 31.4 11.2 1.4-3.3 2.7-7.8 1.2-11.2h-32.6z"/><path fill="#A57C4A" d="M185.2 543.3c-8.9 6.9-18.8 10.5-28.9 10.5-5 0-10-.9-14.9-2.7-3.2-1.2-6.3-2.7-9.2-4.6-.8 2.5-1.6 6.3-1.6 11.3 5.1-2.2 12.4-3.4 17.9 4.5 2.9-1.5 6.2-2.7 9-2.9 0 0 .7 6.5 2.1 12.9.5 1.7 1.1 3.8 2 6.3 5 .5 10.5-2.8 14.7-6.2 2.3-13.7 6.7-22.3 8.8-25.8v-3.3zM138.2 312.4c.3 3.3-.1 11.1-8.9 19.6 0 0 13 5.2 31.3-10.1 0 0-13.4 23-9.4 47.7 4.5-10.6 11.2-20.3 19.9-28.5 4.4-4.2 9.3-7.9 14.4-11.1 1.3-6.6 5.6-12.7 11.8-17.7h-59.1zM131.7 432.1c1.4 1 3 2.4 4.2 4.5 5.3-2 10.1-2.8 13.5-3.1-3.1-8.5-4.9-17.5-5.1-26.8v-2.8-2.8-.6c-6.1 9-16.7 22.3-28.7 28.4v.1c4.8-.6 11.2-.3 16.1 3.1zM513.6 323.5c4.1 1.7 8.1 3.8 11.9 6.1 1.6-1.9 3.7-3.3 6.2-4.5-5.3-3.4-8.9-8.5-11.2-12.7h-12.7c2.6 3 4.7 6.7 5.8 11.1z"/><g fill="#A57C4A"><path d="M336 317.3c4.4-1.7 11-3.1 17.8-.5.1-1.5 0-3.1-.6-4.4h-32.6c5.1 1.5 10.3 3.1 15.4 4.9zM396.5 315.5l7.9-3.1H389"/></g><g><path fill="#181830" d="M426.4 335.2z"/></g><path fill="#AAA" d="M212.6 136.5H146c-16.9 20.5-29.8 43.5-38.3 68.2h104.9l-1.2-1.5-5.5-5.5 8.9-10.4 2.8-3.3-12.3-12.6 9.8-11.2 2.4-3-15-12.7 9.8-7.7.3-.3z"/><path fill="#BCBCBC" d="M212.6 136.5H146c-2.3 2.8-4.5 5.6-6.6 8.4 4.1 17.6 16.4 30.3 33.4 30.3H209l-3.7-3.8 9.8-11.2 2.4-3-15-12.7 9.8-7.7.3-.3z"/><g fill="none"><path d="M178.3 445.3c-1.3-2.3-2.4-4.7-3.5-7.2h-10.3c1.3 2.5 2.7 4.9 4.3 7.2h9.5zM157.7 418.8c.9 4.6 2.3 9 4 13.3h10.8c-1.5-4.3-2.6-8.7-3.4-13.3h-11.4zM187 371.7c-4.6 9.7-7.2 20.6-7.2 32.1 0 41.4 33.7 75.1 75.1 75.1 41.4 0 75.1-33.7 75.1-75.1s-33.7-75.1-75.1-75.1c-29.3 0-54.7 16.9-67.1 41.4-.1.7-.4 1.2-.8 1.6zM182.6 355.4h-8.4c-3 3.5-5.7 7.3-8 11.3h10c1.8-4 3.9-7.8 6.4-11.3zM384.2 386.8h.2c4-.1 7.2-3.4 7.2-7.4 0-4.1-3.3-7.4-7.4-7.4H336c1.9 4.7 3.3 9.6 4.3 14.7h43.9zM193.8 341.8h-4.4c-3.3 2.3-6.5 4.8-9.5 7.6h7.1c2.1-2.7 4.4-5.2 6.8-7.6zM179.3 457.8c1.5 1.4 3.1 2.8 4.7 4.1 0 0 11.1 6.9 4.9-1.1-.2-.3-.4-.5-.5-.7-2.3-2.8-4.5-5.7-6.5-8.7h-8.6c1.9 2.2 3.9 4.4 6 6.4zM381.4 402.3v4.1c.1 2.2.2 4.4.5 6.5h11c-4.4-9-10.2-10.4-11.5-10.6zM407.3 355.4h-8.1c-2 2.3-3.8 4.7-5.5 7.3.2.1.4.3.6.4 1.5-.2 6.8-1 13-7.7zM412.4 349c2.2-2.7 4.6-5.3 7.2-7.8h-4.2c-3.7 2.4-7.1 5.1-10.3 8.1h7.1c0-.1.1-.2.2-.3zM404.5 457.8c2.4 2.3 5 4.4 7.6 6.4 2.2 1.4 8 4.7 2.2-2.9-.5-.6-.8-1.1-.9-1.4-2.3-2.7-4.4-5.6-6.4-8.6h-8.6c1.9 2.3 3.9 4.5 6.1 6.5zM389.7 438.2c1.3 2.5 2.7 4.8 4.3 7.2h9.5c-1.3-2.3-2.4-4.7-3.5-7.2h-10.3zM382.8 418.8c.9 4.6 2.3 9 4 13.3h10.8c-1.5-4.3-2.6-8.8-3.4-13.3h-11.4zM173.5 372.7H163c-1.1 2.3-2 4.7-2.9 7.2h11c.7-2.5 1.5-4.9 2.4-7.2zM240.7 591s.6 7.5 11.9 8.8v-19.1c-5.5 1.2-10 5.1-11.9 10.3zM264.6 608c.5 2.4 2.7 4.2 5.2 4.2h20.6c2.5 0 4.6-1.7 5.2-4.1v-27.8h-31V608zM494 489.8v21.3c4.6 0 8.4.2 11.6 1.1 4.7-3.1 17.3-13 15.9-31.8-8.4 4.6-17.7 7.8-27.5 9.4zM307.6 608.1c.5 2.4 2.7 4.1 5.2 4.1h20.6c2.5 0 4.6-1.8 5.2-4.1v-27.8h-31v27.8zM169.6 385.8h-11.3c-1.1 4.4-1.7 8.8-2 13.4h11.5c.3-4.5.9-9 1.8-13.4zM480 328.7c-41.4 0-75.1 33.7-75.1 75.1s33.7 75.1 75.1 75.1c41.4 0 75.1-33.7 75.1-75.1s-33.7-75.1-75.1-75.1zM350.6 607.4c.3 2.7 2.5 4.8 5.3 4.8h20.6c2.4 0 4.4-1.6 5.1-3.8v-28.1h-31v27.1zM141.4 551.1c-3.2-1.2-6.3-2.7-9.2-4.6-1.4 4.6-3 13.8.4 26.3 2.3-2 5.1-4.1 8-5.8s10.1-7.1 16.9-7.6c0 0 .7 6.5 2.1 12.9 1.6 6 5.8 17.6 15.6 27.5 0-.4-.1-.7-.1-1.1-1.8-29.5 6.8-46.7 10.1-52.1v-3.3c-8.9 6.9-18.8 10.5-28.9 10.5-4.9 0-10-.9-14.9-2.7zM156.8 412.8h11.5c-.3-2.5-.4-5-.4-7.6h-11.5v1.1c-.1 2.2.1 4.4.4 6.5zM154.7 445.2c-.4.1-.8.1-1.1.1-.1 0-15-.2-25.7 10.3-7.7 7.6-11.6 19.1-11.5 34.1.2 23.7 11.9 43.8 29.2 50.2 13.6 5 28 .4 39.4-12.8.1-.1.2-.2.2-.3v-49.2c-5-3.2-9.8-6.8-14.2-11-6.6-6.4-12.1-13.6-16.3-21.4zM393.6 606.9c0 2.9 2.4 5.3 5.3 5.3h20.6c2.4 0 4.3-1.5 5-3.6v-28.2h-31v26.5zM436.6 607.5c.3 2.6 2.5 4.7 5.3 4.7h20.6c2.4 0 4.5-1.6 5.1-3.9v-28h-31v27.2z"/><path d="M503.1 524c-2-.9-6.2-.9-11.5-1-14.3 0-38.3-.1-80-15.8-38.3-14.4-53.2-46.9-58.9-72.2v-.2c-.1-.4-.2-.7-.2-1.1-.1-.3-.1-.5-.1-.8-3.6-21.2 9.4-29.9 9.4-29.9-.9 5.5 2.5 27.7 2.9 30.2 5.2 22.2 18.3 50.4 51.2 62.7 31.5 11.8 52.2 14.3 66.1 14.8v-19.9h-24.8c-22.9 0-44.5-8.7-61.1-24.4-16.6-15.9-26.1-37.1-26.8-59.9v-2.8-2.8c0-.7.1-1.5.1-2.3h-27.7c.1 1.7.1 3.3.1 5 0 46.4-36.5 84.5-82.3 87-.4.1-.8.1-1.3.1h-26.3c-12.2 0-24-2.5-34.9-7.1v54.8c6.8-2.4 12.8-1.7 12.8-1.7-5.8 4.9-11.6 12.1-12.9 13.6l-1.1 1.4c-3.7 5.1-10.4 21.4-8.9 46 1.5 26 19.3 45.4 35.1 52.5l1.3.6.9 1.1c.1.2 14 17 39.7 33.5 23.7 15.2 62.6 33.3 113.6 33.3 75.7 0 124.3-22.3 140.4-64.5 2.8-7.4 2.6-14.8-.5-19.8-1.7-2.7-4.3-4.6-7.5-5.6-6.5-1.3-16.7 3.1-16.7 3.1-.3-6.8 8.1-13.6 9.7-14.8 3.4-3 5.1-6.9 4.7-8.9-.1-.4-.3-1.3-2.7-2-6-1.6-18 8.8-24.2 16.3l-1.8 2.2H256c-15.6 0-28.3-12.7-28.3-28.3s12.7-28.3 28.3-28.3h233.5c1.4 0 2.8-.8 3.3-1.9.7-1.4-.2-2.9-1.1-4-3.2-3.9-5-7.5-5.9-10.5-2.4.5-4.6.8-6.4 1-23.2 2.9-47.5-4.6-67-10.7-10.6-3.3-22.6-7-26.5-5.8-1.3.4-4.3 2.9-6.8 4.9-6.4 5.3-14.9 12.3-25.1 12.3-.9 0-1.8-.1-2.7-.2-9.2-1.1-15.7-6-18.4-13.8-3.7-10.7.9-24.9 7.4-31.4.3-.3.5-.5.8-.7 9.2-9 19.3-.9 19.3-.9-1.7.1-8.9 6.4-11.5 9.9-2.3 3.3-3.7 6.4-4.3 8.1-1.1 3.7-1.5 7.8-.4 11.1.7 2.1 2.4 5.1 8.5 5.8 6.3.8 12.9-4.7 18.7-9.5.5-.4 1-.8 1.4-1.2 3.3-3.1 8-8.6 7.8-14.7 0 0 20.8 9.7 33.5 14 .6.2 1.2.4 1.7.5 18.4 5.7 41.3 12.8 61.9 10.2 20.6-2.6 27.1-9.3 27.6-12.9.6-1.6-.8-3.1-2.2-3.7zM178.3 445.3c-1.3-2.3-2.4-4.7-3.5-7.2h-10.3c1.3 2.5 2.7 4.9 4.3 7.2h9.5zM157.7 418.8c.9 4.6 2.3 9 4 13.3h10.8c-1.5-4.3-2.6-8.7-3.4-13.3h-11.4zM384.2 386.8h.2c4-.1 7.2-3.4 7.2-7.4 0-4.1-3.3-7.4-7.4-7.4H336c1.9 4.7 3.3 9.6 4.3 14.7h43.9zM187 371.7c-4.6 9.7-7.2 20.6-7.2 32.1 0 41.4 33.7 75.1 75.1 75.1 41.4 0 75.1-33.7 75.1-75.1s-33.7-75.1-75.1-75.1c-29.3 0-54.7 16.9-67.1 41.4-.1.7-.4 1.2-.8 1.6zM179.3 457.8c1.5 1.4 3.1 2.8 4.7 4.1 0 0 11.1 6.9 4.9-1.1-.2-.3-.4-.5-.5-.7-2.3-2.8-4.5-5.7-6.5-8.7h-8.6c1.9 2.2 3.9 4.4 6 6.4zM182.6 355.4h-8.4c-3 3.5-5.7 7.3-8 11.3h10c1.8-4 3.9-7.8 6.4-11.3zM193.8 341.8h-4.4c-3.3 2.3-6.5 4.8-9.5 7.6h7.1c2.1-2.7 4.4-5.2 6.8-7.6zM407.3 355.4h-8.1c-2 2.3-3.8 4.7-5.5 7.3.2.1.4.3.6.4 1.5-.2 6.8-1 13-7.7zM412.4 349c2.2-2.7 4.6-5.3 7.2-7.8h-4.2c-3.7 2.4-7.1 5.1-10.3 8.1h7.1c0-.1.1-.2.2-.3zM381.4 402.3v4.1c.1 2.2.2 4.4.5 6.5h11c-4.4-9-10.2-10.4-11.5-10.6zM173.5 372.7H163c-1.1 2.3-2 4.7-2.9 7.2h11c.7-2.5 1.5-4.9 2.4-7.2zM382.8 418.8c.9 4.6 2.3 9 4 13.3h10.8c-1.5-4.3-2.6-8.8-3.4-13.3h-11.4zM389.7 438.2c1.3 2.5 2.7 4.8 4.3 7.2h9.5c-1.3-2.3-2.4-4.7-3.5-7.2h-10.3zM404.5 457.8c2.4 2.3 5 4.4 7.6 6.4 2.2 1.4 8 4.7 2.2-2.9-.5-.6-.8-1.1-.9-1.4-2.3-2.7-4.4-5.6-6.4-8.6h-8.6c1.9 2.3 3.9 4.5 6.1 6.5zM156.8 412.8h11.5c-.3-2.5-.4-5-.4-7.6h-11.5v1.1c-.1 2.2.1 4.4.4 6.5zM494 489.8v21.3c4.6 0 8.4.2 11.6 1.1 4.7-3.1 17.3-13 15.9-31.8-8.4 4.6-17.7 7.8-27.5 9.4z"/><path d="M269.8 612.2h20.6c2.5 0 4.6-1.7 5.2-4.1v-27.8h-31V608c.5 2.4 2.7 4.2 5.2 4.2zM312.8 612.2h20.6c2.5 0 4.6-1.8 5.2-4.1v-27.8h-31v27.8c.5 2.4 2.6 4.1 5.2 4.1zM480 328.7c-41.4 0-75.1 33.7-75.1 75.1s33.7 75.1 75.1 75.1c41.4 0 75.1-33.7 75.1-75.1s-33.7-75.1-75.1-75.1zM355.9 612.2h20.6c2.4 0 4.4-1.6 5.1-3.8v-28.1h-31v27.1c.3 2.7 2.5 4.8 5.3 4.8zM169.6 385.8h-11.3c-1.1 4.4-1.7 8.8-2 13.4h11.5c.3-4.5.9-9 1.8-13.4zM240.7 591s.6 7.5 11.9 8.8v-19.1c-5.5 1.2-10 5.1-11.9 10.3zM141.4 551.1c-3.2-1.2-6.3-2.7-9.2-4.6-1.4 4.6-3 13.8.4 26.3 2.3-2 5.1-4.1 8-5.8s10.1-7.1 16.9-7.6c0 0 .7 6.5 2.1 12.9 1.6 6 5.8 17.6 15.6 27.5 0-.4-.1-.7-.1-1.1-1.8-29.5 6.8-46.7 10.1-52.1v-3.3c-8.9 6.9-18.8 10.5-28.9 10.5-4.9 0-10-.9-14.9-2.7zM154.7 445.2c-.4.1-.8.1-1.1.1-.1 0-15-.2-25.7 10.3-7.7 7.6-11.6 19.1-11.5 34.1.2 23.7 11.9 43.8 29.2 50.2 13.6 5 28 .4 39.4-12.8.1-.1.2-.2.2-.3v-49.2c-5-3.2-9.8-6.8-14.2-11-6.6-6.4-12.1-13.6-16.3-21.4z"/><path d="M503.1 524c-2-.9-6.2-.9-11.5-1-14.3 0-38.3-.1-80-15.8-38.3-14.4-53.2-46.9-58.9-72.2v-.2c-.1-.4-.2-.7-.2-1.1-.1-.3-.1-.5-.1-.8-3.6-21.2 9.4-29.9 9.4-29.9-.9 5.5 2.5 27.7 2.9 30.2 5.2 22.2 18.3 50.4 51.2 62.7 31.5 11.8 52.2 14.3 66.1 14.8v-19.9h-24.8c-22.9 0-44.5-8.7-61.1-24.4-16.6-15.9-26.1-37.1-26.8-59.9v-2.8-2.8c0-.7.1-1.5.1-2.3h-27.7c.1 1.7.1 3.3.1 5 0 46.4-36.5 84.5-82.3 87-.4.1-.8.1-1.3.1h-26.3c-12.2 0-24-2.5-34.9-7.1v54.8c6.8-2.4 12.8-1.7 12.8-1.7-5.8 4.9-11.6 12.1-12.9 13.6l-1.1 1.4c-3.7 5.1-10.4 21.4-8.9 46 1.5 26 19.3 45.4 35.1 52.5l1.3.6.9 1.1c.1.2 14 17 39.7 33.5 23.7 15.2 62.6 33.3 113.6 33.3 75.7 0 124.3-22.3 140.4-64.5 2.8-7.4 2.6-14.8-.5-19.8-1.7-2.7-4.3-4.6-7.5-5.6-6.5-1.3-16.7 3.1-16.7 3.1-.3-6.8 8.1-13.6 9.7-14.8 3.4-3 5.1-6.9 4.7-8.9-.1-.4-.3-1.3-2.7-2-6-1.6-18 8.8-24.2 16.3l-1.8 2.2H256c-15.6 0-28.3-12.7-28.3-28.3s12.7-28.3 28.3-28.3h233.5c1.4 0 2.8-.8 3.3-1.9.7-1.4-.2-2.9-1.1-4-3.2-3.9-5-7.5-5.9-10.5-2.4.5-4.6.8-6.4 1-23.2 2.9-47.5-4.6-67-10.7-10.6-3.3-22.6-7-26.5-5.8-1.3.4-4.3 2.9-6.8 4.9-6.4 5.3-14.9 12.3-25.1 12.3-.9 0-1.8-.1-2.7-.2-9.2-1.1-15.7-6-18.4-13.8-3.7-10.7.9-24.9 7.4-31.4.3-.3.5-.5.8-.7 9.2-9 19.3-.9 19.3-.9-1.7.1-8.9 6.4-11.5 9.9-2.3 3.3-3.7 6.4-4.3 8.1-1.1 3.7-1.5 7.8-.4 11.1.7 2.1 2.4 5.1 8.5 5.8 6.3.8 12.9-4.7 18.7-9.5.5-.4 1-.8 1.4-1.2 3.3-3.1 8-8.6 7.8-14.7 0 0 20.8 9.7 33.5 14 .6.2 1.2.4 1.7.5 18.4 5.7 41.3 12.8 61.9 10.2 20.6-2.6 27.1-9.3 27.6-12.9.6-1.6-.8-3.1-2.2-3.7z"/><path d="M393.6 606.9c0 2.9 2.4 5.3 5.3 5.3h20.6c2.4 0 4.3-1.5 5-3.6v-28.2h-31l.1 26.5zM441.8 612.2h20.6c2.4 0 4.5-1.6 5.1-3.9v-28h-31v27.2c.4 2.7 2.6 4.7 5.3 4.7z"/></g><g><g fill="#E7AD00"><path d="M190.9 282.3h22.5v18.1h-22.5zM219.4 282.3h22.5v18.1h-22.5zM247.9 282.3h22.5v18.1h-22.5zM162.3 282.3h22.5v18.1h-22.5zM105.3 282.3h22.5v18.1h-22.5zM291.8 282.3h-15.4v18.1h22.5v-18.1M79.8 282.3h19.5v18.1H79.8zM145.1 282.3h-11.3v18.1h22.5v-18.1M390.4 282.3h22.5v18.1h-22.5zM484.4 282.3h-8.5v18.1h22.5v-18.1M447.4 282.3h22.5v18.1h-22.5zM504.4 282.3h22.5v18.1h-22.5zM541 282.3h-8v18.1h18.7v-18.1M333.4 282.3h22.5v18.1h-22.5zM418.9 282.3h22.5v18.1h-22.5zM304.9 282.3h22.5v18.1h-22.5zM361.9 282.3h22.5v18.1h-22.5z"/></g><g fill="#E7AD00"><path d="M380.3 66c-2.1-.5-26.5-6.1-18.5 3.6 23.3 20.9 43.3 46.7 58.8 76.1 20.6 39 31.8 82 32.8 124.6h30.9v-16c0-10.1 8.2-18.3 18.3-18.3H532c-8-43.4-28.9-83.3-60.7-115.1-25.9-25.9-57-44.5-91-54.9zM96 270.3h49.2v-16.1c0-10 8.2-18.2 18.2-18.2h110.2c10 0 18.2 8.2 18.2 18.2v16.1h43.9c-1.9-75.3-40.2-143.8-102-183.8h-.3s-.3-.4-1-.9-1.5-.9-2.2-1.4c-4.2-2.2-12.5-4.3-25.3 2.1-16.1 9.4-31.1 21-44.6 34.5-1.2 1.2-2.4 2.5-3.6 3.7h68.7c2.3 0 4.4 1.3 5.4 3.4 1 2.1.7 4.6-.8 6.4l-7.9 9.5 7.9 9.5c1.8 2.2 1.8 5.4 0 7.7l-7.9 9.5 7.9 9.5c1.8 2.2 1.8 5.4 0 7.7l-7.9 9.5 7.9 9.5c1.5 1.8 1.8 4.3.8 6.4-1 2.1-3.1 3.4-5.4 3.4H104c-4.8 17.5-7.5 35.5-8 53.8zM496.4 254.3v16h39.2c-.2-7.5-.8-15-1.7-22.3h-31.2c-3.5-.1-6.3 2.8-6.3 6.3zM163.4 247.9c-3.4 0-6.2 2.8-6.2 6.2v16.1h122.7v-16.1c0-3.4-2.8-6.2-6.2-6.2H163.4zM325.3 56.6c-3.2-.1-6.3-.2-9.5-.2-28.6 0-56.4 5.4-82.2 15.8 69.1 41.5 112.1 116 114.1 198.1h93.8c-1-40.7-11.8-81.7-31.4-119-20.7-39.3-49.8-71.8-84.1-94.2-.3-.1-.5-.3-.7-.5z"/></g><path fill="#E78100" d="M96 270.3h49.2v-14.6h-7.3c-18.6 0-15.6-21.2-15.3-23.1 1-5.3 2.3-10.6 3.7-15.8H104c-4.8 17.2-7.5 35.2-8 53.5zM196.3 105.6c.7-.5 1.4-1.1 2.1-1.8l1.5-1.2c13-10.1 34.6-1.5 57.7 20.2 23.8 22.5 57.6 87.1 60.1 108.6s-10.1 24.3-10.1 24.3h-15.8v14.6h43.9c-1.9-75.3-40.2-143.8-102-183.8h-.3s-.3-.4-1-.9-1.5-.9-2.2-1.4c-.7-.4-1.5-.7-2.4-1l-1 .1c.2-.1.3-.2.5-.3-4.7-1.5-12.1-1.8-22.4 3.3-16.1 9.4-31.1 21-44.6 34.5-1.2 1.2-2.4 2.5-3.6 3.7H177c6-6.7 12.5-13 19.3-18.9z"/><path fill="#FCD472" d="M204.5 256.9h75.3v-2.7c0-3.4-2.8-6.2-6.2-6.2h-80.9c1.5 5.1 6.2 8.9 11.8 8.9z"/><g fill="#FCD472"><path d="M333.4 282.3h22.5v7.9h-22.5zM257.4 282.3c1.8 4.6 6.2 7.9 11.4 7.9h1.6v-7.9h-13zM304.9 282.3h22.5v7.9h-22.5zM361.9 282.3h22.5v7.9h-22.5zM291.8 282.3h-15.4v7.9h22.5v-7.9M484.4 282.3h-8.5v7.9h22.5v-7.9M390.4 282.3h22.5v7.9h-22.5zM504.4 282.3h22.5v7.9h-22.5zM541 282.3h-8v7.9h18.7v-7.9M418.9 282.3h22.5v7.9h-22.5zM447.4 282.3h22.5v7.9h-22.5z"/></g><path fill="#FCD472" d="M520.1 256.9h14.7c-.3-3-.6-6-.9-8.9h-25.5c1.4 5.1 6.1 8.9 11.7 8.9z"/><g fill="#E78100"><path d="M270.4 297h-22.5v3.4h22.5V297zM298.9 297h-22.5v3.4h22.5V297zM241.9 297h-22.5v3.4h22.5V297zM327.4 297h-22.5v3.4h22.5V297zM127.8 296.4c-9.8-.7-17.1-2.1-22.5-3.7v7.7h22.5v-4zM355.9 297h-22.5v3.4h22.5V297zM156.3 297h-11.5c-3.9 0-7.6-.1-11-.2v3.6h22.5V297zM184.9 297h-22.5v3.4h22.5V297zM213.4 297h-22.5v3.4h22.5V297zM527 297h-22.5v3.4H527V297zM498.4 297h-22.5v3.4h22.5V297zM79.8 300.4h19.5v-9.9c-8.8-3.9-9.4-8.2-9.4-8.2l-.1-.1h-10v18.2zM384.4 297h-22.5v3.4h22.5V297zM533 300.4h18.8V297H533v3.4zM469.9 297h-22.5v3.4h22.5V297zM412.9 297h-22.5v3.4h22.5V297zM441.4 297h-22.5v3.4h22.5V297z"/></g><path fill="#E78100" d="M453.4 270.3h30.9v-14.6h-31.7c.5 4.8.7 9.7.8 14.6z"/></g><g><path fill="#181830" d="M567.1 403.8c0-27-12.3-51.1-31.7-67.1 2.7-1.9 7.5-1.9 9.9-1.8 2.1.4 6.5 1.5 11.5 4.5 0 0-2.9-12.4-5.3-17.8l-.3-.6c-1.4-3.2-3-6.1-4.8-8.6h17.3v-42.1h-16.1c-1.5-59.7-25.5-115.6-67.8-158-43.8-43.8-102-67.9-164-67.9-61.9 0-120.2 24.1-164 67.9-42.4 42.4-66.3 98.3-67.8 158H67.8v42.1h19.9c-4.7 5.2-9.7 11.7-13.4 18.9l-.2.1s-8 19.3-15.3 24.3c0 0 16 1.8 36.3-5.8h.2C88.8 365 82.3 383 80 399.3c-1.2 6.9-4.3 22.6-7.8 26.3 0 0 12.6-5.7 21.4-10.8 4.1-2.2 9.7-6.3 17.9-13.2-.2.6-.5 1.2-.7 1.8-3.7 10.1-5.9 17.3-6.9 22.7 0 0-.1.3-.2 1-.2 1.3-.4 2.5-.4 3.6-.5 5.3-.7 14.3 2.1 21.6 0 0 7.3-11 13.5-11.6 2.3 0 4.6.3 5.9 1.2.1.1.2.1.3.3-1.9 1.3-3.8 2.9-5.6 4.6-10.2 9.9-15.3 24.4-15.2 42.9.1 19.7 6.9 37.1 18.1 48.8-2 4.4-8.6 22.2 2.1 47.4.8 1.9 2.5 3.2 4.5 3.6 2 .4 4.1-.4 5.5-1.9 3.5-3.9 9.3-8.8 13.8-11.2 2.8 10 10.5 29 30.6 41.5 6.9 20.7 22.2 35.8 37.2 43 3.6 4.2 17.5 19.4 41.2 34.7 25.1 16.2 66.4 35.5 120.5 35.5 46.5 0 83.6-8.1 110.1-24 19.9-11.9 33.8-28.1 41.5-48.2 4.2-11.1 3.6-22.2-1.6-30.5-1.6-2.6-3.7-4.8-6-6.5-.1-.2-.3-.3-.5-.5-2.5-2-2.7-4.2-2.5-5.6 1.2-3.3 1.5-6.6.8-9.7-.7-3.2-3.1-8.8-11.4-11-10.2-2.7-21.3 5.1-28.7 11.9v-26.5h10c6.1 0 11.7-3.5 14.2-8.8 2.5-5.4 1.5-11.6-2.7-16.7-2-2.4-3-4.4-3.6-6 9.4-3.3 18.5-9.1 20-18.8.6-3.6-.1-7.1-1.8-10 10-7.9 21.5-23.7 17-46.7 21-16.3 34.5-41.4 34.5-69.7zm-29.6-80.5c-5.2.9-9.3 3.1-12.1 6.2-3.8-2.3-7.7-4.4-11.9-6.1-1.1-4.4-3.2-8-5.8-11.1H531c2.3 2.3 5.5 6.1 7.9 10.7-.4.2-.9.3-1.4.3zm-33.1-22.9v-18.1H527v18.1h-22.6zm47.3-18.1v18.1H533v-18.1h18.7zm-16.1-12h-39.2v-16c0-3.5 2.8-6.3 6.3-6.3h31.2c.9 7.3 1.5 14.8 1.7 22.3zm-141.7 175c-1.6-2.3-3-4.7-4.3-7.2H400c1.1 2.4 2.2 4.8 3.5 7.2h-9.6zm13.1 6c2 3 4.1 5.8 6.4 8.6.1.3.4.8.9 1.4 5.8 7.6-.1 4.2-2.2 2.9-2.6-1.9-5.2-4.1-7.6-6.4-2.2-2.1-4.2-4.2-6-6.5h8.5zm-25.6-49c1.3.2 7.1 1.6 11.5 10.5h-11c-.3-2.2-.4-4.3-.5-6.5v-2.5-1.5zm-41.1-15.5c-1-5.1-2.5-10-4.3-14.7h48.2c4.1 0 7.4 3.3 7.4 7.4 0 4-3.2 7.3-7.2 7.4h-44.1zm53.9 32c.8 4.6 2 9 3.4 13.3h-10.8c-1.8-4.3-3.1-8.8-4-13.3h11.4zm.2-55.8c-.2-.1-.4-.3-.6-.4 1.7-2.5 3.5-5 5.5-7.3h8.1c-6.3 6.8-11.6 7.6-13 7.7zm10.6-13.6c3.2-3 6.7-5.7 10.3-8.1h4.2c-2.5 2.5-4.9 5.1-7.2 7.8l-.3.3h-7zm-23.8 10.7h-51c-14.9-25.6-42.5-42.9-74.1-43.3h-23.9c-8.9 0-17.7 1.3-26 3.9 4.9-3.6 11.7-6.5 19.8-8.2h29.6c19.7 2.1 52.8 7.1 82 18.2 4.1 1.9 15.1 8.2 18.4 20.6 0 0 8.2-18.7 9.5-31.2.2-1.4.4-2.8.4-4.2l28.5 11.5c1.4.6 3 .6 4.4 0l31.5-12.3c2.3-.7 6.6-1.8 13.8-2.8H487c3 1.2 6.9 3.2 10 6-5.1-1-10.3-1.6-15.7-1.6h-23.9c-31.5 0-60.5 16.6-76.2 43.4zm-198.6-4.7c-2.4 3.6-4.6 7.4-6.4 11.3h-10c2.3-4 5-7.8 8-11.3h8.4zm-2.7-6c3-2.8 6.2-5.3 9.5-7.6h4.4c-2.4 2.4-4.7 4.9-6.8 7.6h-7.1zm-6.4 23.3c-.9 2.3-1.7 4.7-2.4 7.2h-11c.8-2.4 1.8-4.8 2.9-7.2h10.5zm-3.9 13.1c-.9 4.4-1.5 8.8-1.8 13.4h-11.5c.3-4.6.9-9 2-13.4h11.3zm-1.8 19.4c0 2.5.2 5.1.4 7.6h-11.5c-.3-2.2-.4-4.3-.5-6.5v-1.1h11.6zm1.3 13.6c.8 4.6 1.9 9 3.4 13.3h-10.8c-1.8-4.3-3.1-8.7-4-13.3h11.4zm5.7 19.3c1.1 2.5 2.2 4.9 3.5 7.2h-9.5c-1.6-2.3-3-4.7-4.3-7.2h10.3zm7.1 13.2c2 3 4.2 6 6.5 8.7.1.2.3.5.5.7 6.2 8-4.9 1.1-4.9 1.1-1.6-1.3-3.2-2.7-4.7-4.1-2.2-2.1-4.2-4.2-6-6.5h8.6zm-2.1-47.5c0-11.5 2.6-22.4 7.2-32.1.4-.4.7-1 .8-1.6 12.4-24.5 37.8-41.4 67.1-41.4 41.4 0 75.1 33.7 75.1 75.1s-33.7 75.1-75.1 75.1c-41.4 0-75.1-33.7-75.1-75.1zm-22.7-133.5v-16.1c0-3.4 2.8-6.2 6.2-6.2h110.2c3.4 0 6.2 2.8 6.2 6.2v16.1H157.1zm27.8 12v18.1h-22.5v-18.1h22.5zm106.9 0h7.1v18.1h-22.5v-18.1h15.4zm-21.4 0v18.1h-22.5v-18.1h22.5zm-28.5 0v18.1h-22.5v-18.1h22.5zm-51 0h22.5v18.1h-22.5v-18.1zm162.2 30.1c1.5 3.4.2 7.9-1.2 11.2-10.1-4.5-20.8-8.2-31.4-11.2h32.6zm-19.7-12v-18.1h22.5v18.1h-22.5zm-6 0h-22.5v-18.1h22.5v18.1zm34.5 0v-18.1h22.5v18.1h-22.5zm42.5 12l-7.9 3.1-7.6-3.1h15.5zm-14-12v-18.1h22.5v18.1h-22.5zm57 0v-18.1h22.5v18.1h-22.5zm-6 0h-22.5v-18.1h22.5v18.1zm34.5 0v-18.1h22.5v18.1h-22.5zM380.3 66c34 10.4 65.1 29 90.9 54.8 31.9 31.9 52.7 71.8 60.7 115.1h-29.3c-10.1 0-18.3 8.2-18.3 18.3v16h-30.9c-1-42.6-12.3-85.6-32.8-124.6-15.5-29.4-35.5-55.2-58.8-76.1-8-9.7 16.4-4 18.5-3.5zm-64.5-9.6c3.2 0 6.3.1 9.5.2.2.2.4.4.7.5 34.3 22.3 63.4 54.9 84.1 94.1 19.6 37.3 30.5 78.3 31.4 119h-93.8c-2-82.1-45.1-156.5-114.1-198.1 25.8-10.2 53.5-15.7 82.2-15.7zM146 136.5h66.6l-.3.4-9.8 7.7 15 12.7-2.4 3-9.8 11.2 12.3 12.6-2.8 3.3-8.9 10.4 5.5 5.5 1.2 1.5H107.8c8.4-24.8 21.3-47.8 38.2-68.3zm-42 80.2h121.4c2.3 0 4.4-1.3 5.4-3.4 1-2.1.7-4.6-.8-6.4l-7.9-9.5 7.9-9.5c1.8-2.2 1.8-5.4 0-7.7l-7.9-9.5 7.9-9.5c1.8-2.2 1.8-5.4 0-7.7l-7.9-9.5 7.9-9.5c1.5-1.8 1.8-4.3.8-6.4-1-2.1-3.1-3.4-5.4-3.4h-68.7c1.2-1.2 2.4-2.5 3.6-3.7 13.5-13.5 28.5-25.1 44.6-34.5 12.8-6.3 21.1-4.3 25.3-2.1.7.5 1.5.9 2.2 1.4.7.5 1 .9 1 .9h.3c61.8 40 100.1 108.5 102 183.8h-43.9v-16.1c0-10-8.2-18.2-18.2-18.2H163.4c-10 0-18.2 8.2-18.2 18.2v16.1H96c.5-18.5 3.2-36.5 8-53.8zm52.3 65.6v18.1h-22.5v-18.1h22.5zm-28.5 0v18.1h-22.5v-18.1h22.5zm-48 18.1v-18.1h19.5v18.1H79.8zm35.8 128.5c1.4-8.1 7.5-25.3 15.2-42.9.5-.9 1-1.9 1.5-3.1 7.3-18 7.3-27.1 7.3-27.1-4.5 6.7-11.3 14.1-15.9 18.8-.3.2-.5.4-.8.6-10.7 10.2-23.6 21.4-31.2 26.7 2-15.6 8.7-33.7 15.3-48.6 3.7-7.7 11.9-21.8 11.9-21.8-7.4 4.2-15.5 5.6-18.5 5.9L84 338.9c5-11.6 15.5-21.8 20.8-26.5h92.4c-6.2 5-10.5 11-11.8 17.7-5.1 3.2-9.9 6.9-14.4 11.1-16.6 15.9-26.1 37.1-26.8 59.9v5.6c.3 9.3 2 18.3 5.1 26.8-3.3.3-8.2 1.1-13.5 3.1-1.3-2.1-2.8-3.5-4.2-4.5-4.8-3.4-11.2-3.7-16-3.2zm69.6 117.7c-3.3 5.4-11.8 22.6-10.1 52.1 0 .4.1.7.1 1.1-9.8-9.9-14-21.5-15.6-27.5-1.5-6.4-2.1-12.9-2.1-12.9-6.8.5-16.9 7.6-16.9 7.6-2.9 1.7-5.7 3.8-8 5.8-3.4-12.5-1.8-21.7-.4-26.3 2.9 1.8 6 3.4 9.2 4.6 4.9 1.8 9.9 2.7 14.9 2.7 10.1 0 20-3.6 28.9-10.5v3.3zm0-19.9c-.1.1-.2.2-.2.3-11.4 13.2-25.8 17.9-39.4 12.8-17.3-6.4-29-26.6-29.2-50.2-.1-15 3.7-26.5 11.5-34.1 10.7-10.5 25.6-10.3 25.7-10.3.4 0 .8 0 1.1-.1 4.3 7.8 9.7 15 16.4 21.3 4.4 4.2 9.2 7.9 14.2 11v49.3zm320.4 1.4c-.6 3.6-7 10.3-27.6 12.9-20.7 2.6-43.6-4.5-61.9-10.2-.6-.2-1.2-.4-1.7-.5-12.7-4.3-33.5-14-33.5-14 .2 6.1-4.4 11.6-7.8 14.7-.5.4-.9.8-1.4 1.2-5.8 4.8-12.4 10.2-18.7 9.5-6.1-.8-7.8-3.7-8.5-5.8-1.1-3.3-.7-7.4.4-11.1.6-1.7 2-4.8 4.3-8.1 2.6-3.6 9.8-9.9 11.5-9.9 0 0-10.1-8-19.3.9-.3.2-.6.4-.8.7-6.5 6.5-11.1 20.7-7.4 31.4 2.7 7.8 9.2 12.7 18.4 13.8.9.1 1.8.2 2.7.2 10.2 0 18.8-7 25.1-12.3 2.4-2 5.4-4.5 6.8-4.9 3.8-1.3 15.9 2.5 26.5 5.8 19.5 6.1 43.8 13.6 67 10.7 1.8-.2 4-.6 6.4-1 .9 3 2.7 6.6 5.9 10.5.9 1.1 1.8 2.6 1.1 4-.5 1.1-1.9 1.9-3.3 1.9H256c-15.6 0-28.3 12.7-28.3 28.3s12.7 28.3 28.3 28.3H479.1l1.8-2.2c6.2-7.5 18.2-17.9 24.2-16.3 2.4.7 2.6 1.6 2.7 2 .4 2-1.2 5.9-4.7 8.9-1.6 1.2-10 8-9.7 14.8 0 0 10.2-4.4 16.7-3.1 3.2 1 5.8 2.9 7.5 5.6 3.2 5 3.4 12.4.5 19.8-16.1 42.2-64.6 64.5-140.4 64.5-51 0-89.9-18.1-113.6-33.3-25.8-16.5-39.6-33.3-39.7-33.5l-.9-1.1-1.3-.6c-15.8-7.1-33.6-26.5-35.1-52.5-1.5-24.6 5.2-40.9 8.9-46l1.1-1.4c1.3-1.6 7.1-8.8 12.9-13.6 0 0-5.9-.7-12.8 1.7V484c10.9 4.7 22.7 7.1 34.9 7.1h26.3c.4 0 .9-.1 1.3-.1 45.8-2.5 82.3-40.5 82.3-87 0-1.7-.1-3.4-.1-5h27.7c0 .8-.1 1.5-.1 2.3v5.6c.6 22.7 10.1 44 26.8 59.9 16.5 15.8 38.2 24.4 61.1 24.4H482v19.9c-14-.5-34.7-3-66.1-14.8-32.9-12.3-46-40.5-51.2-62.7-.4-2.5-3.9-24.8-2.9-30.2 0 0-12.9 8.8-9.4 29.9 0 .3.1.5.1.8.1.4.2.7.2 1.1v.2c5.7 25.3 20.5 57.8 58.9 72.2 41.7 15.6 65.7 15.7 80 15.8 5.3 0 9.5 0 11.5 1 1.4.2 2.8 1.7 2.5 3.7zm-38 52.2v28c-.6 2.2-2.7 3.9-5.1 3.9h-20.6c-2.7 0-4.9-2-5.3-4.7v-27.2h31zm-43 0v28.2c-.7 2.1-2.7 3.6-5 3.6H399c-2.9 0-5.3-2.4-5.3-5.3v-26.6h30.9zm-43 0v28.1c-.7 2.2-2.7 3.8-5.1 3.8h-20.6c-2.8 0-5-2.1-5.3-4.8v-27.1h31zm-43 0v27.8c-.5 2.4-2.7 4.1-5.2 4.1h-20.6c-2.5 0-4.6-1.8-5.2-4.1v-27.8h31zm-43 0v27.8c-.6 2.3-2.7 4.1-5.2 4.1h-20.6c-2.6 0-4.7-1.8-5.2-4.2v-27.7h31zm-43 .4v19.1c-11.3-1.2-11.9-8.8-11.9-8.8 1.9-5.2 6.4-9.1 11.9-10.3zm253.1-68.5c-3.3-1-7-1.1-11.6-1.1v-21.3c9.8-1.6 19.1-4.8 27.5-9.4 1.4 18.8-11.2 28.7-15.9 31.8zM480 478.9c-41.4 0-75.1-33.7-75.1-75.1s33.7-75.1 75.1-75.1c41.4 0 75.1 33.7 75.1 75.1s-33.7 75.1-75.1 75.1z"/></g><g><circle fill="#181830" cx="318.9" cy="683.2" r="6"/><circle fill="#181830" cx="340" cy="663.6" r="6"/><circle fill="#181830" cx="396.5" cy="649.4" r="6"/><circle fill="#181830" cx="299.2" cy="663.6" r="6"/><circle fill="#181830" cx="354.5" cy="697.8" r="6"/><circle fill="#181830" cx="426.7" cy="697.8" r="6"/><circle fill="#181830" cx="374.2" cy="672.4" r="6"/><circle fill="#181830" cx="404.4" cy="679.5" r="6"/><circle fill="#181830" cx="426.7" cy="658.9" r="6"/><circle fill="#181830" cx="265.2" cy="660.5" r="6"/></g><g><path fill="#181830" d="M140.7 465.3c-1.3 5-7.8 18.7 4.4 31.1 0 0-12.8 7.7-7 24.6 0 0 10.6-18.7 20.6-17.2 9.2 1.4 11.7 2.6 15 .9 3.3-1.7 4.2-6 1.1-9.4-3.1-3.4-6.6-.4-16.8-4.6-11-4.4-17.3-25.4-17.3-25.4z"/></g><path fill="#181830" d="M392.6 631.5H249.8c-17 0-30.8-15.3-30.8-34.1s13.8-34.1 30.8-34.1c.4 0 .9-.1 1.3-.1 1.1.1 2.3.1 3.6.1 25 0 23-11.9 23-11.9h-28c-23.6 0-42.8 20.7-42.8 46.1s19.2 46.1 42.8 46.1h122.2c.4 0 .9 0 1.3-.1 21.2-1.3 19.4-12 19.4-12z"/><g><path fill="#181830" d="M453 657.6c2-3 5-5 8.5-5.7 2.4-.5 5 0 5.8.1H467.6c.1 0 .2.1.3.1 1.9.7 9 3.8 4.7 14 0 0-2.1-3.8-6.2-4.9-.4-.1-.7-.2-1.1-.3-.8-.2-1.7-.2-2-.1-1.1.2-2 .8-2.6 1.7-.6.9-.8 2-.6 3.1 1.2 5.9 6.9 9.7 12.8 8.6 7.6-1.5 12.5-8.9 11.1-16.4-1.5-7.6-8.9-12.5-16.4-11.1-.3.1-.7.1-1 .1-6.4.6-11.2-10-11.2-10 3.1 1.2 10.1.8 11.9.6 12-1.6 23.4 6.5 25.8 18.6 2.5 12.6-5.8 24.8-18.4 27.3-1.3.3-2.6.4-3.9.4-9.4 0-17.9-6.7-19.8-16.3-.7-3.3.1-6.8 2-9.8z"/></g><g><path fill="#181830" d="M254.9 464.9c-33.7 0-61.1-27.4-61.1-61.1s27.4-61.1 61.1-61.1 61.1 27.4 61.1 61.1-27.5 61.1-61.1 61.1zm0-116.1c-30.4 0-55.1 24.7-55.1 55.1s24.7 55.1 55.1 55.1 55.1-24.7 55.1-55.1-24.8-55.1-55.1-55.1z"/></g><g><path fill="#181830" d="M480 464.9c-33.7 0-61.1-27.4-61.1-61.1s27.4-61.1 61.1-61.1 61.1 27.4 61.1 61.1-27.4 61.1-61.1 61.1zm0-116.1c-30.4 0-55.1 24.7-55.1 55.1S449.6 459 480 459s55.1-24.7 55.1-55.1-24.7-55.1-55.1-55.1z"/></g></g></svg>