<?xml version="1.0" encoding="utf-8"?>
<!-- Generator: Adobe Illustrator 18.1.1, SVG Export Plug-In . SVG Version: 6.00 Build 0)  -->
<svg version="1.1" id="Layer_1" xmlns="http://www.w3.org/2000/svg" xmlns:xlink="http://www.w3.org/1999/xlink" x="0px" y="0px"
	 viewBox="0 0 512 512" enable-background="new 0 0 512 512" xml:space="preserve">
<g>
	<g>
		<path fill="#181830" d="M445.5,268.1c0-20.1-9.2-38.1-23.6-50.1c2-1.4,5.6-1.4,7.4-1.3c1.6,0.3,4.9,1.1,8.6,3.3
			c0,0-2.2-9.2-4-13.3c-0.1-0.2-0.1-0.3-0.2-0.4c-1-2.4-2.3-4.5-3.6-6.4H443v-31.4h-12c-1.1-44.5-19-86.2-50.6-117.8
			C347.7,18,304.3,0,258.1,0c-46.2,0-89.6,18-122.3,50.7c-31.6,31.6-49.5,73.3-50.6,117.8h-12v31.4H88c-3.5,3.9-7.3,8.7-10,14.1
			l-0.1,0.1c0,0-6,14.4-11.4,18.1c0,0,11.9,1.3,27.1-4.3c0,0,0,0,0.1,0l0.1,0c-4.9,11.2-9.7,24.7-11.5,36.8
			c-0.9,5.1-3.2,16.8-5.8,19.6c0,0,9.4-4.2,16-8.1c3.1-1.7,7.2-4.7,13.3-9.8c-0.2,0.4-0.3,0.9-0.5,1.4c-2.8,7.5-4.4,12.9-5.1,16.9
			l0,0c0,0,0,0.3-0.1,0.7c-0.2,1-0.3,1.9-0.3,2.7c-0.4,4-0.5,10.7,1.6,16.1c0,0,5.5-8.2,10-8.6c1.7,0,3.4,0.2,4.4,0.9
			c0.1,0,0.1,0.1,0.2,0.2c-1.4,1-2.8,2.1-4.2,3.5c-7.6,7.4-11.4,18.2-11.3,32c0.1,14.7,5.1,27.6,13.5,36.4
			c-1.5,3.3-6.4,16.5,1.5,35.4c0.6,1.4,1.9,2.4,3.4,2.7c1.5,0.3,3-0.3,4.1-1.4c2.6-2.9,6.9-6.6,10.3-8.4c2.1,7.5,7.9,21.6,22.8,30.9
			c5.2,15.4,16.6,26.7,27.8,32c2.7,3.1,13.1,14.5,30.7,25.8c18.7,12.1,49.5,26.4,89.9,26.4c34.7,0,62.3-6,82.1-17.9
			c14.8-8.9,25.2-21,30.9-35.9c3.2-8.3,2.7-16.6-1.2-22.8c-1.2-1.9-2.7-3.6-4.5-4.9c-0.1-0.1-0.2-0.2-0.4-0.4
			c-1.9-1.5-2-3.1-1.9-4.2c0.9-2.4,1.1-4.9,0.6-7.2c-0.5-2.3-2.3-6.5-8.5-8.2c-7.6-2-15.9,3.8-21.4,8.9v-19.7h7.4
			c4.5,0,8.7-2.6,10.6-6.6c1.9-4,1.1-8.7-2-12.5c-1.5-1.8-2.2-3.3-2.7-4.5c7-2.5,13.8-6.8,14.9-14c0.4-2.7-0.1-5.3-1.4-7.5
			c7.5-5.9,16-17.7,12.7-34.9C435.4,307.9,445.5,289.1,445.5,268.1z M423.4,208c-3.9,0.7-7,2.3-9,4.6c-2.8-1.7-5.8-3.2-8.8-4.5
			c-0.8-3.3-2.4-6-4.3-8.3h17.3c1.7,1.8,4.1,4.5,5.9,8C424.2,207.9,423.8,208,423.4,208z M398.8,190.9v-13.5h16.8v13.5H398.8z
			 M434,177.4v13.5h-14v-13.5h6H434z M422,168.5h-29.2v-12c0-2.6,2.1-4.7,4.7-4.7h23.2C421.4,157.3,421.9,162.8,422,168.5z
			 M316.4,299c-1.2-1.7-2.2-3.5-3.2-5.3h7.7c0.8,1.8,1.6,3.6,2.6,5.3H316.4z M326.1,303.5c1.5,2.2,3,4.4,4.8,6.4
			c0.1,0.3,0.3,0.6,0.7,1.1c4.3,5.6,0,3.2-1.7,2.1c-2-1.4-3.9-3-5.7-4.7c-1.6-1.5-3.1-3.2-4.5-4.9H326.1z M307,266.9
			c1,0.2,5.3,1.2,8.5,7.9h-8.2c-0.2-1.6-0.3-3.2-0.4-4.9c0-0.6,0-1.2,0-1.8C307,267.7,307,267.3,307,266.9z M276.4,255.3
			c-0.8-3.8-1.8-7.5-3.2-11h36c3,0,5.5,2.5,5.5,5.5c0,3-2.4,5.4-5.3,5.5c0,0-0.1,0-0.1,0H276.4z M316.6,279.2
			c0.6,3.4,1.5,6.7,2.6,9.9h-8c-1.3-3.2-2.3-6.5-3-9.9H316.6z M316.7,237.6c-0.2-0.1-0.3-0.2-0.5-0.3c1.3-1.9,2.6-3.7,4.1-5.4h6
			C321.8,236.9,317.8,237.5,316.7,237.6z M324.6,227.4c2.4-2.2,5-4.3,7.7-6.1h3.1c-1.9,1.8-3.7,3.8-5.3,5.8
			c-0.1,0.1-0.1,0.2-0.2,0.2H324.6z M306.9,235.4h-38.1c-11.1-19.1-31.7-32-55.3-32.3c-0.1,0-0.2,0-0.3,0h-17.5
			c-6.7,0-13.2,1-19.4,2.9c3.7-2.7,8.7-4.9,14.7-6.1h22.1c14.7,1.6,39.4,5.3,61.1,13.6c3,1.4,11.3,6.1,13.7,15.4
			c0,0,6.1-13.9,7.1-23.3c0.2-1,0.3-2.1,0.3-3.1l21.3,8.6c1.1,0.4,2.2,0.4,3.3,0l23.5-9.2c1.7-0.5,4.9-1.4,10.3-2.1h32
			c2.2,0.9,5.1,2.4,7.4,4.5c-3.8-0.7-7.7-1.2-11.7-1.2c-0.1,0-0.2,0-0.3,0h-17.5C340.2,203.1,318.6,215.5,306.9,235.4z M158.7,231.9
			c-1.8,2.7-3.4,5.5-4.8,8.4h-7.5c1.7-3,3.7-5.8,6-8.4H158.7z M156.7,227.4c2.2-2.1,4.6-4,7.1-5.6h3.3c-1.8,1.8-3.5,3.7-5.1,5.6
			H156.7z M152,244.8c-0.7,1.8-1.3,3.5-1.8,5.4H142c0.6-1.8,1.3-3.6,2.1-5.4H152z M149.1,254.6c-0.7,3.2-1.1,6.6-1.3,10h-8.6
			c0.2-3.4,0.7-6.7,1.5-10H149.1z M147.7,269.1c0,1.9,0.1,3.8,0.3,5.6h-8.6c-0.2-1.6-0.3-3.2-0.4-4.9c0-0.3,0-0.5,0-0.8H147.7z
			 M148.7,279.2c0.6,3.4,1.5,6.7,2.6,9.9h-8c-1.3-3.2-2.3-6.5-3-9.9H148.7z M153,293.6c0.8,1.8,1.7,3.6,2.6,5.4h-7.1
			c-1.2-1.7-2.2-3.5-3.2-5.4H153z M158.2,303.5c1.5,2.3,3.1,4.4,4.8,6.5c0.1,0.2,0.2,0.3,0.4,0.6c4.6,6-3.7,0.9-3.7,0.8
			c-1.2-1-2.4-2-3.5-3.1c-1.6-1.5-3.1-3.2-4.5-4.9H158.2z M156.7,268.1c0-8.6,1.9-16.7,5.4-23.9c0.3-0.3,0.5-0.7,0.6-1.2
			c9.2-18.3,28.2-30.9,50-30.9c30.9,0,56,25.1,56,56s-25.1,56-56,56C181.8,324.1,156.7,298.9,156.7,268.1z M139.8,168.5v-12
			c0-2.6,2.1-4.6,4.6-4.6h82.2c2.6,0,4.6,2.1,4.6,4.6v12H139.8z M160.5,177.4v13.5h-16.8v-13.5H160.5z M240.2,177.4h5.3v13.5h-16.8
			v-13.5H240.2z M224.2,177.4v13.5h-16.8v-13.5H224.2z M203,177.4v13.5h-16.8v-13.5H203z M164.9,177.4h16.8v13.5h-16.8V177.4z
			 M285.9,199.9c1.1,2.5,0.2,5.9-0.9,8.4c-7.5-3.4-15.5-6.1-23.4-8.4H285.9z M271.2,190.9v-13.5H288v13.5H271.2z M266.8,190.9H250
			v-13.5h16.8V190.9z M292.5,190.9v-13.5h16.8v13.5H292.5z M324.2,199.9l-5.9,2.3l-5.6-2.3H324.2z M313.7,190.9v-13.5h16.8v13.5
			H313.7z M356.3,190.9v-13.5h16.8v13.5H356.3z M351.8,190.9H335v-13.5h16.8V190.9z M377.5,190.9v-13.5h6.3h10.5v13.5H377.5z
			 M306.2,16.1c25.3,7.7,48.6,21.6,67.8,40.9c23.8,23.8,39.3,53.5,45.3,85.9h-21.8c-7.5,0-13.7,6.1-13.7,13.7v12h-23.1
			c-0.7-31.8-9.1-63.8-24.5-92.9c-11.5-21.9-26.5-41.1-43.9-56.7C286.5,11.5,304.7,15.7,306.2,16.1z M258.1,8.9
			c2.4,0,4.7,0.1,7.1,0.2c0.2,0.1,0.3,0.3,0.5,0.4c25.6,16.7,47.3,40.9,62.7,70.2c14.7,27.8,22.7,58.4,23.4,88.8h-69.9
			c-1.5-61.2-33.6-116.7-85.1-147.7C216,13,236.7,8.9,258.1,8.9z M131.5,68.7h49.7l-0.2,0.3l-7.3,5.7l11.2,9.5l-1.8,2.2l-7.3,8.3
			l9.2,9.4l-2.1,2.5l-6.7,7.7l4.1,4.1l0.9,1.1h-78.2C109.3,101.2,118.9,84,131.5,68.7z M100.2,128.5h90.5c1.7,0,3.3-1,4-2.6
			c0.7-1.6,0.5-3.4-0.6-4.8l-5.9-7.1l5.9-7.1c1.4-1.7,1.4-4.1,0-5.7l-5.9-7.1l5.9-7.1c1.4-1.7,1.4-4.1,0-5.7l-5.9-7.1l5.9-7.1
			c1.1-1.3,1.3-3.2,0.6-4.8c-0.7-1.6-2.3-2.6-4-2.6h-51.3c0.9-0.9,1.8-1.9,2.7-2.8c10.1-10.1,21.3-18.7,33.3-25.7
			c9.6-4.7,15.8-3.2,18.9-1.6c0.6,0.3,1.1,0.7,1.7,1.1c0.5,0.4,0.7,0.6,0.7,0.6l0.2,0c46.1,29.8,74.6,80.9,76.1,137.1h-32.7v-12
			c0-7.5-6.1-13.6-13.6-13.6h-82.2c-7.5,0-13.6,6.1-13.6,13.6v12H94.2C94.5,154.8,96.6,141.4,100.2,128.5z M139.2,177.4v13.5h-16.8
			v-13.5h8.4H139.2z M117.9,177.4v13.5h-16.8v-13.5H117.9z M82.1,190.9v-13.5h14.5v13.5H82.1z M108.8,286.7
			c1.1-6.1,5.6-18.9,11.3-32c0.4-0.7,0.7-1.4,1.1-2.3c5.5-13.4,5.5-20.2,5.5-20.2c-3.4,5-8.4,10.5-11.8,14c-0.2,0.1-0.4,0.3-0.6,0.5
			c-8,7.6-17.6,16-23.3,19.9c1.5-11.6,6.5-25.1,11.4-36.2c2.7-5.8,8.8-16.3,8.8-16.3c-5.5,3.2-11.6,4.1-13.8,4.4l-12.2,1.2
			c3.8-8.6,11.6-16.3,15.5-19.8h68.9c-4.7,3.7-7.8,8.2-8.8,13.2c-3.8,2.4-7.4,5.1-10.7,8.3c-12.4,11.8-19.5,27.7-20,44.6
			c0,0.7,0,1.4,0,2.1s0,1.4,0,2.1c0.2,6.9,1.5,13.7,3.8,20c-2.5,0.2-6.1,0.9-10.1,2.3c-0.9-1.5-2.1-2.6-3.1-3.4
			C117.2,286.6,112.4,286.4,108.8,286.7z M160.7,374.5c-2.4,4-8.8,16.8-7.5,38.9c0,0.3,0,0.5,0.1,0.8c-7.3-7.4-10.4-16-11.6-20.5
			c-1.1-4.7-1.6-9.6-1.6-9.6c-5.1,0.4-12.6,5.7-12.6,5.7s0,0,0,0c-2.2,1.3-4.2,2.9-6,4.3c-2.6-9.3-1.4-16.2-0.3-19.6
			c2.2,1.4,4.4,2.5,6.8,3.4c3.7,1.4,7.4,2,11.1,2c7.5,0,14.9-2.7,21.5-7.8V374.5z M160.7,359.7c-0.1,0.1-0.1,0.1-0.2,0.2
			c-8.5,9.8-19.2,13.3-29.4,9.6c-12.9-4.8-21.7-19.8-21.8-37.5c-0.1-11.2,2.8-19.8,8.5-25.4c8-7.8,19.1-7.7,19.2-7.6
			c0.3,0,0.6,0,0.9-0.1c3.2,5.8,7.3,11.2,12.2,15.9c3.3,3.1,6.8,5.9,10.6,8.2V359.7z M399.6,360.7c-0.4,2.7-5.2,7.7-20.6,9.6
			c-15.4,1.9-32.5-3.4-46.2-7.6c-0.4-0.1-0.9-0.3-1.3-0.4c-9.5-3.2-25-10.4-25-10.4c0.2,4.5-3.3,8.6-5.8,11
			c-0.3,0.3-0.7,0.6-1.1,0.9c-4.3,3.6-9.3,7.6-14,7.1c-4.5-0.6-5.8-2.7-6.3-4.3c-0.8-2.4-0.5-5.5,0.3-8.2c0.5-1.3,1.5-3.6,3.2-6
			c1.9-2.7,7.3-7.4,8.6-7.4c0,0-7.5-6-14.4,0.7c-0.2,0.1-0.4,0.3-0.6,0.5c-4.9,4.9-8.3,15.5-5.5,23.4c2,5.8,6.9,9.5,13.7,10.3
			c0.7,0.1,1.4,0.1,2,0.1c7.6,0,14-5.2,18.7-9.2c1.8-1.5,4-3.3,5-3.7c2.9-0.9,11.8,1.8,19.8,4.3c14.5,4.5,32.6,10.1,50,8
			c1.3-0.2,3-0.4,4.8-0.8c0.7,2.2,2,4.9,4.4,7.8c0.6,0.8,1.3,1.9,0.8,3c-0.4,0.9-1.4,1.5-2.5,1.5H213.5c-11.6,0-21.1,9.5-21.1,21.1
			c0,11.6,9.5,21.1,21.1,21.1h164.3l2.1,0l1.3-1.6c4.6-5.6,13.6-13.3,18.1-12.1c1.8,0.5,2,1.2,2,1.5c0.3,1.5-0.9,4.4-3.5,6.7
			c-1.2,0.9-7.5,5.9-7.2,11c0,0,7.6-3.3,12.4-2.3c2.4,0.7,4.3,2.1,5.6,4.2c2.4,3.7,2.5,9.3,0.4,14.8c-12,31.5-48.2,48.1-104.7,48.1
			c-38.1,0-67.1-13.5-84.7-24.8c-19.2-12.3-29.5-24.9-29.6-25l-0.7-0.8l-1-0.4c-11.8-5.3-25-19.8-26.2-39.1
			c-1.1-18.4,3.9-30.5,6.7-34.3l0.8-1.1c0.9-1.2,5.3-6.5,9.6-10.2c0,0-4.4-0.5-9.5,1.3v-40.9c8.1,3.5,16.9,5.3,26,5.3h19.6
			c0.3,0,0.7,0,1-0.1c34.2-1.9,61.4-30.2,61.4-64.9c0-1.3,0-2.5-0.1-3.8h20.7c0,0.6-0.1,1.1-0.1,1.7c0,0.7,0,1.4,0,2.1s0,1.4,0,2.1
			c0.5,17,7.6,32.8,20,44.6c12.3,11.8,28.5,18.2,45.5,18.2h18.5v14.9c-10.4-0.4-25.9-2.3-49.3-11.1c-24.5-9.2-34.3-30.2-38.2-46.8
			c-0.3-1.9-2.9-18.5-2.2-22.5c0,0-9.7,6.5-7,22.3c0,0.2,0,0.4,0.1,0.6c0.1,0.3,0.1,0.5,0.2,0.8c0,0.1,0,0.1,0,0.2l0,0
			c4.2,18.8,15.3,43.1,43.9,53.8c31.1,11.7,49,11.7,59.6,11.7c4,0,7.1,0,8.6,0.7C398.8,358.2,399.9,359.2,399.6,360.7z M371.3,399.7
			v20.9c-0.5,1.7-2,2.9-3.8,2.9h-15.4c-2,0-3.7-1.5-3.9-3.5v-20.3H371.3z M339.2,399.7v21.1c-0.5,1.6-2,2.7-3.8,2.7h-15.4
			c-2.2,0-4-1.8-4-4h0v-19.8H339.2z M307.2,399.7v20.9c-0.5,1.6-2,2.9-3.8,2.9H288c-2.1,0-3.7-1.6-3.9-3.6v-20.2H307.2z
			 M275.1,399.7v20.7c-0.4,1.8-2,3.1-3.9,3.1h-15.4c-1.9,0-3.5-1.3-3.9-3.1v-20.7H275.1z M243,399.7v20.8c-0.4,1.7-2,3-3.9,3h-15.4
			c-1.9,0-3.5-1.3-3.9-3.1v-20.7H243z M211,400v14.3c-8.4-0.9-8.9-6.5-8.9-6.5l0,0C203.5,403.8,206.9,400.8,211,400z M399.7,348.9
			c-2.5-0.7-5.2-0.8-8.7-0.9v-15.9c7.3-1.2,14.2-3.6,20.5-7C412.6,339.1,403.2,346.6,399.7,348.9z M380.6,324.1
			c-30.9,0-56-25.1-56-56s25.1-56,56-56c30.9,0,56,25.1,56,56S411.4,324.1,380.6,324.1z"/>
	</g>
</g>
</svg>
