<?xml version="1.0" encoding="utf-8"?>
<!-- Generator: Adobe Illustrator 18.1.1, SVG Export Plug-In . SVG Version: 6.00 Build 0)  -->
<svg version="1.1" xmlns="http://www.w3.org/2000/svg" xmlns:xlink="http://www.w3.org/1999/xlink" x="0px" y="0px"
	 viewBox="0 0 627.4 784.7" enable-background="new 0 0 627.4 784.7" xml:space="preserve">
<g id="LOGO">
	<g id="character">
		<g id="color">
		</g>
		<g id="outline">
		</g>
	</g>
	<g id="sparks">
	</g>
	<g id="text">
	</g>
</g>
<g id="wordmark">
</g>
<g id="solo_character">
	<g>
		<g>
			<path fill="#BC9562" d="M185.2,543.3c-8.9,6.9-18.8,10.5-28.9,10.5c-5,0-10-0.9-14.9-2.7c-3.2-1.2-6.3-2.7-9.2-4.6
				c-1.4,4.6-3,13.8,0.4,26.3c2.3-2,5.1-4.1,8-5.8c0,0,0,0,0,0s10.1-7.1,16.9-7.6c0,0,0.7,6.5,2.1,12.9c1.6,6,5.8,17.6,15.6,27.5
				c0-0.4-0.1-0.7-0.1-1.1c-1.8-29.5,6.8-46.7,10.1-52.1V543.3z"/>
		</g>
		<g>
			<g>
				<path fill="#EFD2AB" d="M136.6,442.8c5.9-1.3,11.7-2.5,17.1-3.5C153.7,439.3,145.7,439,136.6,442.8z"/>
			</g>
		</g>
		<g>
			<path fill="#EFD2AB" d="M222.3,650.5l1.3,0.6l0.9,1.1c0.1,0.2,14,17,39.7,33.5c23.7,15.2,62.6,33.3,113.6,33.3
				c75.7,0,124.3-22.3,140.4-64.5c2.8-7.4,2.6-14.8-0.5-19.8c-1.7-2.7-4.3-4.6-7.5-5.6c-6.5-1.3-16.7,3.1-16.7,3.1
				c-0.3-6.8,8.1-13.6,9.7-14.8c3.4-3,5.1-6.9,4.7-8.9c-0.1-0.4-0.3-1.3-2.7-2c-6-1.6-18,8.8-24.2,16.3l-1.8,2.2l-2.8,0H256
				c-15.6,0-28.3-12.7-28.3-28.3s12.7-28.3,28.3-28.3h233.5c1.4,0,2.8-0.8,3.3-1.9c0.7-1.4-0.2-2.9-1.1-4c-3.2-3.9-5-7.5-5.9-10.5
				c-2.4,0.5-4.6,0.8-6.4,1c-23.2,2.9-47.5-4.6-67-10.7c-10.6-3.3-22.6-7-26.5-5.8c-1.3,0.4-4.3,2.9-6.8,4.9
				c-6.4,5.3-14.9,12.3-25.1,12.3c-0.9,0-1.8-0.1-2.7-0.2c-9.2-1.1-15.7-6-18.4-13.8c-3.7-10.7,0.9-24.9,7.4-31.4
				c0.3-0.3,0.5-0.5,0.8-0.7c9.2-9,19.3-0.9,19.3-0.9c-1.7,0.1-8.9,6.4-11.5,9.9c-2.3,3.3-3.7,6.4-4.3,8.1
				c-1.1,3.7-1.5,7.8-0.4,11.1c0.7,2.1,2.4,5.1,8.5,5.8c6.3,0.8,12.9-4.7,18.7-9.5c0.5-0.4,1-0.8,1.4-1.2c3.3-3.1,8-8.6,7.8-14.7
				c0,0,20.8,9.7,33.5,14c0.6,0.2,1.2,0.4,1.7,0.5c18.4,5.7,41.3,12.8,61.9,10.2c20.6-2.6,27.1-9.3,27.6-12.9c0.3-2-1-3.4-2.4-4.1
				c-2-0.9-6.2-0.9-11.5-1c-14.3,0-38.3-0.1-80-15.8c-38.3-14.4-53.2-46.9-58.9-72.2l0,0c0-0.1,0-0.1,0-0.2
				c-0.1-0.4-0.2-0.7-0.2-1.1c-0.1-0.3-0.1-0.5-0.1-0.8c-3.6-21.2,9.4-29.9,9.4-29.9c-0.9,5.5,2.5,27.7,2.9,30.2
				c5.2,22.2,18.3,50.4,51.2,62.7c31.5,11.8,52.2,14.3,66.1,14.8v-19.9h-24.8c-22.9,0-44.5-8.7-61.1-24.4
				c-16.6-15.9-26.1-37.1-26.8-59.9c0-0.9,0-1.9,0-2.8s0-1.9,0-2.8c0-0.7,0.1-1.5,0.1-2.3h-27.7c0.1,1.7,0.1,3.3,0.1,5
				c0,46.4-36.5,84.5-82.3,87c-0.4,0.1-0.8,0.1-1.3,0.1h-26.3c-12.2,0-24-2.5-34.9-7.1v54.8c6.8-2.4,12.8-1.7,12.8-1.7
				c-5.8,4.9-11.6,12.1-12.9,13.6l-1.1,1.4c-3.7,5.1-10.4,21.4-8.9,46C188.7,623.9,206.4,643.4,222.3,650.5z"/>
			<path fill="#EFD2AB" d="M521.5,480.4c-8.4,4.6-17.7,7.8-27.5,9.4v21.3c4.6,0,8.4,0.2,11.6,1.1C510.4,509.1,523,499.2,521.5,480.4
				z"/>
			<path fill="#EFD2AB" d="M145.6,539.8c13.6,5,28,0.4,39.4-12.8c0.1-0.1,0.2-0.2,0.2-0.3v-49.2c-5-3.2-9.8-6.8-14.2-11
				c-6.6-6.3-12.1-13.5-16.4-21.3c-0.4,0.1-0.8,0.1-1.1,0.1c-0.1,0-15-0.2-25.7,10.3c-7.7,7.6-11.6,19.1-11.5,34.1
				C116.5,513.3,128.3,533.4,145.6,539.8z"/>
			<path fill="#EFD2AB" d="M533.6,481.9c0.2-1.2,0.2-2.2-0.2-3.2C533.5,479.8,533.6,480.9,533.6,481.9z"/>
			<path fill="#EFD2AB" d="M437.4,312.4l-38.8,15.1c-1.4,0.6-3,0.5-4.4,0l-28.5-11.5c0,1.4-0.2,2.8-0.4,4.2
				c-1.3,12.5-9.5,31.2-9.5,31.2c-3.3-12.4-14.3-18.7-18.4-20.6c-29.2-11.1-62.3-16.1-82-18.2h-29.6c-8.1,1.7-14.8,4.7-19.8,8.2
				c8.3-2.6,17.1-3.9,26-3.9h23.5c0.1,0,0.3,0,0.4,0c31.6,0.4,59.2,17.7,74.1,43.3h51c15.7-26.8,44.7-43.3,76.1-43.3h23.5
				c0.1,0,0.3,0,0.4,0c5.4,0.1,10.6,0.6,15.7,1.6c-3.1-2.8-7-4.8-10-6H437.4z"/>
		</g>
		<path fill="#BC9562" d="M105.3,311.9c-5.1,4.5-16.1,15-21.3,27l16.4-1.6c3-0.4,11.1-1.7,18.5-5.9c0,0-8.2,14.1-11.9,21.8
			c-6.6,14.9-13.2,33-15.3,48.6c7.6-5.3,20.6-16.5,31.2-26.7c0.2-0.2,0.5-0.4,0.8-0.6c4.6-4.7,11.4-12,15.9-18.8c0,0,0,9.1-7.3,27.1
			c-0.5,1.2-1,2.2-1.5,3.1c-7.7,17.6-13.8,34.8-15.2,42.9c4.8-0.5,11.2-0.2,16.1,3.2c1.4,1,3,2.4,4.2,4.5c5.3-2,10.1-2.8,13.5-3.1
			c-3.1-8.5-4.9-17.5-5.1-26.8c0-0.9,0-1.9,0-2.8s0-1.9,0-2.8c0.6-22.7,10.1-44,26.8-59.9c4.4-4.2,9.3-7.9,14.4-11.1
			c1.4-6.8,5.8-13.1,12.4-18.1H105.3z"/>
		<g>
			<path fill="#E2C19A" d="M185,527c0.1-0.1,0.2-0.2,0.2-0.3v-49.2c-5-3.2-9.8-6.8-14.2-11c-0.1-0.1-0.2-0.2-0.3-0.3v72.1
				C175.8,535.8,180.6,532.1,185,527z"/>
		</g>
		<g>
			<path fill="#E2C19A" d="M396.2,466.5c-16-15.3-25.4-35.6-26.6-57.4c-0.6,3.6-0.9,7.3-0.9,11.1c0,43.7,36,81.7,89.9,81.7
				c11.2,0,17.9,5.1,23.3,9c0.1,0,0.1,0,0.2,0v-19.9h-24.8C434.4,490.9,412.7,482.3,396.2,466.5z"/>
			<path fill="#E2C19A" d="M384.2,386.8c0.1,0,0.1,0,0.2,0c4-0.1,7.2-3.4,7.2-7.4c0-2.8-1.6-5.2-3.9-6.5c-3.9,4.3-7.3,8.9-10.1,13.8
				H384.2z"/>
		</g>
		<g>
			<g>
				<g>
					<path fill="#1E1E38" d="M387.9,360.6"/>
				</g>
			</g>
			<g>
				<path fill="#B2B2B2" d="M419.5,341.2h-4.2c-3.7,2.4-7.1,5.1-10.3,8.1h7.1c0.1-0.1,0.2-0.2,0.3-0.3
					C414.6,346.3,417,343.7,419.5,341.2z"/>
			</g>
			<g>
				<path fill="#6A6A6D" d="M381.4,402.3c0,0.5,0,1,0,1.6c0,0.8,0,1.6,0,2.5c0.1,2.2,0.2,4.4,0.5,6.5h11
					C388.5,403.9,382.7,402.5,381.4,402.3z"/>
				<path fill="#6A6A6D" d="M397.6,432.2c-1.5-4.3-2.6-8.8-3.4-13.3h-11.4c0.9,4.6,2.3,9,4,13.3H397.6z"/>
				<path fill="#6A6A6D" d="M393.7,362.6c0.2,0.1,0.4,0.3,0.6,0.4c1.4-0.1,6.8-0.9,13-7.6h-8.1C397.3,357.7,395.4,360.1,393.7,362.6
					z"/>
				<path fill="#6A6A6D" d="M413.4,459.9c-2.3-2.7-4.4-5.6-6.4-8.6h-8.6c1.9,2.3,3.9,4.4,6,6.5c2.4,2.3,5,4.4,7.6,6.4
					c2.2,1.4,8,4.7,2.2-2.9C413.8,460.7,413.5,460.2,413.4,459.9z"/>
				<path fill="#6A6A6D" d="M389.7,438.2c1.3,2.5,2.7,4.8,4.3,7.2h9.5c-1.3-2.3-2.4-4.7-3.5-7.2H389.7z"/>
			</g>
			<g>
				<path fill="#B2B2B2" d="M381.4,402.3c0,0.5,0,1,0,1.6c0,0.8,0,1.6,0,2.5c0.1,2.2,0.2,4.4,0.5,6.5h11
					C388.5,403.9,382.7,402.5,381.4,402.3z"/>
			</g>
			<g>
				<path fill="#B2B2B2" d="M389.7,438.2c1.3,2.5,2.7,4.8,4.3,7.2h9.5c-1.3-2.3-2.4-4.7-3.5-7.2H389.7z"/>
			</g>
		</g>
		<path fill="#E78100" d="M384.2,372.1H336c1.9,4.7,3.3,9.6,4.3,14.7h43.9c0.1,0,0.1,0,0.2,0c4-0.1,7.2-3.4,7.2-7.4
			C391.6,375.4,388.3,372.1,384.2,372.1z"/>
		<path fill="#E7AD00" d="M358,380.7h33.5c0.1-0.4,0.1-0.9,0.1-1.3c0-4.1-3.3-7.4-7.4-7.4h-37.5C348,377.1,352.6,380.7,358,380.7z"
			/>
		<path fill="#6A6A6D" d="M480,328.7c-41.4,0-75.1,33.7-75.1,75.1s33.7,75.1,75.1,75.1c41.4,0,75.1-33.7,75.1-75.1
			S521.4,328.7,480,328.7z M480,458.9c-30.4,0-55.1-24.7-55.1-55.1s24.7-55.1,55.1-55.1s55.1,24.7,55.1,55.1S510.4,458.9,480,458.9z
			"/>
		<g>
			<path fill="#9696B2" d="M480,348.8c-30.4,0-55.1,24.7-55.1,55.1s24.7,55.1,55.1,55.1s55.1-24.7,55.1-55.1S510.4,348.8,480,348.8z
				"/>
			<path fill="#83839E" d="M480,458.9c30.4,0,55.1-24.7,55.1-55.1c0-15.1-6.1-28.8-16-38.7l-79.5,76.1
				C449.7,452.1,464,458.9,480,458.9z"/>
			<path fill="#777793" d="M487.5,458.4c26.8-3.7,47.6-26.7,47.6-54.5c0-27.8-20.8-50.9-47.6-54.5c22.3,8.1,38.2,29.5,38.2,54.5
				C525.6,428.9,509.7,450.3,487.5,458.4z"/>
		</g>
		<path fill="#C6BBAC" d="M222.3,650.5l1.3,0.6l0.9,1.1c0.1,0.2,14,17,39.7,33.5c23.7,15.2,62.6,33.3,113.6,33.3
			c75.7,0,124.3-22.3,140.4-64.5c2.8-7.4,2.6-14.8-0.5-19.8c-1.7-2.7-4.3-4.6-7.5-5.6c-6.5-1.3-16.7,3.1-16.7,3.1
			c-0.3-6.8,8.1-13.6,9.7-14.8c3.4-3,5.1-6.9,4.7-8.9c-0.1-0.4-0.3-1.3-2.7-2c-6-1.6-18,8.8-24.2,16.3l-1.8,2.2l-2.8,0H256
			c-15.6,0-28.3-12.7-28.3-28.3s12.7-28.3,28.3-28.3h233.5c1.4,0,2.8-0.8,3.3-1.9c0.7-1.4-0.2-2.9-1.1-4c-1.1-1.3-2-2.6-2.8-3.8
			H359.7c-34.5,0-60.9-13.3-73.1-20.8c-2.4-1.9-4.8-3.6-7.5-5.1c0,0,0,0,0,0l0,0c-9.2-5.3-19.9-8.4-31.4-8.4
			c-14.2,0-27.3,4.7-37.8,12.7c-5.8,4.9-11.6,12-12.8,13.6l-1.1,1.4c-3.7,5.1-10.4,21.4-8.9,46C188.7,623.9,206.4,643.4,222.3,650.5
			z"/>
		<g>
			<g>
				<path fill="#E0E0E0" d="M294.9,605"/>
			</g>
		</g>
		<path fill="#242444" d="M252.6,601.8c-0.1,0-0.1,0-0.2,0c-11.9-1.3-13.5-9-13.6-10.4c-0.1-0.4,0-0.7,0.1-1.1
			c2.2-5.9,7.3-10.3,13.4-11.6c0.1,0,0.3,0,0.4,0c0.5,0,0.9,0.2,1.3,0.4c0.5,0.4,0.7,1,0.7,1.6v19.1c0,0.6-0.2,1.1-0.7,1.5
			C253.6,601.6,253.1,601.8,252.6,601.8z"/>
		<g>
			<g>
				<path fill="#B2B2B2" d="M189.4,341.8c-3.3,2.3-6.5,4.8-9.5,7.6h7.1c2.1-2.7,4.4-5.2,6.8-7.6H189.4z"/>
			</g>
			<g>
				<path fill="#B2B2B2" d="M171.1,379.8c0.7-2.4,1.5-4.8,2.4-7.2H163c-1.1,2.3-2,4.7-2.9,7.2H171.1z"/>
			</g>
			<g>
				<path fill="#B2B2B2" d="M168.2,412.8c-0.3-2.5-0.4-5-0.4-7.6h-11.5c0,0.4,0,0.7,0,1.1c0.1,2.2,0.2,4.4,0.5,6.5H168.2z"/>
			</g>
			<g>
				<path fill="#B2B2B2" d="M168.8,445.3h9.5c-1.3-2.3-2.4-4.7-3.5-7.2h-10.3C165.8,440.6,167.2,443,168.8,445.3z"/>
			</g>
			<g>
				<path fill="#6A6A6D" d="M179.3,457.8c1.5,1.4,3.1,2.8,4.7,4.1c0,0,11.1,6.9,4.9-1.1c-0.2-0.3-0.4-0.5-0.5-0.7
					c-2.3-2.8-4.5-5.7-6.5-8.7h-8.6C175.2,453.6,177.2,455.8,179.3,457.8z"/>
				<path fill="#6A6A6D" d="M157.7,418.8c0.9,4.6,2.3,9,4,13.3h10.8c-1.5-4.3-2.6-8.7-3.4-13.3H157.7z"/>
				<path fill="#6A6A6D" d="M156.4,399.2h11.5c0.2-4.6,0.8-9,1.8-13.4h-11.3C157.3,390.2,156.6,394.7,156.4,399.2z"/>
				<path fill="#6A6A6D" d="M166.1,366.7h10c1.9-3.9,4-7.7,6.4-11.3h-8.4C171.1,358.9,168.4,362.7,166.1,366.7z"/>
			</g>
		</g>
		<path fill="#6A6A6D" d="M254.9,328.7c-29.3,0-54.7,16.9-67.1,41.4c-0.1,0.6-0.4,1.1-0.8,1.6c-4.6,9.7-7.2,20.6-7.2,32.1
			c0,41.4,33.7,75.1,75.1,75.1c41.4,0,75.1-33.7,75.1-75.1S296.3,328.7,254.9,328.7z M254.9,458.9c-30.4,0-55.1-24.7-55.1-55.1
			s24.7-55.1,55.1-55.1s55.1,24.7,55.1,55.1S285.2,458.9,254.9,458.9z"/>
		<g>
			<path fill="#9696B2" d="M254.9,348.8c-30.4,0-55.1,24.7-55.1,55.1s24.7,55.1,55.1,55.1s55.1-24.7,55.1-55.1
				S285.2,348.8,254.9,348.8z"/>
			<path fill="#83839E" d="M254.9,458.9c30.4,0,55.1-24.7,55.1-55.1c0-15.2-6.2-28.9-16.1-38.9l-79.5,76.1
				C224.4,452,238.8,458.9,254.9,458.9z"/>
			<path fill="#777793" d="M261.3,458.5c27.3-3.2,48.6-26.5,48.6-54.7c0-28.2-21.3-51.5-48.6-54.7c22.4,8,38.5,29.5,38.5,54.7
				C299.8,429,283.8,450.5,261.3,458.5z"/>
		</g>
		<g>
			<path fill="#E2C19A" d="M212,535.5v-21c0.1-2.2,1.4-11.5,18.4-11.6c0,0,0.1,0,0.1,0c2.9,0.2,5.9,0.4,9,0.4
				c49.5,0,84.8-26.5,94.1-62.1c-13.4,28-41.2,47.8-73.9,49.6c-0.4,0.1-0.8,0.1-1.3,0.1h-26.3c-12.2,0-24-2.5-34.9-7.1v54.8
				c6.8-2.4,12.8-1.7,12.8-1.7c0,0-0.1,0.1-0.1,0.1C210.6,536.5,211.3,535.9,212,535.5z"/>
		</g>
		<g>
			<path fill="#B2A697" d="M373.2,643.3c-0.4,0.1-0.8,0.1-1.3,0.1H249.8c-23.6,0-42.8-20.7-42.8-46.1s19.2-46.1,42.8-46.1
				c0.2,0,0.4,0,0.7,0h1c-3.8-2.3-12.2-5.5-25.6-1.6l0,0c0,0-13.8,1.5-13.8-8.2v-6c-0.8,0.6-1.6,1.1-2.3,1.7
				c-5.7,4.9-11.3,11.8-12.5,13.3l-1.1,1.4c-3.7,5.1-10.4,21.4-8.9,46c1.5,26,19.3,45.4,35.1,52.5l1.3,0.6l0.9,1.1
				c0.1,0.2,14,17,39.7,33.5c3.9,2.5,8.1,5,12.8,7.6c-9.7-10.7-13.4-20.8-13.4-20.8c-26.2-15.4-16.5-17.5-10.5-17.6
				c0.9,0,1.9,0.1,2.8,0.1c0.3,0,0.5,0,0.5,0l-0.1,0c2.9,0,5.8,0,8.9,0c18.7-0.5,107.4-6.4,107.4-6.4s5.4-1.3,7-6
				C377.8,642.9,375.6,643.2,373.2,643.3z"/>
		</g>
		<g>
			<path fill="#F7E2C9" d="M361.6,406c0.1-1.8,0.2-2.9,0.2-2.9C361.7,403.8,361.6,404.8,361.6,406z"/>
			<path fill="#F7E2C9" d="M491.7,523c-14.3,0-38.3-0.1-80-15.8c-38.3-14.4-53.2-46.9-58.9-72.2l0,0c0-0.1,0-0.1,0-0.2
				c-0.1-0.4-0.2-0.7-0.2-1.1c-0.1-0.3-0.1-0.5-0.1-0.8c-3.6-21.2,9.4-29.9,9.4-29.9c-7.2,2.1-15.1,15-15.5,22.5
				c-0.8,14.8,2.8,33.1,13.4,50.2c16,25.8,44.4,46,95.6,50.5c31,2.7,43.9,0.8,49.2-1.2c-0.4-0.4-0.9-0.8-1.4-1
				C501.1,523.1,497,523.1,491.7,523z"/>
		</g>
		<path fill="#F7E2C9" d="M143.3,538.9c-4.5-4.4-23.5-24.6-19-56.4c4.5-32,30.2-37.3,30.2-37.3s0,0,0-0.1c-0.3,0-0.6,0.1-1,0.1
			c-0.1,0-15-0.2-25.7,10.3c-7.7,7.6-11.6,19.1-11.5,34.1C116.5,512.2,127.3,531.6,143.3,538.9z"/>
		<g>
			<g>
				<path fill="#FFFFFF" d="M269.8,612.2h20.6c2.5,0,4.6-1.7,5.2-4.1v-27.8h-31V608C265.1,610.4,267.3,612.2,269.8,612.2z"/>
				<path fill="#E7AD00" d="M312.8,612.2h20.6c2.5,0,4.6-1.8,5.2-4.1v-27.8h-31v27.8C308.1,610.5,310.2,612.2,312.8,612.2z"/>
				<g>
					<path fill="#FFFFFF" d="M355.9,612.2h20.6c2.4,0,4.4-1.6,5.1-3.8v-28.1h-31v27.1C350.9,610.1,353.1,612.2,355.9,612.2z"/>
					<path fill="#FFFFFF" d="M441.8,612.2h20.6c2.4,0,4.5-1.6,5.1-3.9v-28h-31v27.2C436.9,610.2,439.1,612.2,441.8,612.2z"/>
					<path fill="#FFFFFF" d="M393.6,606.9c0,2.9,2.4,5.3,5.3,5.3h20.6c2.4,0,4.3-1.5,5-3.6v-28.2h-31L393.6,606.9L393.6,606.9z"/>
				</g>
			</g>
			<path fill="#E78100" d="M307.6,580.3v13.7c4.3-13.1,28.2-9,31-8.5v-5.2H307.6z"/>
			<g opacity="0.1">
				<path fill="#181830" d="M264.6,580.3v13.3c4.7-12.9,28.9-8.5,31-8.1v-5.2H264.6z"/>
				<path fill="#181830" d="M350.6,580.3v14.8c3.2-14,27-10.3,31-9.6v-5.2H350.6z"/>
				<path fill="#181830" d="M393.6,580.3v14.4c3.6-13.6,27.4-9.8,31-9.2v-5.2H393.6z"/>
				<path fill="#181830" d="M436.6,580.3v13.5c4.5-13,28.5-8.8,31-8.3v-5.2H436.6z"/>
			</g>
		</g>
		<g>
			<path fill="#BC9562" d="M507.7,312.4c2.6,3,4.8,6.7,5.8,11.1c4.1,1.7,8.1,3.8,11.9,6.1c2.8-3.2,6.9-5.3,12.1-6.2
				c0.5-0.1,1-0.2,1.4-0.2c-2.5-4.6-5.6-8.4-7.9-10.7H507.7z"/>
			<g>
				<path fill="#BC9562" d="M320.5,312.4c10.6,3,21.3,6.7,31.4,11.2c1.4-3.3,2.7-7.8,1.2-11.2H320.5z"/>
			</g>
		</g>
		<path fill="#A57C4A" d="M185.2,543.3c-8.9,6.9-18.8,10.5-28.9,10.5c-5,0-10-0.9-14.9-2.7c-3.2-1.2-6.3-2.7-9.2-4.6
			c-0.8,2.5-1.6,6.3-1.6,11.3c5.1-2.2,12.4-3.4,17.9,4.5c2.9-1.5,6.2-2.7,9-2.9c0,0,0.7,6.5,2.1,12.9c0.5,1.7,1.1,3.8,2,6.3
			c5,0.5,10.5-2.8,14.7-6.2c2.3-13.7,6.7-22.3,8.8-25.8V543.3z"/>
		<path fill="#A57C4A" d="M138.2,312.4c0.3,3.3-0.1,11.1-8.9,19.6c0,0,13,5.2,31.3-10.1c0,0-13.4,23-9.4,47.7c0,0,0,0,0,0
			c4.5-10.6,11.2-20.3,19.9-28.5c4.4-4.2,9.3-7.9,14.4-11.1c1.3-6.6,5.6-12.7,11.8-17.7H138.2z"/>
		<path fill="#A57C4A" d="M131.7,432.1c1.4,1,3,2.4,4.2,4.5c5.3-2,10.1-2.8,13.5-3.1c-3.1-8.5-4.9-17.5-5.1-26.8c0-0.9,0-1.9,0-2.8
			s0-1.9,0-2.8c0-0.2,0-0.4,0-0.6c-6.1,9-16.7,22.3-28.7,28.4c0,0,0,0.1,0,0.1C120.4,428.4,126.8,428.7,131.7,432.1z"/>
		<path fill="#A57C4A" d="M513.6,323.5c4.1,1.7,8.1,3.8,11.9,6.1c1.6-1.9,3.7-3.3,6.2-4.5c-5.3-3.4-8.9-8.5-11.2-12.7h-12.7
			C510.4,315.4,512.5,319.1,513.6,323.5z"/>
		<g>
			<path fill="#A57C4A" d="M336,317.3c4.4-1.7,11-3.1,17.8-0.5c0.1-1.5,0-3.1-0.6-4.4h-32.6C325.7,313.9,330.9,315.5,336,317.3z"/>
			<polygon fill="#A57C4A" points="396.5,315.5 404.4,312.4 389,312.4 			"/>
		</g>
		<g>
			<path fill="#181830" d="M426.4,335.2C426.4,335.2,426.4,335.2,426.4,335.2C426.4,335.2,426.4,335.2,426.4,335.2L426.4,335.2z"/>
		</g>
		<path fill="#AAAAAA" d="M212.6,136.5H146c-16.9,20.5-29.8,43.5-38.3,68.2h104.9l-1.2-1.5l-5.5-5.5l8.9-10.4l2.8-3.3l-12.3-12.6
			l9.8-11.2l2.4-3l-15-12.7l9.8-7.7L212.6,136.5z"/>
		<path fill="#BCBCBC" d="M212.6,136.5H146c-2.3,2.8-4.5,5.6-6.6,8.4c4.1,17.6,16.4,30.3,33.4,30.3H209l-3.7-3.8l9.8-11.2l2.4-3
			l-15-12.7l9.8-7.7L212.6,136.5z"/>
		<g>
			<path fill="none" d="M201.2,306.4"/>
		</g>
		<g>
			<path fill="none" d="M178.3,445.3c-1.3-2.3-2.4-4.7-3.5-7.2h-10.3c1.3,2.5,2.7,4.9,4.3,7.2H178.3z"/>
			<path fill="none" d="M157.7,418.8c0.9,4.6,2.3,9,4,13.3h10.8c-1.5-4.3-2.6-8.7-3.4-13.3H157.7z"/>
			<path fill="none" d="M187,371.7c-4.6,9.7-7.2,20.6-7.2,32.1c0,41.4,33.7,75.1,75.1,75.1c41.4,0,75.1-33.7,75.1-75.1
				s-33.7-75.1-75.1-75.1c-29.3,0-54.7,16.9-67.1,41.4C187.7,370.8,187.4,371.3,187,371.7z"/>
			<path fill="none" d="M182.6,355.4h-8.4c-3,3.5-5.7,7.3-8,11.3h10C178,362.7,180.1,358.9,182.6,355.4z"/>
			<path fill="none" d="M384.2,386.8c0.1,0,0.1,0,0.2,0c4-0.1,7.2-3.4,7.2-7.4c0-4.1-3.3-7.4-7.4-7.4H336c1.9,4.7,3.3,9.6,4.3,14.7
				H384.2z"/>
			<path fill="none" d="M193.8,341.8h-4.4c-3.3,2.3-6.5,4.8-9.5,7.6h7.1C189.1,346.7,191.4,344.2,193.8,341.8z"/>
			<path fill="none" d="M179.3,457.8c1.5,1.4,3.1,2.8,4.7,4.1c0,0,11.1,6.9,4.9-1.1c-0.2-0.3-0.4-0.5-0.5-0.7
				c-2.3-2.8-4.5-5.7-6.5-8.7h-8.6C175.2,453.6,177.2,455.8,179.3,457.8z"/>
			<path fill="none" d="M381.4,402.3c0,0.5,0,1,0,1.6c0,0.8,0,1.6,0,2.5c0.1,2.2,0.2,4.4,0.5,6.5h11
				C388.5,403.9,382.7,402.5,381.4,402.3z"/>
			<path fill="none" d="M407.3,355.4h-8.1c-2,2.3-3.8,4.7-5.5,7.3c0.2,0.1,0.4,0.3,0.6,0.4C395.8,362.9,401.1,362.1,407.3,355.4z"/>
			<path fill="none" d="M412.4,349c2.2-2.7,4.6-5.3,7.2-7.8h-4.2c-3.7,2.4-7.1,5.1-10.3,8.1h7.1C412.2,349.2,412.3,349.1,412.4,349z
				"/>
			<path fill="none" d="M404.5,457.8c2.4,2.3,5,4.4,7.6,6.4c2.2,1.4,8,4.7,2.2-2.9c-0.5-0.6-0.8-1.1-0.9-1.4
				c-2.3-2.7-4.4-5.6-6.4-8.6h-8.6C400.3,453.6,402.3,455.8,404.5,457.8z"/>
			<path fill="none" d="M389.7,438.2c1.3,2.5,2.7,4.8,4.3,7.2h9.5c-1.3-2.3-2.4-4.7-3.5-7.2H389.7z"/>
			<path fill="none" d="M382.8,418.8c0.9,4.6,2.3,9,4,13.3h10.8c-1.5-4.3-2.6-8.8-3.4-13.3H382.8z"/>
			<path fill="none" d="M173.5,372.7H163c-1.1,2.3-2,4.7-2.9,7.2h11C171.8,377.4,172.6,375,173.5,372.7z"/>
			<path fill="none" d="M240.7,591c0,0,0.6,7.5,11.9,8.8v-19.1C247.1,581.9,242.6,585.8,240.7,591L240.7,591z"/>
			<path fill="none" d="M264.6,608c0.5,2.4,2.7,4.2,5.2,4.2h20.6c2.5,0,4.6-1.7,5.2-4.1v-27.8h-31V608z"/>
			<path fill="none" d="M494,489.8v21.3c4.6,0,8.4,0.2,11.6,1.1c4.7-3.1,17.3-13,15.9-31.8C513.1,485,503.8,488.2,494,489.8z"/>
			<path fill="none" d="M307.6,608.1c0.5,2.4,2.7,4.1,5.2,4.1h20.6c2.5,0,4.6-1.8,5.2-4.1v-27.8h-31V608.1z"/>
			<path fill="none" d="M169.6,385.8h-11.3c-1.1,4.4-1.7,8.8-2,13.4h11.5C168.1,394.7,168.7,390.2,169.6,385.8z"/>
			<path fill="none" d="M480,328.7c-41.4,0-75.1,33.7-75.1,75.1s33.7,75.1,75.1,75.1c41.4,0,75.1-33.7,75.1-75.1
				S521.4,328.7,480,328.7z"/>
			<path fill="none" d="M350.6,607.4c0.3,2.7,2.5,4.8,5.3,4.8h20.6c2.4,0,4.4-1.6,5.1-3.8v-28.1h-31V607.4z"/>
			<path fill="none" d="M141.4,551.1c-3.2-1.2-6.3-2.7-9.2-4.6c-1.4,4.6-3,13.8,0.4,26.3c2.3-2,5.1-4.1,8-5.8c0,0,0,0,0,0
				s10.1-7.1,16.9-7.6c0,0,0.7,6.5,2.1,12.9c1.6,6,5.8,17.6,15.6,27.5c0-0.4-0.1-0.7-0.1-1.1c-1.8-29.5,6.8-46.7,10.1-52.1v-3.3
				c-8.9,6.9-18.8,10.5-28.9,10.5C151.4,553.8,146.3,552.9,141.4,551.1z"/>
			<path fill="none" d="M156.8,412.8h11.5c-0.3-2.5-0.4-5-0.4-7.6h-11.5c0,0.4,0,0.7,0,1.1C156.3,408.5,156.5,410.7,156.8,412.8z"/>
			<path fill="none" d="M154.7,445.2c-0.4,0.1-0.8,0.1-1.1,0.1c-0.1,0-15-0.2-25.7,10.3c-7.7,7.6-11.6,19.1-11.5,34.1
				c0.2,23.7,11.9,43.8,29.2,50.2c13.6,5,28,0.4,39.4-12.8c0.1-0.1,0.2-0.2,0.2-0.3v-49.2c-5-3.2-9.8-6.8-14.2-11
				C164.4,460.2,158.9,453,154.7,445.2z"/>
			<path fill="none" d="M393.6,606.9L393.6,606.9c0,2.9,2.4,5.3,5.3,5.3h20.6c2.4,0,4.3-1.5,5-3.6v-28.2h-31V606.9z"/>
			<path fill="none" d="M436.6,607.5c0.3,2.6,2.5,4.7,5.3,4.7h20.6c2.4,0,4.5-1.6,5.1-3.9v-28h-31V607.5z"/>
			<path fill="none" d="M503.1,524c-2-0.9-6.2-0.9-11.5-1c-14.3,0-38.3-0.1-80-15.8c-38.3-14.4-53.2-46.9-58.9-72.2l0,0
				c0-0.1,0-0.1,0-0.2c-0.1-0.4-0.2-0.7-0.2-1.1c-0.1-0.3-0.1-0.5-0.1-0.8c-3.6-21.2,9.4-29.9,9.4-29.9c-0.9,5.5,2.5,27.7,2.9,30.2
				c5.2,22.2,18.3,50.4,51.2,62.7c31.5,11.8,52.2,14.3,66.1,14.8v-19.9h-24.8c-22.9,0-44.5-8.7-61.1-24.4
				c-16.6-15.9-26.1-37.1-26.8-59.9c0-0.9,0-1.9,0-2.8s0-1.9,0-2.8c0-0.7,0.1-1.5,0.1-2.3h-27.7c0.1,1.7,0.1,3.3,0.1,5
				c0,46.4-36.5,84.5-82.3,87c-0.4,0.1-0.8,0.1-1.3,0.1h-26.3c-12.2,0-24-2.5-34.9-7.1v54.8c6.8-2.4,12.8-1.7,12.8-1.7
				c-5.8,4.9-11.6,12.1-12.9,13.6l-1.1,1.4c-3.7,5.1-10.4,21.4-8.9,46c1.5,26,19.3,45.4,35.1,52.5l1.3,0.6l0.9,1.1
				c0.1,0.2,14,17,39.7,33.5c23.7,15.2,62.6,33.3,113.6,33.3c75.7,0,124.3-22.3,140.4-64.5c2.8-7.4,2.6-14.8-0.5-19.8
				c-1.7-2.7-4.3-4.6-7.5-5.6c-6.5-1.3-16.7,3.1-16.7,3.1c-0.3-6.8,8.1-13.6,9.7-14.8c3.4-3,5.1-6.9,4.7-8.9c-0.1-0.4-0.3-1.3-2.7-2
				c-6-1.6-18,8.8-24.2,16.3l-1.8,2.2l-2.8,0H256c-15.6,0-28.3-12.7-28.3-28.3s12.7-28.3,28.3-28.3h233.5c1.4,0,2.8-0.8,3.3-1.9
				c0.7-1.4-0.2-2.9-1.1-4c-3.2-3.9-5-7.5-5.9-10.5c-2.4,0.5-4.6,0.8-6.4,1c-23.2,2.9-47.5-4.6-67-10.7c-10.6-3.3-22.6-7-26.5-5.8
				c-1.3,0.4-4.3,2.9-6.8,4.9c-6.4,5.3-14.9,12.3-25.1,12.3c-0.9,0-1.8-0.1-2.7-0.2c-9.2-1.1-15.7-6-18.4-13.8
				c-3.7-10.7,0.9-24.9,7.4-31.4c0.3-0.3,0.5-0.5,0.8-0.7c9.2-9,19.3-0.9,19.3-0.9c-1.7,0.1-8.9,6.4-11.5,9.9
				c-2.3,3.3-3.7,6.4-4.3,8.1c-1.1,3.7-1.5,7.8-0.4,11.1c0.7,2.1,2.4,5.1,8.5,5.8c6.3,0.8,12.9-4.7,18.7-9.5c0.5-0.4,1-0.8,1.4-1.2
				c3.3-3.1,8-8.6,7.8-14.7c0,0,20.8,9.7,33.5,14c0.6,0.2,1.2,0.4,1.7,0.5c18.4,5.7,41.3,12.8,61.9,10.2
				c20.6-2.6,27.1-9.3,27.6-12.9C505.9,526.1,504.5,524.6,503.1,524z"/>
			<g>
				<path fill="none" d="M178.3,445.3c-1.3-2.3-2.4-4.7-3.5-7.2h-10.3c1.3,2.5,2.7,4.9,4.3,7.2H178.3z"/>
				<path fill="none" d="M157.7,418.8c0.9,4.6,2.3,9,4,13.3h10.8c-1.5-4.3-2.6-8.7-3.4-13.3H157.7z"/>
				<path fill="none" d="M384.2,386.8c0.1,0,0.1,0,0.2,0c4-0.1,7.2-3.4,7.2-7.4c0-4.1-3.3-7.4-7.4-7.4H336c1.9,4.7,3.3,9.6,4.3,14.7
					H384.2z"/>
				<path fill="none" d="M187,371.7c-4.6,9.7-7.2,20.6-7.2,32.1c0,41.4,33.7,75.1,75.1,75.1c41.4,0,75.1-33.7,75.1-75.1
					s-33.7-75.1-75.1-75.1c-29.3,0-54.7,16.9-67.1,41.4C187.7,370.8,187.4,371.3,187,371.7z"/>
				<path fill="none" d="M179.3,457.8c1.5,1.4,3.1,2.8,4.7,4.1c0,0,11.1,6.9,4.9-1.1c-0.2-0.3-0.4-0.5-0.5-0.7
					c-2.3-2.8-4.5-5.7-6.5-8.7h-8.6C175.2,453.6,177.2,455.8,179.3,457.8z"/>
				<path fill="none" d="M182.6,355.4h-8.4c-3,3.5-5.7,7.3-8,11.3h10C178,362.7,180.1,358.9,182.6,355.4z"/>
				<path fill="none" d="M193.8,341.8h-4.4c-3.3,2.3-6.5,4.8-9.5,7.6h7.1C189.1,346.7,191.4,344.2,193.8,341.8z"/>
				<path fill="none" d="M407.3,355.4h-8.1c-2,2.3-3.8,4.7-5.5,7.3c0.2,0.1,0.4,0.3,0.6,0.4C395.8,362.9,401.1,362.1,407.3,355.4z"
					/>
				<path fill="none" d="M412.4,349c2.2-2.7,4.6-5.3,7.2-7.8h-4.2c-3.7,2.4-7.1,5.1-10.3,8.1h7.1C412.2,349.2,412.3,349.1,412.4,349
					z"/>
				<path fill="none" d="M381.4,402.3c0,0.5,0,1,0,1.6c0,0.8,0,1.6,0,2.5c0.1,2.2,0.2,4.4,0.5,6.5h11
					C388.5,403.9,382.7,402.5,381.4,402.3z"/>
				<path fill="none" d="M173.5,372.7H163c-1.1,2.3-2,4.7-2.9,7.2h11C171.8,377.4,172.6,375,173.5,372.7z"/>
				<path fill="none" d="M382.8,418.8c0.9,4.6,2.3,9,4,13.3h10.8c-1.5-4.3-2.6-8.8-3.4-13.3H382.8z"/>
				<path fill="none" d="M389.7,438.2c1.3,2.5,2.7,4.8,4.3,7.2h9.5c-1.3-2.3-2.4-4.7-3.5-7.2H389.7z"/>
				<path fill="none" d="M404.5,457.8c2.4,2.3,5,4.4,7.6,6.4c2.2,1.4,8,4.7,2.2-2.9c-0.5-0.6-0.8-1.1-0.9-1.4
					c-2.3-2.7-4.4-5.6-6.4-8.6h-8.6C400.3,453.6,402.3,455.8,404.5,457.8z"/>
				<path fill="none" d="M156.8,412.8h11.5c-0.3-2.5-0.4-5-0.4-7.6h-11.5c0,0.4,0,0.7,0,1.1C156.3,408.5,156.5,410.7,156.8,412.8z"
					/>
				<path fill="none" d="M494,489.8v21.3c4.6,0,8.4,0.2,11.6,1.1c4.7-3.1,17.3-13,15.9-31.8C513.1,485,503.8,488.2,494,489.8z"/>
				<path fill="none" d="M269.8,612.2h20.6c2.5,0,4.6-1.7,5.2-4.1v-27.8h-31V608C265.1,610.4,267.3,612.2,269.8,612.2z"/>
				<path fill="none" d="M312.8,612.2h20.6c2.5,0,4.6-1.8,5.2-4.1v-27.8h-31v27.8C308.1,610.5,310.2,612.2,312.8,612.2z"/>
				<path fill="none" d="M480,328.7c-41.4,0-75.1,33.7-75.1,75.1s33.7,75.1,75.1,75.1c41.4,0,75.1-33.7,75.1-75.1
					S521.4,328.7,480,328.7z"/>
				<path fill="none" d="M355.9,612.2h20.6c2.4,0,4.4-1.6,5.1-3.8v-28.1h-31v27.1C350.9,610.1,353.1,612.2,355.9,612.2z"/>
				<path fill="none" d="M169.6,385.8h-11.3c-1.1,4.4-1.7,8.8-2,13.4h11.5C168.1,394.7,168.7,390.2,169.6,385.8z"/>
				<path fill="none" d="M240.7,591c0,0,0.6,7.5,11.9,8.8v-19.1C247.1,581.9,242.6,585.8,240.7,591L240.7,591z"/>
				<path fill="none" d="M141.4,551.1c-3.2-1.2-6.3-2.7-9.2-4.6c-1.4,4.6-3,13.8,0.4,26.3c2.3-2,5.1-4.1,8-5.8c0,0,0,0,0,0
					s10.1-7.1,16.9-7.6c0,0,0.7,6.5,2.1,12.9c1.6,6,5.8,17.6,15.6,27.5c0-0.4-0.1-0.7-0.1-1.1c-1.8-29.5,6.8-46.7,10.1-52.1v-3.3
					c-8.9,6.9-18.8,10.5-28.9,10.5C151.4,553.8,146.3,552.9,141.4,551.1z"/>
				<path fill="none" d="M154.7,445.2c-0.4,0.1-0.8,0.1-1.1,0.1c-0.1,0-15-0.2-25.7,10.3c-7.7,7.6-11.6,19.1-11.5,34.1
					c0.2,23.7,11.9,43.8,29.2,50.2c13.6,5,28,0.4,39.4-12.8c0.1-0.1,0.2-0.2,0.2-0.3v-49.2c-5-3.2-9.8-6.8-14.2-11
					C164.4,460.2,158.9,453,154.7,445.2z"/>
				<path fill="none" d="M503.1,524c-2-0.9-6.2-0.9-11.5-1c-14.3,0-38.3-0.1-80-15.8c-38.3-14.4-53.2-46.9-58.9-72.2l0,0
					c0-0.1,0-0.1,0-0.2c-0.1-0.4-0.2-0.7-0.2-1.1c-0.1-0.3-0.1-0.5-0.1-0.8c-3.6-21.2,9.4-29.9,9.4-29.9c-0.9,5.5,2.5,27.7,2.9,30.2
					c5.2,22.2,18.3,50.4,51.2,62.7c31.5,11.8,52.2,14.3,66.1,14.8v-19.9h-24.8c-22.9,0-44.5-8.7-61.1-24.4
					c-16.6-15.9-26.1-37.1-26.8-59.9c0-0.9,0-1.9,0-2.8s0-1.9,0-2.8c0-0.7,0.1-1.5,0.1-2.3h-27.7c0.1,1.7,0.1,3.3,0.1,5
					c0,46.4-36.5,84.5-82.3,87c-0.4,0.1-0.8,0.1-1.3,0.1h-26.3c-12.2,0-24-2.5-34.9-7.1v54.8c6.8-2.4,12.8-1.7,12.8-1.7
					c-5.8,4.9-11.6,12.1-12.9,13.6l-1.1,1.4c-3.7,5.1-10.4,21.4-8.9,46c1.5,26,19.3,45.4,35.1,52.5l1.3,0.6l0.9,1.1
					c0.1,0.2,14,17,39.7,33.5c23.7,15.2,62.6,33.3,113.6,33.3c75.7,0,124.3-22.3,140.4-64.5c2.8-7.4,2.6-14.8-0.5-19.8
					c-1.7-2.7-4.3-4.6-7.5-5.6c-6.5-1.3-16.7,3.1-16.7,3.1c-0.3-6.8,8.1-13.6,9.7-14.8c3.4-3,5.1-6.9,4.7-8.9
					c-0.1-0.4-0.3-1.3-2.7-2c-6-1.6-18,8.8-24.2,16.3l-1.8,2.2l-2.8,0H256c-15.6,0-28.3-12.7-28.3-28.3s12.7-28.3,28.3-28.3h233.5
					c1.4,0,2.8-0.8,3.3-1.9c0.7-1.4-0.2-2.9-1.1-4c-3.2-3.9-5-7.5-5.9-10.5c-2.4,0.5-4.6,0.8-6.4,1c-23.2,2.9-47.5-4.6-67-10.7
					c-10.6-3.3-22.6-7-26.5-5.8c-1.3,0.4-4.3,2.9-6.8,4.9c-6.4,5.3-14.9,12.3-25.1,12.3c-0.9,0-1.8-0.1-2.7-0.2
					c-9.2-1.1-15.7-6-18.4-13.8c-3.7-10.7,0.9-24.9,7.4-31.4c0.3-0.3,0.5-0.5,0.8-0.7c9.2-9,19.3-0.9,19.3-0.9
					c-1.7,0.1-8.9,6.4-11.5,9.9c-2.3,3.3-3.7,6.4-4.3,8.1c-1.1,3.7-1.5,7.8-0.4,11.1c0.7,2.1,2.4,5.1,8.5,5.8
					c6.3,0.8,12.9-4.7,18.7-9.5c0.5-0.4,1-0.8,1.4-1.2c3.3-3.1,8-8.6,7.8-14.7c0,0,20.8,9.7,33.5,14c0.6,0.2,1.2,0.4,1.7,0.5
					c18.4,5.7,41.3,12.8,61.9,10.2c20.6-2.6,27.1-9.3,27.6-12.9C505.9,526.1,504.5,524.6,503.1,524z"/>
				<path fill="none" d="M393.6,606.9c0,2.9,2.4,5.3,5.3,5.3h20.6c2.4,0,4.3-1.5,5-3.6v-28.2h-31L393.6,606.9L393.6,606.9z"/>
				<path fill="none" d="M441.8,612.2h20.6c2.4,0,4.5-1.6,5.1-3.9v-28h-31v27.2C436.9,610.2,439.1,612.2,441.8,612.2z"/>
			</g>
		</g>
		<g>
			<g>
				<rect x="190.9" y="282.3" fill="#E7AD00" width="22.5" height="18.1"/>
				<rect x="219.4" y="282.3" fill="#E7AD00" width="22.5" height="18.1"/>
				<rect x="247.9" y="282.3" fill="#E7AD00" width="22.5" height="18.1"/>
				<rect x="162.3" y="282.3" fill="#E7AD00" width="22.5" height="18.1"/>
				<rect x="105.3" y="282.3" fill="#E7AD00" width="22.5" height="18.1"/>
				<polygon fill="#E7AD00" points="291.8,282.3 276.4,282.3 276.4,300.4 298.9,300.4 298.9,282.3 				"/>
				<rect x="79.8" y="282.3" fill="#E7AD00" width="19.5" height="18.1"/>
				<polygon fill="#E7AD00" points="145.1,282.3 133.8,282.3 133.8,300.4 156.3,300.4 156.3,282.3 				"/>
				<rect x="390.4" y="282.3" fill="#E7AD00" width="22.5" height="18.1"/>
				<polygon fill="#E7AD00" points="484.4,282.3 475.9,282.3 475.9,300.4 498.4,300.4 498.4,282.3 				"/>
				<rect x="447.4" y="282.3" fill="#E7AD00" width="22.5" height="18.1"/>
				<rect x="504.4" y="282.3" fill="#E7AD00" width="22.5" height="18.1"/>
				<polygon fill="#E7AD00" points="541,282.3 533,282.3 533,300.4 551.7,300.4 551.7,282.3 				"/>
				<rect x="333.4" y="282.3" fill="#E7AD00" width="22.5" height="18.1"/>
				<rect x="418.9" y="282.3" fill="#E7AD00" width="22.5" height="18.1"/>
				<rect x="304.9" y="282.3" fill="#E7AD00" width="22.5" height="18.1"/>
				<rect x="361.9" y="282.3" fill="#E7AD00" width="22.5" height="18.1"/>
			</g>
			<g>
				<path fill="#E7AD00" d="M380.3,66c-2.1-0.5-26.5-6.1-18.5,3.6c23.3,20.9,43.3,46.7,58.8,76.1c20.6,39,31.8,82,32.8,124.6h30.9
					v-16c0-10.1,8.2-18.3,18.3-18.3H532c-8-43.4-28.9-83.3-60.7-115.1C445.4,95,414.3,76.4,380.3,66z"/>
				<path fill="#E7AD00" d="M96,270.3h49.2v-16.1c0-10,8.2-18.2,18.2-18.2h110.2c10,0,18.2,8.2,18.2,18.2v16.1h43.9
					c-1.9-75.3-40.2-143.8-102-183.8l-0.3,0c0,0-0.3-0.4-1-0.9c-0.7-0.5-1.5-0.9-2.2-1.4c-4.2-2.2-12.5-4.3-25.3,2.1
					c-16.1,9.4-31.1,21-44.6,34.5c-1.2,1.2-2.4,2.5-3.6,3.7h68.7c2.3,0,4.4,1.3,5.4,3.4c1,2.1,0.7,4.6-0.8,6.4l-7.9,9.5l7.9,9.5
					c1.8,2.2,1.8,5.4,0,7.7l-7.9,9.5l7.9,9.5c1.8,2.2,1.8,5.4,0,7.7l-7.9,9.5l7.9,9.5c1.5,1.8,1.8,4.3,0.8,6.4
					c-1,2.1-3.1,3.4-5.4,3.4H104C99.2,234,96.5,252,96,270.3z"/>
				<path fill="#E7AD00" d="M496.4,254.3v16h39.2c-0.2-7.5-0.8-15-1.7-22.3h-31.2C499.2,247.9,496.4,250.8,496.4,254.3z"/>
				<path fill="#E7AD00" d="M163.4,247.9c-3.4,0-6.2,2.8-6.2,6.2v16.1h122.7v-16.1c0-3.4-2.8-6.2-6.2-6.2H163.4z"/>
				<path fill="#E7AD00" d="M325.3,56.6c-3.2-0.1-6.3-0.2-9.5-0.2c-28.6,0-56.4,5.4-82.2,15.8c69.1,41.5,112.1,116,114.1,198.1h93.8
					c-1-40.7-11.8-81.7-31.4-119C389.4,112,360.3,79.5,326,57.1C325.7,57,325.5,56.8,325.3,56.6z"/>
			</g>
			<path fill="#E78100" d="M96,270.3h49.2v-14.6h-7.3c-18.6,0-15.6-21.2-15.3-23.1c1-5.3,2.3-10.6,3.7-15.8H104
				C99.2,234,96.5,252,96,270.3z"/>
			<path fill="#E78100" d="M196.3,105.6c0.7-0.5,1.4-1.1,2.1-1.8c0.5-0.4,1-0.8,1.5-1.2c13-10.1,34.6-1.5,57.7,20.2
				c23.8,22.5,57.6,87.1,60.1,108.6s-10.1,24.3-10.1,24.3h-15.8v14.6h43.9c-1.9-75.3-40.2-143.8-102-183.8l-0.3,0c0,0-0.3-0.4-1-0.9
				c-0.7-0.5-1.5-0.9-2.2-1.4c-0.7-0.4-1.5-0.7-2.4-1l-1,0.1c0.2-0.1,0.3-0.2,0.5-0.3c-4.7-1.5-12.1-1.8-22.4,3.3
				c-16.1,9.4-31.1,21-44.6,34.5c-1.2,1.2-2.4,2.5-3.6,3.7h20.3C183,117.8,189.5,111.5,196.3,105.6z"/>
			<path fill="#FCD472" d="M204.5,256.9h75.3v-2.7c0-3.4-2.8-6.2-6.2-6.2h-80.9C194.2,253.1,198.9,256.9,204.5,256.9z"/>
			<g>
				<rect x="333.4" y="282.3" fill="#FCD472" width="22.5" height="7.9"/>
				<path fill="#FCD472" d="M257.4,282.3c1.8,4.6,6.2,7.9,11.4,7.9h1.6v-7.9H257.4z"/>
				<rect x="304.9" y="282.3" fill="#FCD472" width="22.5" height="7.9"/>
				<rect x="361.9" y="282.3" fill="#FCD472" width="22.5" height="7.9"/>
				<polygon fill="#FCD472" points="291.8,282.3 276.4,282.3 276.4,290.2 298.9,290.2 298.9,282.3 				"/>
				<polygon fill="#FCD472" points="484.4,282.3 475.9,282.3 475.9,290.2 498.4,290.2 498.4,282.3 				"/>
				<rect x="390.4" y="282.3" fill="#FCD472" width="22.5" height="7.9"/>
				<rect x="504.4" y="282.3" fill="#FCD472" width="22.5" height="7.9"/>
				<polygon fill="#FCD472" points="541,282.3 533,282.3 533,290.2 551.7,290.2 551.7,282.3 				"/>
				<rect x="418.9" y="282.3" fill="#FCD472" width="22.5" height="7.9"/>
				<rect x="447.4" y="282.3" fill="#FCD472" width="22.5" height="7.9"/>
			</g>
			<path fill="#FCD472" d="M520.1,256.9h14.7c-0.3-3-0.6-6-0.9-8.9h-25.5C509.8,253.1,514.5,256.9,520.1,256.9z"/>
			<g>
				<path fill="#E78100" d="M270.4,297c-7.7,0-15.2,0-22.5,0v3.4h22.5V297z"/>
				<path fill="#E78100" d="M298.9,297c-7.6,0-15.1,0-22.5,0v3.4h22.5V297z"/>
				<path fill="#E78100" d="M241.9,297c-7.8,0-15.3,0-22.5,0v3.4h22.5V297z"/>
				<path fill="#E78100" d="M327.4,297c-7.5,0-15.1,0-22.5,0v3.4h22.5V297z"/>
				<path fill="#E78100" d="M127.8,296.4c-9.8-0.7-17.1-2.1-22.5-3.7v7.7h22.5V296.4z"/>
				<path fill="#E78100" d="M355.9,297c-7.5,0-15,0-22.5,0v3.4h22.5V297z"/>
				<path fill="#E78100" d="M156.3,297c-4.7,0-8.6,0-11.5,0c-3.9,0-7.6-0.1-11-0.2v3.6h22.5V297z"/>
				<path fill="#E78100" d="M184.9,297c-8.5,0-16.1,0-22.5,0v3.4h22.5V297z"/>
				<path fill="#E78100" d="M213.4,297c-8,0-15.5,0-22.5,0v3.4h22.5V297z"/>
				<path fill="#E78100" d="M527,297c-6.5,0-14.1,0-22.5,0v3.4H527V297z"/>
				<path fill="#E78100" d="M498.4,297c-7,0-14.5,0-22.5,0v3.4h22.5V297z"/>
				<path fill="#E78100" d="M79.8,300.4h19.5v-9.9c-8.8-3.9-9.4-8.2-9.4-8.2l-0.1-0.1h-10V300.4z"/>
				<path fill="#E78100" d="M384.4,297c-7.4,0-15,0-22.5,0v3.4h22.5V297z"/>
				<path fill="#E78100" d="M533,300.4h18.8V297c-2,0-8.6,0-18.8,0V300.4z"/>
				<path fill="#E78100" d="M469.9,297c-7.2,0-14.7,0-22.5,0v3.4h22.5V297z"/>
				<path fill="#E78100" d="M412.9,297c-7.4,0-14.9,0-22.5,0v3.4h22.5V297z"/>
				<path fill="#E78100" d="M441.4,297c-7.3,0-14.8,0-22.5,0v3.4h22.5V297z"/>
			</g>
			<path fill="#E78100" d="M453.4,270.3h30.9v-14.6h-31.7C453.1,260.5,453.3,265.4,453.4,270.3z"/>
		</g>
		<g>
			<g>
				<path fill="#181830" d="M567.1,403.8c0-27-12.3-51.1-31.7-67.1c2.7-1.9,7.5-1.9,9.9-1.8c2.1,0.4,6.5,1.5,11.5,4.5
					c0,0-2.9-12.4-5.3-17.8c-0.1-0.2-0.2-0.4-0.3-0.6c-1.4-3.2-3-6.1-4.8-8.6h17.3v-42.1h-16.1c-1.5-59.7-25.5-115.6-67.8-158
					c-43.8-43.8-102-67.9-164-67.9c-61.9,0-120.2,24.1-164,67.9c-42.4,42.4-66.3,98.3-67.8,158H67.8v42.1h19.9
					c-4.7,5.2-9.7,11.7-13.4,18.9l-0.2,0.1c0,0-8,19.3-15.3,24.3c0,0,16,1.8,36.3-5.8c0,0,0,0,0.1,0l0.1,0
					C88.8,365,82.3,383,80,399.3c-1.2,6.9-4.3,22.6-7.8,26.3c0,0,12.6-5.7,21.4-10.8c4.1-2.2,9.7-6.3,17.9-13.2
					c-0.2,0.6-0.5,1.2-0.7,1.8c-3.7,10.1-5.9,17.3-6.9,22.7l0,0c0,0-0.1,0.3-0.2,1c-0.2,1.3-0.4,2.5-0.4,3.6
					c-0.5,5.3-0.7,14.3,2.1,21.6c0,0,7.3-11,13.5-11.6c2.3,0,4.6,0.3,5.9,1.2c0.1,0.1,0.2,0.1,0.3,0.3c-1.9,1.3-3.8,2.9-5.6,4.6
					c-10.2,9.9-15.3,24.4-15.2,42.9c0.1,19.7,6.9,37.1,18.1,48.8c-2,4.4-8.6,22.2,2.1,47.4c0.8,1.9,2.5,3.2,4.5,3.6
					c2,0.4,4.1-0.4,5.5-1.9c3.5-3.9,9.3-8.8,13.8-11.2c2.8,10,10.5,29,30.6,41.5c6.9,20.7,22.2,35.8,37.2,43
					c3.6,4.2,17.5,19.4,41.2,34.7c25.1,16.2,66.4,35.5,120.5,35.5c46.5,0,83.6-8.1,110.1-24c19.9-11.9,33.8-28.1,41.5-48.2
					c4.2-11.1,3.6-22.2-1.6-30.5c-1.6-2.6-3.7-4.8-6-6.5c-0.1-0.2-0.3-0.3-0.5-0.5c-2.5-2-2.7-4.2-2.5-5.6c1.2-3.3,1.5-6.6,0.8-9.7
					c-0.7-3.2-3.1-8.8-11.4-11c-10.2-2.7-21.3,5.1-28.7,11.9v-26.5h10c6.1,0,11.7-3.5,14.2-8.8c2.5-5.4,1.5-11.6-2.7-16.7
					c-2-2.4-3-4.4-3.6-6c9.4-3.3,18.5-9.1,20-18.8c0.6-3.6-0.1-7.1-1.8-10c10-7.9,21.5-23.7,17-46.7
					C553.6,457.2,567.1,432.1,567.1,403.8z M537.5,323.3c-5.2,0.9-9.3,3.1-12.1,6.2c-3.8-2.3-7.7-4.4-11.9-6.1
					c-1.1-4.4-3.2-8-5.8-11.1H531c2.3,2.3,5.5,6.1,7.9,10.7C538.5,323.2,538,323.3,537.5,323.3z M504.4,300.4v-18.1H527v18.1H504.4z
					 M551.7,282.3v18.1H533v-18.1h8.1H551.7z M535.6,270.3h-39.2v-16c0-3.5,2.8-6.3,6.3-6.3h31.2
					C534.8,255.3,535.4,262.8,535.6,270.3z M393.9,445.3c-1.6-2.3-3-4.7-4.3-7.2H400c1.1,2.4,2.2,4.8,3.5,7.2H393.9z M407,451.3
					c2,3,4.1,5.8,6.4,8.6c0.1,0.3,0.4,0.8,0.9,1.4c5.8,7.6-0.1,4.2-2.2,2.9c-2.6-1.9-5.2-4.1-7.6-6.4c-2.2-2.1-4.2-4.2-6-6.5H407z
					 M381.4,402.3c1.3,0.2,7.1,1.6,11.5,10.5h-11c-0.3-2.2-0.4-4.3-0.5-6.5c0-0.8,0-1.6,0-2.5C381.4,403.3,381.4,402.8,381.4,402.3z
					 M340.3,386.8c-1-5.1-2.5-10-4.3-14.7h48.2c4.1,0,7.4,3.3,7.4,7.4c0,4-3.2,7.3-7.2,7.4c-0.1,0-0.1,0-0.2,0H340.3z M394.2,418.8
					c0.8,4.6,2,9,3.4,13.3h-10.8c-1.8-4.3-3.1-8.8-4-13.3H394.2z M394.4,363c-0.2-0.1-0.4-0.3-0.6-0.4c1.7-2.5,3.5-5,5.5-7.3h8.1
					C401.1,362.1,395.8,362.9,394.4,363z M405,349.4c3.2-3,6.7-5.7,10.3-8.1h4.2c-2.5,2.5-4.9,5.1-7.2,7.8c-0.1,0.1-0.2,0.2-0.3,0.3
					H405z M381.2,360.1h-51c-14.9-25.6-42.5-42.9-74.1-43.3c-0.1,0-0.3,0-0.4,0h-23.5c-8.9,0-17.7,1.3-26,3.9
					c4.9-3.6,11.7-6.5,19.8-8.2h29.6c19.7,2.1,52.8,7.1,82,18.2c4.1,1.9,15.1,8.2,18.4,20.6c0,0,8.2-18.7,9.5-31.2
					c0.2-1.4,0.4-2.8,0.4-4.2l28.5,11.5c1.4,0.6,3,0.6,4.4,0l31.5-12.3c2.3-0.7,6.6-1.8,13.8-2.8h42.9c3,1.2,6.9,3.2,10,6
					c-5.1-1-10.3-1.6-15.7-1.6c-0.1,0-0.3,0-0.4,0h-23.5C425.9,316.7,396.9,333.3,381.2,360.1z M182.6,355.4
					c-2.4,3.6-4.6,7.4-6.4,11.3h-10c2.3-4,5-7.8,8-11.3H182.6z M179.9,349.4c3-2.8,6.2-5.3,9.5-7.6h4.4c-2.4,2.4-4.7,4.9-6.8,7.6
					H179.9z M173.5,372.7c-0.9,2.3-1.7,4.7-2.4,7.2h-11c0.8-2.4,1.8-4.8,2.9-7.2H173.5z M169.6,385.8c-0.9,4.4-1.5,8.8-1.8,13.4
					h-11.5c0.3-4.6,0.9-9,2-13.4H169.6z M167.8,405.2c0,2.5,0.2,5.1,0.4,7.6h-11.5c-0.3-2.2-0.4-4.3-0.5-6.5c0-0.4,0-0.7,0-1.1
					H167.8z M169.1,418.8c0.8,4.6,1.9,9,3.4,13.3h-10.8c-1.8-4.3-3.1-8.7-4-13.3H169.1z M174.8,438.1c1.1,2.5,2.2,4.9,3.5,7.2h-9.5
					c-1.6-2.3-3-4.7-4.3-7.2H174.8z M181.9,451.3c2,3,4.2,6,6.5,8.7c0.1,0.2,0.3,0.5,0.5,0.7c6.2,8-4.9,1.1-4.9,1.1
					c-1.6-1.3-3.2-2.7-4.7-4.1c-2.2-2.1-4.2-4.2-6-6.5H181.9z M179.8,403.8c0-11.5,2.6-22.4,7.2-32.1c0.4-0.4,0.7-1,0.8-1.6
					c12.4-24.5,37.8-41.4,67.1-41.4c41.4,0,75.1,33.7,75.1,75.1s-33.7,75.1-75.1,75.1C213.5,478.9,179.8,445.2,179.8,403.8z
					 M157.1,270.3v-16.1c0-3.4,2.8-6.2,6.2-6.2h110.2c3.4,0,6.2,2.8,6.2,6.2v16.1H157.1z M184.9,282.3v18.1h-22.5v-18.1H184.9z
					 M291.8,282.3h7.1v18.1h-22.5v-18.1H291.8z M270.4,282.3v18.1h-22.5v-18.1H270.4z M241.9,282.3v18.1h-22.5v-18.1H241.9z
					 M190.9,282.3h22.5v18.1h-22.5V282.3z M353.1,312.4c1.5,3.4,0.2,7.9-1.2,11.2c-10.1-4.5-20.8-8.2-31.4-11.2H353.1z M333.4,300.4
					v-18.1h22.5v18.1H333.4z M327.4,300.4h-22.5v-18.1h22.5V300.4z M361.9,300.4v-18.1h22.5v18.1H361.9z M404.4,312.4l-7.9,3.1
					l-7.6-3.1H404.4z M390.4,300.4v-18.1h22.5v18.1H390.4z M447.4,300.4v-18.1h22.5v18.1H447.4z M441.4,300.4h-22.5v-18.1h22.5
					V300.4z M475.9,300.4v-18.1h8.4h14.1v18.1H475.9z M380.3,66c34,10.4,65.1,29,90.9,54.8c31.9,31.9,52.7,71.8,60.7,115.1h-29.3
					c-10.1,0-18.3,8.2-18.3,18.3v16h-30.9c-1-42.6-12.3-85.6-32.8-124.6c-15.5-29.4-35.5-55.2-58.8-76.1
					C353.8,59.8,378.2,65.5,380.3,66z M315.8,56.4c3.2,0,6.3,0.1,9.5,0.2c0.2,0.2,0.4,0.4,0.7,0.5c34.3,22.3,63.4,54.9,84.1,94.1
					c19.6,37.3,30.5,78.3,31.4,119h-93.8c-2-82.1-45.1-156.5-114.1-198.1C259.4,61.9,287.1,56.4,315.8,56.4z M146,136.5h66.6
					l-0.3,0.4l-9.8,7.7l15,12.7l-2.4,3l-9.8,11.2l12.3,12.6l-2.8,3.3l-8.9,10.4l5.5,5.5l1.2,1.5H107.8
					C116.2,180,129.1,157,146,136.5z M104,216.7h121.4c2.3,0,4.4-1.3,5.4-3.4c1-2.1,0.7-4.6-0.8-6.4l-7.9-9.5l7.9-9.5
					c1.8-2.2,1.8-5.4,0-7.7l-7.9-9.5l7.9-9.5c1.8-2.2,1.8-5.4,0-7.7l-7.9-9.5l7.9-9.5c1.5-1.8,1.8-4.3,0.8-6.4
					c-1-2.1-3.1-3.4-5.4-3.4h-68.7c1.2-1.2,2.4-2.5,3.6-3.7c13.5-13.5,28.5-25.1,44.6-34.5c12.8-6.3,21.1-4.3,25.3-2.1
					c0.7,0.5,1.5,0.9,2.2,1.4c0.7,0.5,1,0.9,1,0.9l0.3,0c61.8,40,100.1,108.5,102,183.8h-43.9v-16.1c0-10-8.2-18.2-18.2-18.2H163.4
					c-10,0-18.2,8.2-18.2,18.2v16.1H96C96.5,252,99.2,234,104,216.7z M156.3,282.3v18.1h-22.5v-18.1h11.3H156.3z M127.8,282.3v18.1
					h-22.5v-18.1H127.8z M79.8,300.4v-18.1h19.5v18.1H79.8z M115.6,428.9c1.4-8.1,7.5-25.3,15.2-42.9c0.5-0.9,1-1.9,1.5-3.1
					c7.3-18,7.3-27.1,7.3-27.1c-4.5,6.7-11.3,14.1-15.9,18.8c-0.3,0.2-0.5,0.4-0.8,0.6c-10.7,10.2-23.6,21.4-31.2,26.7
					c2-15.6,8.7-33.7,15.3-48.6c3.7-7.7,11.9-21.8,11.9-21.8c-7.4,4.2-15.5,5.6-18.5,5.9L84,338.9c5-11.6,15.5-21.8,20.8-26.5h92.4
					c-6.2,5-10.5,11-11.8,17.7c-5.1,3.2-9.9,6.9-14.4,11.1c-16.6,15.9-26.1,37.1-26.8,59.9c0,0.9,0,1.9,0,2.8s0,1.9,0,2.8
					c0.3,9.3,2,18.3,5.1,26.8c-3.3,0.3-8.2,1.1-13.5,3.1c-1.3-2.1-2.8-3.5-4.2-4.5C126.8,428.7,120.4,428.4,115.6,428.9z
					 M185.2,546.6c-3.3,5.4-11.8,22.6-10.1,52.1c0,0.4,0.1,0.7,0.1,1.1c-9.8-9.9-14-21.5-15.6-27.5c-1.5-6.4-2.1-12.9-2.1-12.9
					c-6.8,0.5-16.9,7.6-16.9,7.6s0,0,0,0c-2.9,1.7-5.7,3.8-8,5.8c-3.4-12.5-1.8-21.7-0.4-26.3c2.9,1.8,6,3.4,9.2,4.6
					c4.9,1.8,9.9,2.7,14.9,2.7c10.1,0,20-3.6,28.9-10.5V546.6z M185.2,526.7c-0.1,0.1-0.2,0.2-0.2,0.3
					c-11.4,13.2-25.8,17.9-39.4,12.8c-17.3-6.4-29-26.6-29.2-50.2c-0.1-15,3.7-26.5,11.5-34.1c10.7-10.5,25.6-10.3,25.7-10.3
					c0.4,0,0.8,0,1.1-0.1c4.3,7.8,9.7,15,16.4,21.3c4.4,4.2,9.2,7.9,14.2,11V526.7z M505.6,528.1c-0.6,3.6-7,10.3-27.6,12.9
					c-20.7,2.6-43.6-4.5-61.9-10.2c-0.6-0.2-1.2-0.4-1.7-0.5c-12.7-4.3-33.5-14-33.5-14c0.2,6.1-4.4,11.6-7.8,14.7
					c-0.5,0.4-0.9,0.8-1.4,1.2c-5.8,4.8-12.4,10.2-18.7,9.5c-6.1-0.8-7.8-3.7-8.5-5.8c-1.1-3.3-0.7-7.4,0.4-11.1
					c0.6-1.7,2-4.8,4.3-8.1c2.6-3.6,9.8-9.9,11.5-9.9c0,0-10.1-8-19.3,0.9c-0.3,0.2-0.6,0.4-0.8,0.7c-6.5,6.5-11.1,20.7-7.4,31.4
					c2.7,7.8,9.2,12.7,18.4,13.8c0.9,0.1,1.8,0.2,2.7,0.2c10.2,0,18.8-7,25.1-12.3c2.4-2,5.4-4.5,6.8-4.9c3.8-1.3,15.9,2.5,26.5,5.8
					c19.5,6.1,43.8,13.6,67,10.7c1.8-0.2,4-0.6,6.4-1c0.9,3,2.7,6.6,5.9,10.5c0.9,1.1,1.8,2.6,1.1,4c-0.5,1.1-1.9,1.9-3.3,1.9H256
					c-15.6,0-28.3,12.7-28.3,28.3s12.7,28.3,28.3,28.3h220.3l2.8,0l1.8-2.2c6.2-7.5,18.2-17.9,24.2-16.3c2.4,0.7,2.6,1.6,2.7,2
					c0.4,2-1.2,5.9-4.7,8.9c-1.6,1.2-10,8-9.7,14.8c0,0,10.2-4.4,16.7-3.1c3.2,1,5.8,2.9,7.5,5.6c3.2,5,3.4,12.4,0.5,19.8
					c-16.1,42.2-64.6,64.5-140.4,64.5c-51,0-89.9-18.1-113.6-33.3c-25.8-16.5-39.6-33.3-39.7-33.5l-0.9-1.1l-1.3-0.6
					c-15.8-7.1-33.6-26.5-35.1-52.5c-1.5-24.6,5.2-40.9,8.9-46l1.1-1.4c1.3-1.6,7.1-8.8,12.9-13.6c0,0-5.9-0.7-12.8,1.7v-54.8
					c10.9,4.7,22.7,7.1,34.9,7.1h26.3c0.4,0,0.9-0.1,1.3-0.1c45.8-2.5,82.3-40.5,82.3-87c0-1.7-0.1-3.4-0.1-5h27.7
					c0,0.8-0.1,1.5-0.1,2.3c0,0.9,0,1.9,0,2.8s0,1.9,0,2.8c0.6,22.7,10.1,44,26.8,59.9c16.5,15.8,38.2,24.4,61.1,24.4H482v19.9
					c-14-0.5-34.7-3-66.1-14.8c-32.9-12.3-46-40.5-51.2-62.7c-0.4-2.5-3.9-24.8-2.9-30.2c0,0-12.9,8.8-9.4,29.9
					c0,0.3,0.1,0.5,0.1,0.8c0.1,0.4,0.2,0.7,0.2,1.1c0,0.1,0,0.1,0,0.2l0,0c5.7,25.3,20.5,57.8,58.9,72.2
					c41.7,15.6,65.7,15.7,80,15.8c5.3,0,9.5,0,11.5,1C504.5,524.6,505.9,526.1,505.6,528.1z M467.6,580.3v28
					c-0.6,2.2-2.7,3.9-5.1,3.9h-20.6c-2.7,0-4.9-2-5.3-4.7v-27.2H467.6z M424.6,580.3v28.2c-0.7,2.1-2.7,3.6-5,3.6h-20.6
					c-2.9,0-5.3-2.4-5.3-5.3h0v-26.6H424.6z M381.6,580.3v28.1c-0.7,2.2-2.7,3.8-5.1,3.8h-20.6c-2.8,0-5-2.1-5.3-4.8v-27.1H381.6z
					 M338.6,580.3v27.8c-0.5,2.4-2.7,4.1-5.2,4.1h-20.6c-2.5,0-4.6-1.8-5.2-4.1v-27.8H338.6z M295.6,580.3v27.8
					c-0.6,2.3-2.7,4.1-5.2,4.1h-20.6c-2.6,0-4.7-1.8-5.2-4.2v-27.7H295.6z M252.6,580.7v19.1c-11.3-1.2-11.9-8.8-11.9-8.8l0,0
					C242.6,585.8,247.1,581.9,252.6,580.7z M505.7,512.2c-3.3-1-7-1.1-11.6-1.1v-21.3c9.8-1.6,19.1-4.8,27.5-9.4
					C523,499.2,510.4,509.1,505.7,512.2z M480,478.9c-41.4,0-75.1-33.7-75.1-75.1s33.7-75.1,75.1-75.1c41.4,0,75.1,33.7,75.1,75.1
					S521.4,478.9,480,478.9z"/>
			</g>
		</g>
		<g>
			<g>
				<g>
					<circle fill="#181830" cx="318.9" cy="683.2" r="6"/>
				</g>
			</g>
			<g>
				<g>
					<circle fill="#181830" cx="340" cy="663.6" r="6"/>
				</g>
			</g>
			<g>
				<g>
					<circle fill="#181830" cx="396.5" cy="649.4" r="6"/>
				</g>
			</g>
			<g>
				<g>
					<circle fill="#181830" cx="299.2" cy="663.6" r="6"/>
				</g>
			</g>
			<g>
				<g>
					<circle fill="#181830" cx="354.5" cy="697.8" r="6"/>
				</g>
			</g>
			<g>
				<g>
					<circle fill="#181830" cx="426.7" cy="697.8" r="6"/>
				</g>
			</g>
			<g>
				<g>
					<circle fill="#181830" cx="374.2" cy="672.4" r="6"/>
				</g>
			</g>
			<g>
				<g>
					<circle fill="#181830" cx="404.4" cy="679.5" r="6"/>
				</g>
			</g>
			<g>
				<g>
					<circle fill="#181830" cx="426.7" cy="658.9" r="6"/>
				</g>
			</g>
			<g>
				<g>
					<circle fill="#181830" cx="265.2" cy="660.5" r="6"/>
				</g>
			</g>
		</g>
		<g>
			<g>
				<path fill="#181830" d="M140.7,465.3c-1.3,5-7.8,18.7,4.4,31.1c0,0-12.8,7.7-7,24.6c0,0,10.6-18.7,20.6-17.2
					c9.2,1.4,11.7,2.6,15,0.9c3.3-1.7,4.2-6,1.1-9.4c-3.1-3.4-6.6-0.4-16.8-4.6C147,486.3,140.7,465.3,140.7,465.3z"/>
			</g>
		</g>
		<path fill="#181830" d="M392.6,631.5h-20c-0.2,0-0.4,0-0.7,0H249.8c-17,0-30.8-15.3-30.8-34.1s13.8-34.1,30.8-34.1
			c0.4,0,0.9-0.1,1.3-0.1c1.1,0.1,2.3,0.1,3.6,0.1c25,0,23-11.9,23-11.9h-27.3c-0.2,0-0.4,0-0.7,0c-23.6,0-42.8,20.7-42.8,46.1
			s19.2,46.1,42.8,46.1h122.2c0.4,0,0.9,0,1.3-0.1C394.4,642.2,392.6,631.5,392.6,631.5z"/>
		<g>
			<g>
				<path fill="#181830" d="M453,657.6c2-3,5-5,8.5-5.7c2.4-0.5,5,0,5.8,0.1c0.1,0,0.1,0,0.2,0l0,0c0,0,0.1,0,0.1,0
					c0.1,0,0.2,0.1,0.3,0.1c1.9,0.7,9,3.8,4.7,14c0,0-2.1-3.8-6.2-4.9c-0.4-0.1-0.7-0.2-1.1-0.3c-0.8-0.2-1.7-0.2-2-0.1
					c-1.1,0.2-2,0.8-2.6,1.7c-0.6,0.9-0.8,2-0.6,3.1c1.2,5.9,6.9,9.7,12.8,8.6c7.6-1.5,12.5-8.9,11.1-16.4
					c-1.5-7.6-8.9-12.5-16.4-11.1c-0.3,0.1-0.7,0.1-1,0.1c0,0,0,0,0,0c-6.4,0.6-11.2-10-11.2-10c3.1,1.2,10.1,0.8,11.9,0.6
					c12-1.6,23.4,6.5,25.8,18.6c2.5,12.6-5.8,24.8-18.4,27.3c-1.3,0.3-2.6,0.4-3.9,0.4c-9.4,0-17.9-6.7-19.8-16.3
					C450.3,664.1,451.1,660.6,453,657.6z"/>
			</g>
		</g>
		<g>
			<g>
				<path fill="#181830" d="M254.9,464.9c-33.7,0-61.1-27.4-61.1-61.1s27.4-61.1,61.1-61.1c33.7,0,61.1,27.4,61.1,61.1
					S288.5,464.9,254.9,464.9z M254.9,348.8c-30.4,0-55.1,24.7-55.1,55.1s24.7,55.1,55.1,55.1s55.1-24.7,55.1-55.1
					S285.2,348.8,254.9,348.8z"/>
			</g>
		</g>
		<g>
			<g>
				<path fill="#181830" d="M480,464.9c-33.7,0-61.1-27.4-61.1-61.1s27.4-61.1,61.1-61.1c33.7,0,61.1,27.4,61.1,61.1
					S513.7,464.9,480,464.9z M480,348.8c-30.4,0-55.1,24.7-55.1,55.1s24.7,55.1,55.1,55.1s55.1-24.7,55.1-55.1
					S510.4,348.8,480,348.8z"/>
			</g>
		</g>
	</g>
</g>
</svg>
