<?xml version="1.0" encoding="utf-8"?>
<!-- Generator: Adobe Illustrator 18.1.1, SVG Export Plug-In . SVG Version: 6.00 Build 0)  -->
<svg version="1.1" id="Layer_1" xmlns="http://www.w3.org/2000/svg" xmlns:xlink="http://www.w3.org/1999/xlink" x="0px" y="0px"
	 viewBox="0 0 512 230.4" enable-background="new 0 0 512 230.4" xml:space="preserve">
<g>
	<path fill="#181830" d="M421.4,196.5c-0.2-1.5-1.6-2.7-3.1-2.5l-149.9,8.4l5.7-14.2c0.2-1-0.1-2-0.8-2.7c-0.7-0.7-1.7-1-2.6-0.9
		L93.1,217.5c-1.5,0.3-2.6,1.7-2.4,3.3c0.2,1.6,1.6,2.7,3.1,2.6l155.9-9.6l-4.9,13.4c-0.1,0.9,0.2,1.9,0.9,2.5
		c0.6,0.5,1.3,0.8,2,0.8c0.2,0,0.4,0,0.6-0.1L419,199.8C420.5,199.5,421.6,198.1,421.4,196.5z M251.3,223.8l4.8-12.9
		c0.1-0.9-0.2-1.8-0.8-2.4c-0.6-0.6-1.3-0.9-2.1-0.9c-0.1,0-0.2,0-0.2,0l-103.5,5.5l117.8-21.9l-5.6,13.7c-0.2,0.9,0,1.9,0.7,2.6
		c0.6,0.7,1.5,1.1,2.5,1l102.4-4.6L251.3,223.8z"/>
	<g>
		<path fill="#181830" d="M325,69.3c4-0.2,9-0.5,13-0.8V53.8c-4,0.3-9,0.7-13,0.9V69.3z"/>
		<path fill="#181830" d="M78,57.3c4,0.8,9,1.6,13,2.3V42.7c-4-0.9-9-1.9-13-3V57.3z"/>
		<path fill="#181830" d="M179,68.9c4,0.2,8.5,0.4,12.6,0.6c0.5,0,0.4-0.1,1.4-0.1V55.1c-5-0.2-10-0.5-14-0.8V68.9z"/>
		<path fill="#181830" d="M140,50.5c-4-0.5-9-1.1-13-1.7v15.6c4,0.5,9,1,13,1.4V50.5z"/>
		<path fill="#181830" d="M127,145.8c5-0.7,10-1.4,16-2v-68c-6-0.5-11-1-16-1.6V145.8z"/>
		<path fill="#181830" d="M511.1,179.3c-0.8-1.4-3.4-9.1-5.8-47.5c-1.3-20.4-2.2-46.8-2.6-71.5c5.5-2,7.3-7.3,7.3-11.9V18.8
			c0-5.4-2.4-8.3-4.4-9.8c-2.4-1.8-5-2.1-6.4-2.1c-3.1,0-5.8,1.2-7.6,2.3c-5.6,3-12.7,5.9-20.9,8.6c-0.2,0.1-0.3,0.1-0.5,0.2
			c-3.8,1.5-5.9,4.5-6.7,7.5c-0.6,0.2-1.2,0.4-1.8,0.6c-0.2,0.1-0.4,0.1-0.5,0.2c-1,0.4-2,0.9-2.8,1.6c-0.2-0.2-0.3-0.4-0.5-0.6
			c-2-2.2-4.8-3.5-7.8-3.5c-1.2,0-2.3,0.2-3,0.4c-7.4,1.8-15.4,3.5-23.8,5.1c-0.4,0.1-0.8,0.2-1.3,0.3c-2.5,0.8-4.9,2.7-6.4,5.4
			c-0.5-1-1.2-1.8-2.1-2.5c-1.4-1.1-3.2-1.8-5-1.8c-0.5,0-1,0.1-1.6,0.2c-0.3,0.1-2,0.4-2.6,0.5c-13.9,2.2-28.9,4.2-44.5,5.7
			c-1.3,0.1-2.6,0.6-3.7,1.3c-0.1,0.1-0.3,0.2-0.4,0.3c-1.2,0.9-2.1,2.2-2.6,3.6c-1.9-2.6-5.1-4.1-8.9-4.1c-0.2,0-0.3,0.2-0.5,0.2
			c0,0,0,0-0.1,0c-0.2,0-0.4-0.1-0.7-0.1c-6.9,0.6-14,1-21.2,1.4c-0.1,0-0.2,0-0.3,0c-0.2,0-0.4,0-0.5,0c-5.7,0.2-8.8,2.4-10.3,4.3
			c-1.3,1.6-1.9,3.2-2.1,4.4c-0.2,0-0.3,0.1-0.5,0.1c-1.3-4.6-5.5-7.9-10.8-7.9c-0.1,0-0.3-0.1-0.3-0.1h0l0,0.1
			c-7.5,0.3-15.2,0.5-22.8,0.6c-0.1,0-0.2,0-0.3,0c-3.1,0-7.3,0.7-10,4.1c-0.4,0.6-0.8,1.2-1.1,1.8c-1-3.3-4-5.8-7.7-5.8l-1.7,0
			c-10.4,0-20.9-0.2-31.1-0.5l0,0c0,0-1,0-1,0c-2.1,0-4.1,0.8-5.6,2.2c-1.5,1.5-2.5,3.6-2.5,5.7V49c0,0-0.7,0-0.7,0
			c-1.1,0-2.1,0.2-3.1,0.6c-0.2-5.1-4.3-9.1-10-9.6c-0.2,0-0.3,0-0.5,0c-8.2-0.4-16.3-0.9-24.2-1.5l0,0l0,0c-0.1,0-0.1,0-0.2,0
			c-1.4-0.1-2.7-0.2-3.1-0.3c0,0,0,0-0.1,0c-0.2,0-0.5,0-0.7,0c-2,0-4.1,0.7-5.6,2.1c-1.6,1.5-2.8,3.6-2.8,5.9v0.1c0,0,0.3,0,0.3,0
			c0,0,0,0.1,0,0.1c-0.2,0-0.5,0-0.8,0c-1.6,0-3.5,0.5-4.5,1.3V46c0-4.7-3.3-8.6-8.3-9.9c-0.5-0.1-1-0.3-1.5-0.3
			c-8.3-0.9-16.4-2-24.2-3.1l0,0l0,0c-1-0.2-2.3-0.4-2.8-0.5c-0.6-0.1-1.2-0.2-1.9-0.2c-1.8,0-3.7,0.6-5.1,1.7
			c-1.9,1.5-3.2,3.8-3.2,6.3v0.3c0,0-0.4,0-0.6,0c-0.5,0-1.4,0.1-1.4,0.2v-3.7c0-4-2.9-7.3-6.8-7.9l0,0c-0.6-0.1-2.8-0.4-5.2-0.9
			c-6.2-1.2-12.2-2.6-17.8-4c-3-0.9-6-2-6.1-2l0,0c-0.9-0.4-1.9-0.5-2.9-0.5c-1.6,0-3.2,0.5-4.5,1.4c-0.8,0.5-1.4,1.2-1.9,1.9
			c-0.6-2.9-2.9-5.3-5.9-6.1c-0.4-0.1-1.2-0.3-1.6-0.5c-0.1,0-0.2,0-0.2-0.1c-11.5-3.8-20.5-7.8-26.8-12c-2.5-1.8-5.3-3.9-5.9-4.3
			l0,0l0,0C20.8,0.6,19.1,0,17.4,0c-1.2,0-2.6,0.3-3.7,0.8C10.9,2.1,9,5,9,8v0.3c0,0-0.4,0-0.6,0c-1.3,0-2.5,0.3-3.7,0.9
			C1.8,10.6,0,13.6,0,16.8v8.5v0v0l1.7,169.4c0,3.3,2,6.2,4.9,7.6c1.1,0.5,2.4,0.8,3.6,0.8c2,0,3.9-0.7,5.4-1.9
			c1.5-1.2,3.3-2.5,5.4-3.8c2.2-1.3,3.6-3.6,4-6.1c1.3-1,2.9-2.1,4.6-3.1c2.4-1.5,3.8-4.1,3.8-6.9L32,74.9c0.3,0.1,0.5,0.1,0.8,0.2
			c0.2,0.1,0.5,0.1,0.7,0.2l0.5,0.1l0.4,0.1c0.2,0.1,0.5,0.1,0.7,0.1c1.5,0.3,3.3,0.7,3.3,0.7c0.6,0.1,1.2,0.2,1.8,0.2
			c1.9,0,4-0.7,5.5-1.9c2-1.6,3.4-4,3.4-6.6v-0.8c0,0,0.1,0,0.2,0c1,0,1.8-0.2,2.8-0.6v106.8c0,2.6,1.2,5.1,3.2,6.7
			c1.5,1.1,3.3,1.8,5.1,1.8c0.7,0,1.5-0.1,2.2-0.3c1.9-0.5,3.8-1,6.1-1.6c3.8-0.9,6.4-4.3,6.4-8.2v-0.5c1-0.1,1.2-0.3,1.8-0.4
			c0.5,1.3,1.4,2.5,2.5,3.5c1.5,1.2,3.4,1.9,5.4,1.9c0.6,0,1.1-0.1,1.7-0.2c1.9-0.4,4.1-0.8,6.4-1.2c4-0.7,7.1-4.3,7.1-8.3V166
			c0-0.1,0.9-0.2,1.4-0.3c0.4,1.8,1.3,3.5,2.8,4.7c1.5,1.2,3.4,1.9,5.4,1.9c0.6,0,1.1-0.1,1.6-0.2l0,0c1.3-0.2,5.7-1.1,9.9-1.8
			c5.6-0.8,11.3-1.5,17-2.1c0,0,0,0,0,0c5.6-0.4,11.6-3.8,12.5-10.1c0.8-0.3,1.3-0.6,2.3-1v0.2c0,2.4,1,4.6,2.8,6.2
			c1.6,1.5,3.6,2.3,5.8,2.3c0.2,0,0.5,0,0.7,0c2.2-0.2,4.6-0.3,6.6-0.5c4.4-0.3,8.2-4,8.2-8.5V156c0,0,0.3,0,0.6-0.1
			c2.6-0.2,4.7-1.7,6-3.7c1.3,3,2.6,5.6,4.1,7.8c1.6,2.3,4.2,3.7,7,3.7c0.1,0,0.2,0,0.3,0c2.5-0.1,4.7-0.2,6.9-0.3
			c1.9-0.1,3.6-0.7,5-1.8c1.5,1.1,3.2,1.7,5,1.7c0.2,0,0.4,0,0.5,0l0,0c0.1,0,0.4,0.2,0.7,0.2c10.3-0.3,20.8-0.2,31.2-0.2h1.7
			c3.5,0,6.5-2.3,7.8-5.3c1.8,3,5.2,5.1,9.7,5.1c0.1,0,0.3-0.1,0.4-0.1c8,0.1,16.1,0.3,24,0.6c0.1,0,0.2,0,0.3,0c0.1,0,0.3,0,0.4,0
			c3.3-0.1,6.2-1.4,8.3-3.5c0.9-1,1.6-2,2-3c0.5,4,3.8,7.1,8,7.3c2.2,0.1,4.3,0.2,6.3,0.3c0.2,0,0.3,0,0.5,0c2.2,0,4.1-0.8,5.6-2.3
			c1.7-1.6,2.5-3.8,2.5-6.2v-0.8c1,0,0.6,0,0.7,0c0.3,0,0.3,0,1.3-0.1v2.1c0,4.4,3.2,8.1,7.6,8.5c2,0.2,4,0.3,6.2,0.5
			c0.2,0,0.4,0,0.7,0c2.1,0,4.2-0.8,5.8-2.2c1.8-1.6,2.8-3.9,2.8-6.3V157c0,0,0.1,0,0.2,0c2,0,3.8-0.7,5.3-2.1
			c1.6-1.5,2.5-3.7,2.5-5.9V67c3-0.3,7-0.7,10-1.1v95c0,4.3,3.3,7.9,7.6,8.4c2,0.3,4.1,0.5,6.3,0.8c0.4,0.1,0.8,0.1,1.2,0.1
			c2.1,0,4.3-0.7,5.8-2.1c1.8-1.6,3.1-3.9,3.1-6.4v-0.8c0,0,0,0,0.1,0c1.9,0,3.8-0.7,5.2-2c1.7-1.5,2.7-3.7,2.7-6V61.7
			c0-0.1,0.8-0.1,1.2-0.2c1.1-0.1,2.8-0.4,3.1-0.5c1.4-0.2,2.7-0.8,3.7-1.6V162c0,1.1-0.1,2.7,0.4,4.4c1.2,4.4,4.6,7.5,9.2,8.3
			c0.2,0,0.4,0.1,0.6,0.1c8.1,1.5,15.8,3.1,22.9,4.9c0.1,0,0.3,0.1,0.4,0.1l0,0l0,0c0.5,0.1,1.4,0.3,2.7,0.3c2.6,0,5.1-0.8,7.1-2.3
			c2.3-1.8,3.9-4.3,4.4-7.3c0.4-0.1,1.4-0.2,1.4-0.4v7.1c0,3.7,2.3,7,5.8,8.1c2.1,0.7,4.1,1.3,6.1,2c0.9,0.3,1.8,0.5,2.8,0.5
			c1.8,0,3.4-0.5,4.8-1.6c2.2-1.6,3.5-4.2,3.5-6.9v-0.8c0,0,0.3,0,0.4,0c0,0,0.1,0,0.1,0c0.6,4.3,1.3,7.9,2,10.8
			c0.6,2.4,2.1,4.5,4.3,5.6c2.5,1.3,4.8,2.6,6.7,3.9c1.4,1,3.1,1.5,4.8,1.5c2.1,0,4.1-0.8,5.7-2.2c2.1-1.9,3-4.5,2.8-7.1
			c0.1,0,0.2,0,0.3,0c2,0,3.9-0.7,5.3-2C512.1,186.5,512.8,182.5,511.1,179.3z M57,31.9c0,0.8-0.3,1.5-0.9,1.9
			c-0.4,0.3-0.8,0.4-1.3,0.4c-0.2,0-0.5,0-0.7-0.1c0,0-3.3-1.1-5.8-2c-0.5-0.2-1.1-0.4-1.6-0.6c-0.3-0.1-0.6-0.2-0.7-0.3
			c0,0-0.1,0-0.1,0C38.3,28.6,32,25.8,26,22.8v22.3c6,2.1,13.6,4.2,21.4,6.1c0,0,0.1,0,0.1,0c0.6,0.2,1.2,0.3,1.8,0.5
			C50.4,52,51,53,51,54v5.2c0,0.7-0.2,1.4-0.8,1.8c-0.4,0.3-0.9,0.5-1.4,0.5c-0.2,0-0.3,0-0.5-0.1c0,0-2-0.4-3.5-0.8
			c-0.1,0-0.2,0-0.3-0.1l-0.5-0.1l-0.6-0.1c-0.1,0-0.2-0.1-0.3-0.1c-6.1-1.5-11.9-3.2-17.2-4.8l1.6,125.9c0,0.8-0.4,1.6-1.1,2
			c-2.3,1.4-4.3,2.9-6.1,4.3c-0.4,0.4-1,0.5-1.5,0.5c-0.3,0-0.7-0.1-1-0.2c-0.8-0.4-1.4-1.2-1.4-2.1L15,16.4V8
			c0-0.9,0.5-1.7,1.3-2.1c0.3-0.2,0.7-0.2,1-0.2c0.5,0,1,0.2,1.4,0.5c0,0,3.3,2.5,6.2,4.5c6.8,4.5,16.3,8.8,28.3,12.7
			c0,0,0.1,0,0.1,0c0,0,1.1,0.4,1.9,0.6c1,0.3,1.7,1.2,1.7,2.3V31.9z M102,157.8c0,1.1-0.7,2.1-1.8,2.3c-2.3,0.4-4.3,0.8-6.2,1.2
			c-0.2,0-0.3,0-0.4,0c-0.5,0-1.2-0.2-1.6-0.5c-0.5-0.4-1-1.1-1-1.8V69.5c-4-0.7-9-1.5-13-2.3v95.9c0,1.1-0.8,2-1.9,2.3
			c-2.3,0.6-4.4,1.1-6.3,1.6c-0.2,0.1-0.4,0.1-0.6,0.1c-0.5,0-0.9-0.2-1.3-0.5c-0.6-0.4-0.8-1.1-0.8-1.8V29.3c0-0.8,0.3-1.5,0.9-1.9
			c0.4-0.3,0.8-0.4,1.3-0.4c0.3,0,0.5,0.1,0.8,0.2c0,0,3.3,1.3,6.7,2.2c5.8,1.4,11.9,2.8,18.2,4c2.9,0.5,5.3,0.9,5.3,0.9
			c1.1,0.2,1.8,1.2,1.8,2.3V157.8z M153,74v73.4c0,4.1-4.2,5.6-6.8,5.8c0,0,0.1,0,0,0c-5.8,0.6-11.6,1.4-17.3,2.2
			c-4.9,0.8-10.2,1.9-10.2,1.9c-0.1,0-0.3,0-0.4,0c-0.5,0-1-0.2-1.5-0.5c-0.5-0.4-0.8-1.1-0.8-1.8V39.9c0-0.7,0.3-1.4,0.9-1.8
			c0.4-0.3,0.9-0.5,1.4-0.5c0.2,0,0.4,0,0.5,0.1c0.8,0.2,2.6,0.5,3.3,0.6c0,0,0,0,0.1,0c7.8,1.1,16,2.2,24.4,3.1
			c0.2,0,0.7,0.1,0.8,0.1c2.2,0.5,4.6,2,4.6,4.4v22.4c0,0.2-0.3,0.7-0.4,1.1c1,0.7,1.7,1.6,2,3.1c0,0-0.1,0-0.1,0
			c0,0.3-0.2,0.5-0.2,0.8C153.3,73.7,153,73.9,153,74z M212.6,147c-0.3,0.9-1.2,1.5-2.1,1.5c-2.3,0.1-4.6,0.2-7,0.3c0,0-0.1,0-0.1,0
			c-0.8,0-1.5-0.4-1.9-1c-4.9-7.2-8.8-20-11.6-38c-2-12.6-2.9-24.5-3.3-30.6c-2.5-0.1-5.6-0.3-7.6-0.4V148c0,1.2-0.9,2.2-2.1,2.3
			c-2.1,0.2-4.2,0.3-6.3,0.5c-0.1,0-0.1,0-0.2,0c-0.6,0-1.2-0.2-1.6-0.6c-0.5-0.4-0.8-1.1-0.8-1.7V46.1c0-0.7,0.3-1.3,0.8-1.7
			c0.4-0.4,1-0.6,1.6-0.6c0.1,0,0.1,0,0.2,0c0,0,1.6,0.1,3.3,0.3c0,0,0.1,0.3,0.1,0.3c8,0.6,16.2,0.8,24.5,1.8c0,0,0,0,0.1,0
			c0.1,0-0.2-0.3-0.1-0.3c2.3,0.2,4.6,1.3,4.6,3.9v22.6c0,4-2.6,6.2-6,6.9c1.3,20,6,56.5,15,65.1C212.6,145.2,213,146.1,212.6,147z
			 M217,133.7c-1,0.7-2.6,2-3.4,3.5c-1.8-3.4-4-9.9-6.3-22c-1.8-9.3-3.3-21-4.2-32c3.8-2.2,6-6.1,6-10.6v-2.1c1,0.3,1.6,0.9,2.4,0.9
			h0c0,0,0-0.1,0.1-0.1c0.4,0.1,0.7,0,1.1,0l0,0l0,0l0.2,0c0.5,0,0.9,0,1.4,0c0.1,0-0.1,0,0,0c1,0,1.9,0.1,2.9,0.1V133.7z M243,56.5
			v81.6c4,0,7.2,0.1,10.2,0.1h1.7c0.6,0,1.2,0.2,1.7,0.6c0.4,0.4,0.7,1,0.7,1.6l0,5.3c0,1.3-1,2.5-2.3,2.5c0,0-1.7,0-1.7,0
			c-10.5,0-21.1-0.1-31.5,0.3c-0.5,0-0.8-0.1-0.9-0.1c0,0-0.1,0-0.1,0c-0.6,0-0.9-0.3-1.3-0.7c-0.5-0.4-0.5-1.1-0.5-1.7v-5.1
			c0-1.2,0.7-2.4,1.9-2.5c0,0,0.6-0.2,1.6-0.2c0,0,0,0,0,0c0,0-0.1,0.1,0,0.1c3.1-0.1,6.5,0,9.5-0.1V56.4c-3-0.1-6.1-0.1-9.1-0.2
			c0,0,0,0-0.1,0c-0.3,0-0.7,0-1,0l-0.3,0c-0.1,0-0.3,0-0.4-0.1c-0.2,0-0.2,0-0.2,0c-1.2-0.1-1.9-1.1-1.9-2.3v-5
			c0-0.6,0.2-1.2,0.6-1.7c0.4-0.4,1-0.7,1.6-0.7c0,0,0.8,0,0.8,0c10.3,0.3,20.8,0.5,31.3,0.5c0,0,1.7,0,1.7,0c1.3,0,2.3,1,2.3,2.3
			l0,5.1c0,0.6-0.2,1.2-0.7,1.7c-0.4,0.4-1,0.7-1.6,0.7l-1.9,0C250,56.6,247,56.5,243,56.5z M253,68.9v63.5c-2,0-3,0-4,0V71
			c1-0.4,2.6-1.1,3.5-2C252.6,69,253,68.9,253,68.9z M301.5,146.8c-0.7,0.7-2,1.6-4.2,1.6c-0.1,0-0.1,0-0.2,0c0,0-0.1,0-0.1,0
			c-8-0.3-16.2-0.5-24.3-0.6c0,0-0.1,0-0.1,0c-0.1,0-0.3,0-0.4,0c-3.8,0-5.3-2.7-5.3-4.5V51.5c0-0.8,0.3-1.8,1-2.8
			c1.1-1.3,3-2,5.7-2c0.1,0,0.2,0,0.2,0c7.7-0.1,15.5-0.3,23.1-0.6c0,0,0.3,0,0.3,0c2.7,0,5.6,1.6,5.6,5.1v19.3
			c0,1.3-1.3,2.8-2.5,2.8h-6.3c-1.3,0-2.1-1.5-2.1-2.8V56.1c-5,0.1-9,0.2-13,0.3v81.8c4,0.1,8,0.2,13,0.3v-14.4
			c0-1.3,0.8-1.9,2.1-1.9h6.3c1.3,0,2.5,0.6,2.5,1.9v19.2C303,143.8,302.8,145.5,301.5,146.8z M299,83.4v32.8h-4.9
			c-4.4,0-8.1,3.5-8.1,7.9v0.1h-0.7c-0.5,0-1.3,0.2-1.3,0.3V87.6c0,0.1,0.9,0.6,1.3,0.6h6.3C294.8,88.2,298,86,299,83.4z M350,149
			c0,0.7-0.5,1.3-1,1.7c-0.4,0.4-1.1,0.6-1.7,0.6c-0.1,0-0.2,0-0.3,0c-2.1-0.2-4.5-0.4-6.6-0.5c-1.2-0.1-2.4-1.1-2.4-2.3V78.3
			c-4,0.3-9,0.5-13,0.8v68.2c0,0.6-0.3,1.3-0.7,1.7c-0.4,0.4-1,0.6-1.6,0.6c0,0-0.1,0-0.1,0c-2.1-0.1-4.2-0.2-6.3-0.4
			c-1.2-0.1-2.2-1.1-2.2-2.3v-97c0-0.5,0.2-4.5,7.2-4.8c0.1,0,0.2,0,0.4,0c0.1,0,0.3,0,0.4,0c7.3-0.4,14.6-0.9,21.6-1.5
			c0.1,0,0.1,0,0.2,0c0,0,0.1,0,0.1,0c0.1,0,0.5,0,0.7,0c3.1,0,5.4,2,5.4,4.9V149z M409,46.2c-0.1,0-2.1,0.3-3.1,0.5
			c-4.8,0.8-9.9,1.5-14.9,2.2V153c0,0.7-0.2,1.3-0.7,1.8c-0.4,0.4-0.9,0.6-1.5,0.6c-0.1,0-0.2,0-0.3,0c-2.1-0.3-4.3-0.6-6.4-0.8
			c-1.2-0.1-2.1-1.1-2.1-2.3V50.3c-6,0.7-12.3,1.4-18.5,2c-0.1,0-0.1,0-0.1,0l-0.5,0.1c-0.1,0-0.1,0-0.2,0c-0.6,0-1.3-0.2-1.7-0.6
			c-0.5-0.4-0.9-1.1-0.9-1.7v-5.1c0-0.7,0.5-1.4,1.1-1.8c0,0,0.2-0.1,0.2-0.1c0.3-0.2,0.7-0.4,1.1-0.4c15.8-1.5,30.9-3.4,44.9-5.7
			c0.8-0.1,2.4-0.4,2.7-0.5c0.2,0,0.3,0,0.5,0c0.5,0,1.1,0.2,1.5,0.5c0.5,0.4,0.9,1.1,0.9,1.8l0.1,5.2C411,45,410.1,46,409,46.2z
			 M456,159.4c0,2.6-1.5,4-2.4,4.7c-0.9,0.7-2.4,1.1-3.7,1.1h0c-0.7,0-1.2-0.2-1.4-0.2c-0.1,0-0.1-0.1-0.2-0.1
			c-7.3-1.8-15.3-3.5-23.6-5c-0.1,0-0.2,0-0.4-0.1c-2.2-0.4-3.7-1.8-4.2-3.9c-0.3-1.1-0.1-2.1-0.1-2.5V40.6c0-3.5,2.4-5.2,4-5.6
			c0.1-0.1,0.2-0.1,0.4-0.1c8.5-1.6,16.7-3.3,24.2-5.1c0,0,0,0,0,0c0.3-0.1,0.9-0.2,1.6-0.2c1.4,0,3.1,0.6,4,1.6
			c1.1,1.2,1.9,3,1.9,5.3V159.4z M505.6,184.7c-0.4,0.4-1,0.6-1.6,0.6c-0.5,0-0.9-0.1-1.3-0.4c-2.1-1.4-4.5-2.9-7.3-4.3
			c-0.6-0.3-1-0.9-1.2-1.5c-2.6-11.3-4.7-33-6.2-64.5c-1.1-22.7-1.4-44.6-1.6-55.4c-2.1,0.6-4.5,1.1-6.5,1.7v109.6
			c0,0.8-0.5,1.5-1.1,1.9c-0.4,0.3-0.9,0.4-1.4,0.4c-0.3,0-0.5,0-0.8-0.1c-2-0.7-4-1.4-6.2-2.1c-1-0.3-1.5-1.2-1.5-2.2V28.9
			c0-1.5,0.3-4.4,3.4-5.6c0.1,0,0.1,0,0.1-0.1c8.6-2.9,15.9-5.9,21.9-9.1c1-0.6,2.8-1.5,4.7-1.5c1.2,0,4.9,0.5,4.9,6.2v29.8
			c1,1.8-0.3,5.3-3.6,6.5c-0.1,0-0.1,0.1-0.2,0.1c-1.1,0.3-2.2,0.7-3.4,1.1c0.6,45.4,3.6,115.2,9.2,125.7
			C506.6,182.8,506.4,184,505.6,184.7z"/>
		<path fill="#181830" d="M480,50.8c4-1.2,9-2.5,13-3.8V25.7c-4,1.9-9,3.7-13,5.4V50.8z"/>
		<path fill="#181830" d="M431,151.1c4,0.9,9,1.8,13,2.8V40.7c-4,1-9,1.9-13,2.8V151.1z"/>
	</g>
</g>
</svg>
