<svg xmlns="http://www.w3.org/2000/svg" viewBox="0 0 512 230.4"><g fill="#181830"><path d="M421.4 196.5c-.2-1.5-1.6-2.7-3.1-2.5l-149.9 8.4 5.7-14.2c.2-1-.1-2-.8-2.7-.7-.7-1.7-1-2.6-.9L93.1 217.5c-1.5.3-2.6 1.7-2.4 3.3.2 1.6 1.6 2.7 3.1 2.6l155.9-9.6-4.9 13.4c-.1.9.2 1.9.9 2.5.6.5 1.3.8 2 .8.2 0 .4 0 .6-.1L419 199.8c1.5-.3 2.6-1.7 2.4-3.3zm-170.1 27.3l4.8-12.9c.1-.9-.2-1.8-.8-2.4-.6-.6-1.3-.9-2.1-.9h-.2l-103.5 5.5 117.8-21.9-5.6 13.7c-.2.9 0 1.9.7 2.6.6.7 1.5 1.1 2.5 1l102.4-4.6-116 19.9zM325 69.3c4-.2 9-.5 13-.8V53.8c-4 .3-9 .7-13 .9v14.6zM78 57.3c4 .8 9 1.6 13 2.3V42.7c-4-.9-9-1.9-13-3v17.6zM179 68.9c4 .2 8.5.4 12.6.6.5 0 .4-.1 1.4-.1V55.1c-5-.2-10-.5-14-.8v14.6zM140 50.5c-4-.5-9-1.1-13-1.7v15.6c4 .5 9 1 13 1.4V50.5zM127 145.8c5-.7 10-1.4 16-2v-68c-6-.5-11-1-16-1.6v71.6z"/><path d="M511.1 179.3c-.8-1.4-3.4-9.1-5.8-47.5-1.3-20.4-2.2-46.8-2.6-71.5 5.5-2 7.3-7.3 7.3-11.9V18.8c0-5.4-2.4-8.3-4.4-9.8-2.4-1.8-5-2.1-6.4-2.1-3.1 0-5.8 1.2-7.6 2.3-5.6 3-12.7 5.9-20.9 8.6-.2.1-.3.1-.5.2-3.8 1.5-5.9 4.5-6.7 7.5l-1.8.6c-.2.1-.4.1-.5.2-1 .4-2 .9-2.8 1.6-.2-.2-.3-.4-.5-.6-2-2.2-4.8-3.5-7.8-3.5-1.2 0-2.3.2-3 .4-7.4 1.8-15.4 3.5-23.8 5.1-.4.1-.8.2-1.3.3-2.5.8-4.9 2.7-6.4 5.4-.5-1-1.2-1.8-2.1-2.5-1.4-1.1-3.2-1.8-5-1.8-.5 0-1 .1-1.6.2-.3.1-2 .4-2.6.5-13.9 2.2-28.9 4.2-44.5 5.7-1.3.1-2.6.6-3.7 1.3-.1.1-.3.2-.4.3-1.2.9-2.1 2.2-2.6 3.6-1.9-2.6-5.1-4.1-8.9-4.1-.2 0-.3.2-.5.2h-.1c-.2 0-.4-.1-.7-.1-6.9.6-14 1-21.2 1.4h-.8c-5.7.2-8.8 2.4-10.3 4.3-1.3 1.6-1.9 3.2-2.1 4.4-.2 0-.3.1-.5.1-1.3-4.6-5.5-7.9-10.8-7.9-.1 0-.3-.1-.3-.1v.1c-7.5.3-15.2.5-22.8.6h-.3c-3.1 0-7.3.7-10 4.1-.4.6-.8 1.2-1.1 1.8-1-3.3-4-5.8-7.7-5.8h-1.7c-10.4 0-20.9-.2-31.1-.5h-1c-2.1 0-4.1.8-5.6 2.2-1.5 1.5-2.5 3.6-2.5 5.7v.3h-.7c-1.1 0-2.1.2-3.1.6-.2-5.1-4.3-9.1-10-9.6h-.5c-8.2-.4-16.3-.9-24.2-1.5h-.2c-1.4-.1-2.7-.2-3.1-.3H170.5c-2 0-4.1.7-5.6 2.1-1.6 1.5-2.8 3.6-2.8 5.9v.1h.3v.1h-.8c-1.6 0-3.5.5-4.5 1.3V46c0-4.7-3.3-8.6-8.3-9.9-.5-.1-1-.3-1.5-.3-8.3-.9-16.4-2-24.2-3.1-1-.2-2.3-.4-2.8-.5-.6-.1-1.2-.2-1.9-.2-1.8 0-3.7.6-5.1 1.7-1.9 1.5-3.2 3.8-3.2 6.3v.3h-.6c-.5 0-1.4.1-1.4.2v-3.7c0-4-2.9-7.3-6.8-7.9-.6-.1-2.8-.4-5.2-.9-6.2-1.2-12.2-2.6-17.8-4-3-.9-6-2-6.1-2-.9-.4-1.9-.5-2.9-.5-1.6 0-3.2.5-4.5 1.4-.8.5-1.4 1.2-1.9 1.9-.6-2.9-2.9-5.3-5.9-6.1-.4-.1-1.2-.3-1.6-.5-.1 0-.2 0-.2-.1-11.5-3.8-20.5-7.8-26.8-12-2.5-1.8-5.3-3.9-5.9-4.3C20.8.6 19.1 0 17.4 0c-1.2 0-2.6.3-3.7.8C10.9 2.1 9 5 9 8v.3h-.6c-1.3 0-2.5.3-3.7.9C1.8 10.6 0 13.6 0 16.8v8.5l1.7 169.4c0 3.3 2 6.2 4.9 7.6 1.1.5 2.4.8 3.6.8 2 0 3.9-.7 5.4-1.9 1.5-1.2 3.3-2.5 5.4-3.8 2.2-1.3 3.6-3.6 4-6.1 1.3-1 2.9-2.1 4.6-3.1 2.4-1.5 3.8-4.1 3.8-6.9L32 74.9c.3.1.5.1.8.2.2.1.5.1.7.2l.5.1.4.1c.2.1.5.1.7.1 1.5.3 3.3.7 3.3.7.6.1 1.2.2 1.8.2 1.9 0 4-.7 5.5-1.9 2-1.6 3.4-4 3.4-6.6v-.8h.2c1 0 1.8-.2 2.8-.6v106.8c0 2.6 1.2 5.1 3.2 6.7 1.5 1.1 3.3 1.8 5.1 1.8.7 0 1.5-.1 2.2-.3 1.9-.5 3.8-1 6.1-1.6 3.8-.9 6.4-4.3 6.4-8.2v-.5c1-.1 1.2-.3 1.8-.4.5 1.3 1.4 2.5 2.5 3.5 1.5 1.2 3.4 1.9 5.4 1.9.6 0 1.1-.1 1.7-.2 1.9-.4 4.1-.8 6.4-1.2 4-.7 7.1-4.3 7.1-8.3v-.6c0-.1.9-.2 1.4-.3.4 1.8 1.3 3.5 2.8 4.7 1.5 1.2 3.4 1.9 5.4 1.9.6 0 1.1-.1 1.6-.2 1.3-.2 5.7-1.1 9.9-1.8 5.6-.8 11.3-1.5 17-2.1 5.6-.4 11.6-3.8 12.5-10.1.8-.3 1.3-.6 2.3-1v.2c0 2.4 1 4.6 2.8 6.2 1.6 1.5 3.6 2.3 5.8 2.3h.7c2.2-.2 4.6-.3 6.6-.5 4.4-.3 8.2-4 8.2-8.5v-.8s.3 0 .6-.1c2.6-.2 4.7-1.7 6-3.7 1.3 3 2.6 5.6 4.1 7.8 1.6 2.3 4.2 3.7 7 3.7h.3c2.5-.1 4.7-.2 6.9-.3 1.9-.1 3.6-.7 5-1.8 1.5 1.1 3.2 1.7 5 1.7h.5c.1 0 .4.2.7.2 10.3-.3 20.8-.2 31.2-.2h1.7c3.5 0 6.5-2.3 7.8-5.3 1.8 3 5.2 5.1 9.7 5.1.1 0 .3-.1.4-.1 8 .1 16.1.3 24 .6h.7c3.3-.1 6.2-1.4 8.3-3.5.9-1 1.6-2 2-3 .5 4 3.8 7.1 8 7.3 2.2.1 4.3.2 6.3.3h.5c2.2 0 4.1-.8 5.6-2.3 1.7-1.6 2.5-3.8 2.5-6.2v-.8h.7c.3 0 .3 0 1.3-.1v2.1c0 4.4 3.2 8.1 7.6 8.5 2 .2 4 .3 6.2.5h.7c2.1 0 4.2-.8 5.8-2.2 1.8-1.6 2.8-3.9 2.8-6.3v-.9h.2c2 0 3.8-.7 5.3-2.1 1.6-1.5 2.5-3.7 2.5-5.9V67c3-.3 7-.7 10-1.1v95c0 4.3 3.3 7.9 7.6 8.4 2 .3 4.1.5 6.3.8.4.1.8.1 1.2.1 2.1 0 4.3-.7 5.8-2.1 1.8-1.6 3.1-3.9 3.1-6.4v-.8h.1c1.9 0 3.8-.7 5.2-2 1.7-1.5 2.7-3.7 2.7-6V61.7c0-.1.8-.1 1.2-.2 1.1-.1 2.8-.4 3.1-.5 1.4-.2 2.7-.8 3.7-1.6V162c0 1.1-.1 2.7.4 4.4 1.2 4.4 4.6 7.5 9.2 8.3.2 0 .4.1.6.1 8.1 1.5 15.8 3.1 22.9 4.9.1 0 .3.1.4.1.5.1 1.4.3 2.7.3 2.6 0 5.1-.8 7.1-2.3 2.3-1.8 3.9-4.3 4.4-7.3.4-.1 1.4-.2 1.4-.4v7.1c0 3.7 2.3 7 5.8 8.1 2.1.7 4.1 1.3 6.1 2 .9.3 1.8.5 2.8.5 1.8 0 3.4-.5 4.8-1.6 2.2-1.6 3.5-4.2 3.5-6.9v-.8h.5c.6 4.3 1.3 7.9 2 10.8.6 2.4 2.1 4.5 4.3 5.6 2.5 1.3 4.8 2.6 6.7 3.9 1.4 1 3.1 1.5 4.8 1.5 2.1 0 4.1-.8 5.7-2.2 2.1-1.9 3-4.5 2.8-7.1h.3c2 0 3.9-.7 5.3-2 2.7-2.5 3.4-6.5 1.7-9.7zM57 31.9c0 .8-.3 1.5-.9 1.9-.4.3-.8.4-1.3.4-.2 0-.5 0-.7-.1 0 0-3.3-1.1-5.8-2-.5-.2-1.1-.4-1.6-.6-.3-.1-.6-.2-.7-.3h-.1C38.3 28.6 32 25.8 26 22.8v22.3c6 2.1 13.6 4.2 21.4 6.1h.1c.6.2 1.2.3 1.8.5C50.4 52 51 53 51 54v5.2c0 .7-.2 1.4-.8 1.8-.4.3-.9.5-1.4.5-.2 0-.3 0-.5-.1 0 0-2-.4-3.5-.8-.1 0-.2 0-.3-.1l-.5-.1-.6-.1c-.1 0-.2-.1-.3-.1-6.1-1.5-11.9-3.2-17.2-4.8l1.6 125.9c0 .8-.4 1.6-1.1 2-2.3 1.4-4.3 2.9-6.1 4.3-.4.4-1 .5-1.5.5-.3 0-.7-.1-1-.2-.8-.4-1.4-1.2-1.4-2.1L15 16.4V8c0-.9.5-1.7 1.3-2.1.3-.2.7-.2 1-.2.5 0 1 .2 1.4.5 0 0 3.3 2.5 6.2 4.5 6.8 4.5 16.3 8.8 28.3 12.7h.1s1.1.4 1.9.6c1 .3 1.7 1.2 1.7 2.3v5.6zm45 125.9c0 1.1-.7 2.1-1.8 2.3-2.3.4-4.3.8-6.2 1.2h-.4c-.5 0-1.2-.2-1.6-.5-.5-.4-1-1.1-1-1.8V69.5c-4-.7-9-1.5-13-2.3v95.9c0 1.1-.8 2-1.9 2.3-2.3.6-4.4 1.1-6.3 1.6-.2.1-.4.1-.6.1-.5 0-.9-.2-1.3-.5-.6-.4-.8-1.1-.8-1.8V29.3c0-.8.3-1.5.9-1.9.4-.3.8-.4 1.3-.4.3 0 .5.1.8.2 0 0 3.3 1.3 6.7 2.2 5.8 1.4 11.9 2.8 18.2 4 2.9.5 5.3.9 5.3.9 1.1.2 1.8 1.2 1.8 2.3v121.2zM153 74v73.4c0 4.1-4.2 5.6-6.8 5.8 0 0 .1 0 0 0-5.8.6-11.6 1.4-17.3 2.2-4.9.8-10.2 1.9-10.2 1.9h-.4c-.5 0-1-.2-1.5-.5-.5-.4-.8-1.1-.8-1.8V39.9c0-.7.3-1.4.9-1.8.4-.3.9-.5 1.4-.5.2 0 .4 0 .5.1.8.2 2.6.5 3.3.6h.1c7.8 1.1 16 2.2 24.4 3.1.2 0 .7.1.8.1 2.2.5 4.6 2 4.6 4.4v22.4c0 .2-.3.7-.4 1.1 1 .7 1.7 1.6 2 3.1h-.1c0 .3-.2.5-.2.8 0 .4-.3.6-.3.7zm59.6 73c-.3.9-1.2 1.5-2.1 1.5-2.3.1-4.6.2-7 .3h-.1c-.8 0-1.5-.4-1.9-1-4.9-7.2-8.8-20-11.6-38-2-12.6-2.9-24.5-3.3-30.6-2.5-.1-5.6-.3-7.6-.4V148c0 1.2-.9 2.2-2.1 2.3-2.1.2-4.2.3-6.3.5h-.2c-.6 0-1.2-.2-1.6-.6-.5-.4-.8-1.1-.8-1.7V46.1c0-.7.3-1.3.8-1.7.4-.4 1-.6 1.6-.6h.2s1.6.1 3.3.3l.1.3c8 .6 16.2.8 24.5 1.8h.1c.1 0-.2-.3-.1-.3 2.3.2 4.6 1.3 4.6 3.9v22.6c0 4-2.6 6.2-6 6.9 1.3 20 6 56.5 15 65.1.5.8.9 1.7.5 2.6zm4.4-13.3c-1 .7-2.6 2-3.4 3.5-1.8-3.4-4-9.9-6.3-22-1.8-9.3-3.3-21-4.2-32 3.8-2.2 6-6.1 6-10.6v-2.1c1 .3 1.6.9 2.4.9 0 0 0-.1.1-.1.4.1.7 0 1.1 0H214.3c.1 0-.1 0 0 0 1 0 1.9.1 2.9.1v62.3zm26-77.2v81.6c4 0 7.2.1 10.2.1h1.7c.6 0 1.2.2 1.7.6.4.4.7 1 .7 1.6v5.3c0 1.3-1 2.5-2.3 2.5h-1.7c-10.5 0-21.1-.1-31.5.3-.5 0-.8-.1-.9-.1h-.1c-.6 0-.9-.3-1.3-.7-.5-.4-.5-1.1-.5-1.7v-5.1c0-1.2.7-2.4 1.9-2.5 0 0 .6-.2 1.6-.2 0 0-.1.1 0 .1 3.1-.1 6.5 0 9.5-.1V56.4c-3-.1-6.1-.1-9.1-.2H221.5c-.1 0-.3 0-.4-.1h-.2c-1.2-.1-1.9-1.1-1.9-2.3v-5c0-.6.2-1.2.6-1.7.4-.4 1-.7 1.6-.7h.8c10.3.3 20.8.5 31.3.5h1.7c1.3 0 2.3 1 2.3 2.3v5.1c0 .6-.2 1.2-.7 1.7-.4.4-1 .7-1.6.7h-1.9c-3.1-.1-6.1-.2-10.1-.2zm10 12.4v63.5h-4V71c1-.4 2.6-1.1 3.5-2 .1 0 .5-.1.5-.1zm48.5 77.9c-.7.7-2 1.6-4.2 1.6h-.2-.1c-8-.3-16.2-.5-24.3-.6h-.5c-3.8 0-5.3-2.7-5.3-4.5V51.5c0-.8.3-1.8 1-2.8 1.1-1.3 3-2 5.7-2h.2c7.7-.1 15.5-.3 23.1-.6h.3c2.7 0 5.6 1.6 5.6 5.1v19.3c0 1.3-1.3 2.8-2.5 2.8H294c-1.3 0-2.1-1.5-2.1-2.8V56.1c-5 .1-9 .2-13 .3v81.8c4 .1 8 .2 13 .3v-14.4c0-1.3.8-1.9 2.1-1.9h6.3c1.3 0 2.5.6 2.5 1.9v19.2c.2.5 0 2.2-1.3 3.5zM299 83.4v32.8h-4.9c-4.4 0-8.1 3.5-8.1 7.9v.1h-.7c-.5 0-1.3.2-1.3.3V87.6c0 .1.9.6 1.3.6h6.3c3.2 0 6.4-2.2 7.4-4.8zm51 65.6c0 .7-.5 1.3-1 1.7-.4.4-1.1.6-1.7.6h-.3c-2.1-.2-4.5-.4-6.6-.5-1.2-.1-2.4-1.1-2.4-2.3V78.3c-4 .3-9 .5-13 .8v68.2c0 .6-.3 1.3-.7 1.7-.4.4-1 .6-1.6.6h-.1c-2.1-.1-4.2-.2-6.3-.4-1.2-.1-2.2-1.1-2.2-2.3v-97c0-.5.2-4.5 7.2-4.8h.8c7.3-.4 14.6-.9 21.6-1.5h1c3.1 0 5.4 2 5.4 4.9V149zm59-102.8c-.1 0-2.1.3-3.1.5-4.8.8-9.9 1.5-14.9 2.2V153c0 .7-.2 1.3-.7 1.8-.4.4-.9.6-1.5.6h-.3c-2.1-.3-4.3-.6-6.4-.8-1.2-.1-2.1-1.1-2.1-2.3v-102c-6 .7-12.3 1.4-18.5 2h-.1l-.5.1h-.2c-.6 0-1.3-.2-1.7-.6-.5-.4-.9-1.1-.9-1.7V45c0-.7.5-1.4 1.1-1.8l.2-.1c.3-.2.7-.4 1.1-.4 15.8-1.5 30.9-3.4 44.9-5.7.8-.1 2.4-.4 2.7-.5h.5c.5 0 1.1.2 1.5.5.5.4.9 1.1.9 1.8l.1 5.2c-.1 1-1 2-2.1 2.2zm47 113.2c0 2.6-1.5 4-2.4 4.7-.9.7-2.4 1.1-3.7 1.1-.7 0-1.2-.2-1.4-.2-.1 0-.1-.1-.2-.1-7.3-1.8-15.3-3.5-23.6-5-.1 0-.2 0-.4-.1-2.2-.4-3.7-1.8-4.2-3.9-.3-1.1-.1-2.1-.1-2.5V40.6c0-3.5 2.4-5.2 4-5.6.1-.1.2-.1.4-.1 8.5-1.6 16.7-3.3 24.2-5.1.3-.1.9-.2 1.6-.2 1.4 0 3.1.6 4 1.6 1.1 1.2 1.9 3 1.9 5.3v122.9zm49.6 25.3c-.4.4-1 .6-1.6.6-.5 0-.9-.1-1.3-.4-2.1-1.4-4.5-2.9-7.3-4.3-.6-.3-1-.9-1.2-1.5-2.6-11.3-4.7-33-6.2-64.5-1.1-22.7-1.4-44.6-1.6-55.4-2.1.6-4.5 1.1-6.5 1.7v109.6c0 .8-.5 1.5-1.1 1.9-.4.3-.9.4-1.4.4-.3 0-.5 0-.8-.1-2-.7-4-1.4-6.2-2.1-1-.3-1.5-1.2-1.5-2.2V28.9c0-1.5.3-4.4 3.4-5.6.1 0 .1 0 .1-.1 8.6-2.9 15.9-5.9 21.9-9.1 1-.6 2.8-1.5 4.7-1.5 1.2 0 4.9.5 4.9 6.2v29.8c1 1.8-.3 5.3-3.6 6.5-.1 0-.1.1-.2.1-1.1.3-2.2.7-3.4 1.1.6 45.4 3.6 115.2 9.2 125.7.7.8.5 2-.3 2.7z"/><path d="M480 50.8c4-1.2 9-2.5 13-3.8V25.7c-4 1.9-9 3.7-13 5.4v19.7zM431 151.1c4 .9 9 1.8 13 2.8V40.7c-4 1-9 1.9-13 2.8v107.6z"/></g></svg>